<?xml version="1.0" encoding="utf-8"?>
<!-- Generator: Adobe Illustrator 16.0.0, SVG Export Plug-In . SVG Version: 6.00 Build 0)  -->
<!DOCTYPE svg PUBLIC "-//W3C//DTD SVG 1.1//EN" "http://www.w3.org/Graphics/SVG/1.1/DTD/svg11.dtd">
<svg version="1.1" id="Layer_1" xmlns="http://www.w3.org/2000/svg" xmlns:xlink="http://www.w3.org/1999/xlink" x="0px" y="0px"
	 width="184.106px" height="55px" viewBox="0 0 184.106 55" enable-background="new 0 0 184.106 55" xml:space="preserve">
<g id="Background_xA0_Image_1_">
</g>
<g id="Layer_1_xA0_Image_1_">
</g>
<g id="고려대학교_글로벌건설_엔지니어링">
	<g id="korea_University_Global_construction_engineering_department_1_">
	</g>
	<g>
		<path fill="#910023" d="M40.926,30.314V1.175h-0.697H0.875V30.33c-0.003,0.428-0.028,10.672,7.267,16.746l-0.017-0.014
			c0.229,0.203,5.686,4.986,12.465,7.906l0.134,0.057h0.365l0.139-0.064c6.527-3.027,12.478-7.832,12.538-7.879
			C41.07,41,40.935,30.751,40.926,30.314z"/>
		<g>
			<polygon fill="#E1D7C7" points="2.348,2.66 2.348,2.944 39.545,2.944 39.545,2.66 			"/>
			<polygon fill="#E1D7C7" points="2.348,10.623 2.348,10.908 39.545,10.908 39.545,10.623 			"/>
			<polygon fill="#E1D7C7" points="2.263,15.378 2.263,15.662 39.462,15.662 39.462,15.378 			"/>
			<path fill="#E1D7C7" d="M9.28,9.406c-0.199-0.15-0.387-0.293-0.795-0.721c0,0-1.719-1.902-1.98-2.191
				c0.066-0.083,1.999-2.445,1.999-2.446l0.114-0.12H8.473H7.644L5.472,6.614V3.928H5.409H4.49v5.674h0.982V6.695L7.74,9.22
				c0.187,0.251,0.525,0.382,0.999,0.382H9.55L9.355,9.463C9.358,9.464,9.28,9.406,9.28,9.406L9.28,9.406z"/>
			<path fill="#E1D7C7" d="M13.932,3.76c-0.864-0.005-1.608,0.287-2.211,0.865c-0.602,0.578-0.909,1.288-0.909,2.109
				c0,0.866,0.302,1.594,0.9,2.16c0.581,0.558,1.299,0.84,2.139,0.84c0.839,0,1.567-0.292,2.164-0.869
				c0.595-0.577,0.9-1.309,0.9-2.173c0-0.792-0.281-1.479-0.834-2.04C15.507,4.066,14.782,3.766,13.932,3.76 M13.891,8.994
				c-0.59,0-1.091-0.248-1.478-0.736c-0.365-0.453-0.55-0.991-0.55-1.6c0-0.626,0.186-1.15,0.551-1.553
				c0.366-0.4,0.856-0.604,1.46-0.604c0.594,0,1.086,0.245,1.466,0.729c0.347,0.446,0.524,0.997,0.524,1.632
				c0,0.617-0.179,1.132-0.532,1.529C14.968,8.789,14.481,8.994,13.891,8.994L13.891,8.994z"/>
			<path fill="#E1D7C7" d="M27.656,6.889c0.117,0,1.824,0.001,1.824,0.001V6.146c0,0-1.707,0-1.824,0c0-0.11,0-1.359,0-1.47
				c0.398-0.01,2.232-0.001,2.252-0.001l0.063,0.001V3.914l-3.306-0.002v0.063l0.004,5.627h3.645l0.009-0.8
				c0,0-2.549,0.003-2.667,0.003C27.656,8.69,27.656,7.002,27.656,6.889L27.656,6.889z"/>
			<path fill="#E1D7C7" d="M35.589,3.912h-0.911l-2.319,5.689h0.878c0,0,0.752-2.009,0.78-2.088c0.081,0,1.967,0,2.05,0
				c0.028,0.078,0.795,2.088,0.795,2.088h1.089l-2.32-5.689H35.589 M35.749,6.762c-0.153,0-1.304,0-1.458,0
				c0.056-0.147,0.639-1.621,0.737-1.869C35.123,5.142,35.694,6.615,35.749,6.762L35.749,6.762z"/>
			<path fill="#E1D7C7" d="M23.243,8.316c0,0-0.943-1.18-1.181-1.477c0.195-0.072,0.536-0.225,0.797-0.497
				c0.286-0.297,0.429-0.636,0.429-1.007c0-0.416-0.158-0.76-0.471-1.019c-0.325-0.269-0.775-0.404-1.34-0.404h-1.826h-0.063V9.6
				h1.014V9.514c-0.026-0.19-0.028-0.482-0.028-1.159c0,0,0-3.611,0-3.733c0.928-0.008,1.297,0.109,1.441,0.211
				c0.194,0.139,0.29,0.338,0.287,0.609C22.3,6.07,21.839,6.445,20.897,6.588l-0.108,0.015l1.994,2.553
				c0.236,0.297,0.582,0.446,1.028,0.446h0.813l-0.167-0.115C24.052,9.21,23.608,8.783,23.243,8.316L23.243,8.316z"/>
			<path fill="#E1D7C7" d="M19.669,13.305c0.057,0,0.87,0,0.87,0V12.95c0,0-0.813,0.001-0.87,0.001c0-0.054,0-0.65,0-0.701
				c0.189-0.005,1.063,0,1.073,0h0.029v-0.363l-1.574-0.002v0.031l0.002,2.681h1.73l0.011-0.382c0,0-1.214,0.002-1.272,0.002
				C19.669,14.162,19.669,13.357,19.669,13.305L19.669,13.305z"/>
			<path fill="#E1D7C7" d="M6.718,11.888H6.392l0.002,1.671c0,0.498-0.115,0.771-0.728,0.771H5.594
				c-0.408,0-0.614-0.261-0.614-0.771c0-0.002,0.002-1.671,0.002-1.671h-0.47l-0.001,1.673c0,0.202,0.008,0.341,0.025,0.426
				c0.028,0.151,0.091,0.283,0.189,0.391c0.177,0.192,0.43,0.291,0.753,0.291h0.304c0.322,0,0.577-0.099,0.752-0.291
				c0.097-0.107,0.16-0.239,0.189-0.392c0.017-0.084,0.024-0.223,0.024-0.425l-0.001-1.673H6.718L6.718,11.888z"/>
			<path fill="#E1D7C7" d="M10.804,11.888l-0.001,0.03c0,0-0.003,1.803-0.003,1.961c-0.101-0.127-1.568-1.991-1.568-1.991H8.823
				v2.715h0.354c0,0,0.002-1.87,0.002-2.03c0.1,0.129,1.591,2.029,1.591,2.029l0.391,0.001v-2.715h-0.033H10.804L10.804,11.888z"/>
			<polygon fill="#E1D7C7" points="13.162,11.888 13.162,14.603 13.628,14.603 13.63,11.888 13.6,11.888 			"/>
			<polyline fill="#E1D7C7" points="30.14,14.603 30.607,14.603 30.607,14.007 30.607,12.487 30.607,11.918 30.607,11.888 
				30.577,11.888 30.136,11.888 30.136,11.888 30.136,12.487 30.136,14.007 30.14,14.603 			"/>
			<path fill="#E1D7C7" d="M17.246,11.888c0,0-0.725,1.983-0.777,2.128c-0.051-0.145-0.763-2.128-0.763-2.128h-0.533l1.012,2.718
				l0.425-0.002l1.048-2.716h-0.042H17.246L17.246,11.888z"/>
			<path fill="#E1D7C7" d="M27.843,13.227c-0.002-0.002-0.365-0.18-0.365-0.18l-0.312-0.152c-0.228-0.12-0.343-0.25-0.343-0.389
				c0-0.115,0.053-0.199,0.16-0.259c0.081-0.048,0.199-0.07,0.343-0.065c0.237,0.007,0.48,0.078,0.607,0.176l0.047,0.037v-0.481
				l-0.02-0.007c-0.19-0.059-0.397-0.09-0.611-0.09c-0.281,0-0.518,0.057-0.705,0.166c-0.225,0.128-0.339,0.318-0.339,0.565
				c0,0.251,0.126,0.461,0.375,0.621c0.001,0.002,0.134,0.066,0.134,0.066l0.541,0.265c0.229,0.121,0.344,0.261,0.344,0.418
				c0,0.118-0.061,0.214-0.187,0.287c-0.111,0.069-0.233,0.103-0.359,0.102c-0.292-0.002-0.567-0.074-0.815-0.219l-0.052-0.031
				l0.07,0.475l0.019,0.006c0.217,0.081,0.466,0.123,0.732,0.123c0.33,0,0.615-0.086,0.82-0.248c0.194-0.156,0.29-0.364,0.29-0.616
				C28.217,13.576,28.091,13.385,27.843,13.227L27.843,13.227z"/>
			<path fill="#E1D7C7" d="M32.386,11.878v0.028l-0.001,0.327c0,0,0.7,0,0.757,0.002c0,0.058,0,2.36,0,2.36h0.467
				c0,0,0.001-2.303,0.001-2.36c0.057,0,0.774,0,0.774,0v-0.357H32.386L32.386,11.878z"/>
			<path fill="#E1D7C7" d="M37.444,11.881c0,0-0.693,1.069-0.74,1.143c-0.047-0.073-0.728-1.146-0.728-1.146H35.96h-0.525
				c0,0,0.967,1.521,0.978,1.536c0,0.016-0.004,1.182-0.004,1.182h0.47c0,0,0.002-1.164,0.002-1.182
				c0.01-0.016,1.017-1.533,1.017-1.533H37.444L37.444,11.881z"/>
			<path fill="#E1D7C7" d="M24.458,13.984c0,0-0.449-0.563-0.564-0.705c0.096-0.033,0.258-0.105,0.381-0.234
				c0.136-0.143,0.205-0.305,0.205-0.48c0-0.199-0.075-0.361-0.225-0.486c-0.156-0.128-0.37-0.191-0.638-0.191h-0.871h-0.028v2.71
				H23.2v-0.042c-0.012-0.091-0.012-0.223-0.012-0.552c0,0,0-1.72,0-1.78c0.44-0.004,0.617,0.052,0.686,0.102
				c0.094,0.065,0.139,0.16,0.137,0.29c-0.001,0.3-0.221,0.479-0.67,0.546l-0.05,0.008l0.949,1.215
				c0.112,0.142,0.275,0.214,0.487,0.214h0.391l-0.083-0.056C24.842,14.41,24.631,14.205,24.458,13.984L24.458,13.984z"/>
		</g>
		<g>
			<path fill="#E1D7C7" d="M39.532,30.33c0,0.009,0,0.027,0,0.063c0,0.86-0.154,10.203-6.65,15.612
				c-0.053,0.04-5.719,4.615-11.986,7.575c-6.458-2.844-11.794-7.516-11.848-7.563l-0.015-0.014
				c-6.687-5.566-6.764-15.301-6.764-15.658c0-0.005,0-6.473,0-13.173h37.264C39.532,23.869,39.532,30.33,39.532,30.33z"/>
		</g>
		<g>
			<path fill="#910023" d="M17.765,48.915h0.512c0.071,0,0.045-0.063,0.045-0.063c-0.208-0.92-0.1-1.643-0.06-1.855
				c0,0,0.021-0.063-0.053-0.063h-0.506c-0.068,0-0.042,0.053-0.042,0.053c0.171,0.709,0.104,1.603,0.06,1.863
				C17.721,48.848,17.689,48.915,17.765,48.915L17.765,48.915z"/>
			<path fill="#910023" d="M19.662,46.875c-0.815,0.08-0.765,1.034-0.765,1.034c0.05,0.864,0.946,1.026,0.946,1.026
				c-0.245,0.664-0.899,0.86-0.899,0.86c-0.154,0.06-0.042,0.104-0.042,0.104c0.196,0.064,0.48-0.049,0.48-0.049
				c1.197-0.537,1.228-1.791,1.228-1.791C20.635,46.781,19.662,46.875,19.662,46.875 M19.952,48.634
				c-0.39,0.011-0.484-0.596-0.484-0.596c-0.1-0.666,0.159-0.704,0.159-0.704c0.274-0.087,0.394,0.48,0.394,0.48
				C20.154,48.469,19.952,48.634,19.952,48.634L19.952,48.634z"/>
			<path fill="#910023" d="M22.679,47.648c0,0-0.107-0.793-0.851-0.785c0,0-0.734-0.018-0.768,1c0,0-0.028,1.076,0.9,1.029
				C21.96,48.895,22.871,48.837,22.679,47.648 M21.973,48.555c-0.352,0.129-0.391-0.591-0.391-0.591
				c-0.038-0.687,0.243-0.755,0.243-0.755c0.282-0.068,0.361,0.436,0.361,0.436C22.314,48.425,21.973,48.555,21.973,48.555
				L21.973,48.555z"/>
			<path fill="#910023" d="M22.898,49.169c0.786,0.153,0.993-0.401,0.993-0.401c0.251-0.789-0.735-0.826-0.735-0.826l0.159-1.018
				c0,0,0.989,0.049,1.253-0.083c0,0,0.062-0.042,0.028,0.106c0,0-0.055,0.338-0.377,0.363l-0.486,0.039l-0.046,0.285
				c0,0,0.841-0.017,0.826,0.891c0,0-0.031,0.705-0.853,0.875c0,0-0.385,0.086-0.828-0.094c0,0-0.068-0.035-0.032-0.088
				C22.799,49.221,22.831,49.154,22.898,49.169L22.898,49.169z"/>
			<path fill="#910023" d="M20.002,30.143c0.062-0.076,0.142-0.021,0.209,0c0.063,0.019,0.065,0.143,0.102,0.205
				c0.02,0.045,0.143,0.17,0.154,0.207c0.1,0.457,0,1.055-0.206,1.401c-0.058,0.108-0.153,0.163-0.219,0.167
				c-0.086,0.009-0.114-0.118-0.145-0.167c-0.131-0.185-0.032-0.621,0-0.824c0.035-0.265-0.171-0.688-0.04-0.88
				C19.858,30.252,20,30.143,20.002,30.143L20.002,30.143z"/>
			<path fill="#910023" d="M13.788,30.624c0.111-0.033,0.271,0.021,0.338,0l0.149-0.062c0.173-0.109,0.344-0.078,0.519-0.062
				c0.087,0.011,0.347,0.122,0.433,0.125c0.139,0.017,0.792,0.086,1.488,0.188c-0.006-0.002,0.371-0.051,0.275-0.154
				c0.06,0.066-0.011-0.057-0.153-0.105l-0.048-0.053c0.006-0.005-0.121-0.105,0.104-0.18c-0.085,0.025,0.147-0.034,0.192-0.084
				c0.09-0.096-0.042-0.199-0.042-0.199c-0.328-0.111-0.698,0.1-1.191,0.048c-0.243-0.021-0.588-0.159-0.931-0.103
				c-0.374,0.064-0.922,0.275-1.184,0.479C13.737,30.464,13.613,30.682,13.788,30.624L13.788,30.624z"/>
			<path fill="#910023" d="M17.946,27.932c0.336-0.02,0.351,0.328,0.359,0.292c-0.039,0.248-0.649,0.271-0.794,0.465
				c-0.426,0.556-0.249,1.086-1.257,1.144c0,0-0.202-0.047-0.124-0.13c0.063-0.066,0.308-0.133,0.397-0.188
				c0.13-0.074,0.12-0.285,0.206-0.414c0.018-0.031,0.132-0.072,0.16-0.101c0.283-0.383,0.314-0.771,0.814-0.997
				C17.727,27.991,17.909,27.939,17.946,27.932L17.946,27.932z"/>
			<path fill="#910023" d="M21.174,26.438c0.115-0.065,0.229,0,0.304,0.068c0.044,0.03,0.414,0.914,0.43,1.002
				c0.047,0.322,0.083,1.063-0.004,1.301c-0.124,0.332-0.431,0.588-0.364,1.176c0.036,0.347,0.188,0.615,0.335,0.916
				c0.017,0.051,0.168,0.345,0.176,0.404c0.057,0.315-0.116,0.727-0.143,0.981c-0.078,0.639,0.178,1.218,0.076,1.825
				c-0.043,0.262-0.127,0.395-0.271,0.558l-0.115,0.097c-0.032,0.063-0.088,0.086-0.146,0.129l-0.07,0.072
				c-0.108,0.025-0.119,0.09-0.163,0.094c-0.273,0.062-0.329-0.101-0.312-0.063c-0.277-0.779,0.187-1.691-0.05-2.445
				c-0.055-0.174-0.259-0.345-0.287-0.531c-0.094-0.674,0.537-1.028,0.529-1.482c0-0.324-0.426-0.744-0.522-1.063
				c-0.12-0.373-0.2-1.09-0.036-1.558c0.038-0.113,0.184-0.305,0.225-0.456c0.077-0.291,0.197-0.53,0.239-0.726
				c0.014-0.059,0.052-0.144,0.083-0.2C21.099,26.518,21.155,26.448,21.174,26.438L21.174,26.438z"/>
			<path fill="#910023" d="M29.231,24.826c0.456-0.053,0.661,0.127,0.448,0.516l-0.09,0.084c-0.037,0.014-0.157,0.172-0.183,0.195
				c-0.221,0.162-0.428,0.262-0.596,0.468c-0.058,0.068-0.105,0.245-0.177,0.306c-0.114,0.082-0.55,0.273-0.661,0.293
				c-0.552,0.089-1.303-0.462-1.385-0.781c-0.071-0.271,0-0.537,0.119-0.6c0.186-0.096,0.677-0.045,0.844-0.063
				c0.426-0.033,0.694-0.009,1.019-0.121C28.767,25.059,28.993,24.854,29.231,24.826L29.231,24.826z"/>
			<path fill="#910023" d="M26.878,24.642c0,0,0.259,0.108,0.491,0.052c0.164-0.041,0.468-0.18,0.621-0.207
				c0.093-0.021,0.223,0.025,0.313,0c0.251-0.077,0.715-0.57,0.161-0.623c-0.203-0.019-0.803,0.208-0.992,0.26
				c-0.187,0.049-0.304,0.08-0.46,0.161c-0.041,0.024-0.257,0.201-0.23,0.171C26.782,24.455,26.639,24.574,26.878,24.642
				L26.878,24.642z"/>
			<path fill="#910023" d="M22.906,25.574c-0.162-0.021-0.162-0.295-0.571-0.207c-0.285,0.061-0.362,0.479-0.778,0.468l-0.206-0.101
				c-0.18-0.043-0.31,0.02-0.468-0.059c-0.731-0.342,0.566-2.095,0.986-2.071c0.022,0,0.238,0.079,0.264,0.103
				c0.13,0.113,0.13,0.602,0.252,0.779c0.094,0.124,0.241,0.114,0.366,0.207c0.133,0.101,0.382,0.445,0.413,0.626
				C23.166,25.319,23.233,25.618,22.906,25.574L22.906,25.574z"/>
			<path fill="#910023" d="M29.657,39.742C29.665,39.73,29.665,39.73,29.657,39.742L29.657,39.742z"/>
			<path fill="#910023" d="M35.478,24.323C35.478,24.315,35.478,24.314,35.478,24.323L35.478,24.323z"/>
			<polygon fill="#910023" points="29.654,39.743 29.657,39.743 29.657,39.743 			"/>
			<path fill="#910023" d="M35.478,24.323c0,0.003,0,0.007,0,0.011l0.003,0.002C35.478,24.33,35.478,24.326,35.478,24.323
				L35.478,24.323z"/>
			<path fill="#910023" d="M28.929,23.83c0.004-0.01,0.009-0.02,0.013-0.027C28.928,23.83,28.926,23.835,28.929,23.83L28.929,23.83z
				"/>
			<path fill="#910023" d="M25.774,32.686c-0.001,0-0.007,0-0.009-0.002C25.774,32.689,25.776,32.689,25.774,32.686L25.774,32.686z"
				/>
			<path fill="#910023" d="M19.761,25.704c-0.283,0.158-0.9,0.401-1.03,0.675c-0.072,0.145-0.072,0.27-0.13,0.442
				c-0.008,0.019-0.084,0.05-0.108,0.102c-0.301,0-0.567-0.019-0.828,0.052c-0.204,0.057-0.498,0.273-0.726,0.313
				c-0.46,0.08-0.813-0.125-1.245-0.053c-0.192,0.035-0.316,0.234-0.474,0.314c-0.135,0.064-0.19,0.064-0.295,0.16l-0.096,0.11
				c-0.015,0.042-0.062,0.147-0.092,0.197c-0.094,0.141-0.131,0.284-0.154,0.437c-0.023,0.147-0.109,0.502-0.186,0.649
				c-0.038,0.069-0.232,0.229-0.261,0.295c-0.015,0.043-0.059,0.086,0,0.153c-0.067-0.073-0.054,0.072,0.32,0.091
				c0.411,0.01,1.306-0.265,1.306-0.265l0.43-0.231c0.083-0.063,0.416-0.316,0.489-0.404c0.313-0.389,1.151-1.802,1.802-1.432
				l0.117,0.084c0.156,0.262-0.041,1.008-0.157,1.178l-0.147,0.176c-0.116,0.038-0.198,0.339-0.215,0.479
				c-0.027,0.223,0.037,0.426,0.054,0.551c0.034,0.269,0.061,0.607-0.104,0.938c-0.037,0.063-0.13,0.181-0.105,0.358
				c0.032,0.203,0.32,0.353,0.362,0.521c0.025,0.086,0.099,0.1,0,0.26c-0.056,0.088-0.293,0.237-0.362,0.313
				c-0.093,0.096-0.012,0.245,0.05,0.305c0.179,0.162,0.328,0.182,0.467,0.369c0.199,0.254,0.187,0.477,0.625,0.518
				c0.343,0.033,0.828,0.052,0.623-0.416l-0.103-0.176c-0.122-0.304-0.335-0.576-0.364-0.91c-0.041-0.426,0.302-0.642,0.157-0.985
				c-0.115-0.263-0.633-0.231-0.676-0.574c-0.022-0.192,0.172-0.597,0.208-0.78c0.041-0.248-0.026-0.406,0.055-0.619
				c0.051-0.153,0.278-0.326,0.303-0.518c0.049-0.342-0.216-0.559-0.101-0.933c0.057-0.193,0.359-0.172,0.471-0.314
				c0.144-0.192,0.064-0.457,0.152-0.728c0.009-0.031,0.083-0.192,0.099-0.221c-0.009-0.011,0.059-0.348,0.059-0.348
				C19.908,25.625,19.777,25.711,19.761,25.704 M16.475,28.441c-0.291,0.067-0.316-0.553-1.016-0.312
				c-0.036,0.015-0.233,0.192-0.249,0.222c-0.082,0.187-0.038,0.656-0.13,0.703c0,0-0.271,0.066-0.218-0.277
				c0.084-0.545,0.189-0.646,0.464-0.877c0.038-0.029,0.141-0.107,0.194-0.118c0.33-0.075,0.938,0.051,1.047,0.218
				C16.661,28.139,16.462,28.445,16.475,28.441L16.475,28.441z"/>
			<path fill="#910023" d="M35.478,24.334c-0.048-0.254-0.737-0.236-1.015-0.574c-0.104-0.135-0.026-0.209,0-0.312
				c0.079-0.296,0.708-0.121,0.856-0.384c0.06-0.11,0.08-0.435,0.041-0.479c-0.395-0.484-1.228-0.254-1.815-0.488
				c-0.283-0.117-0.636-0.352-0.934-0.465c-0.374-0.143-0.663-0.164-1.037-0.313c-0.085-0.036-0.251-0.158-0.34-0.195
				c-0.417-0.166-0.747-0.199-1.161-0.377c-0.05-0.018-0.176-0.09-0.231-0.112c-0.165-0.071-0.218-0.081-0.395-0.146
				c-0.641-0.231-1.458-0.438-2.388-0.379c-0.407,0.022-0.876-0.053-1.504,0.126c-0.217,0.055-0.521,0.242-0.724,0.307
				c-0.144,0.043-0.267,0.067-0.397,0.124c-0.181,0.073-0.341,0.179-0.588,0.237c-0.713,0.16-1.665-0.016-2.388,0.105
				c-0.626,0.101-0.989,0.496-1.504,0.674c-0.158,0.053-0.222,0.036-0.377,0.092c-0.09,0.031-0.303,0.088-0.375,0.129
				c-0.215,0.11-0.355,0.144-0.598,0.246c-0.122,0.054-0.266,0.165-0.383,0.22c-0.175,0.086-0.185,0.11-0.329,0.216l-0.117,0.085
				c0,0-0.253,0.222-0.284,0.261c-0.101,0.105-0.198,0.251-0.285,0.361c-0.264,0.307-0.66,0.692-0.988,0.93
				c-0.119,0.086-0.203,0.068-0.308,0.16c-0.124,0.094-0.233,0.195-0.351,0.285c-0.272,0.195-0.544,0.324-0.844,0.488l-0.192,0.128
				c-0.253,0.167-0.243,0.234-0.506,0.399c-0.171,0.117-0.246,0.294-0.404,0.428c-0.104,0.082-0.224,0.334-0.294,0.443
				c-0.326,0.477-0.448,1.18-0.68,1.772c-0.07,0.168-0.636,0.983-0.777,1.036l-0.104,0.099c-0.081,0.067-0.081,0.089-0.154,0.161
				c-0.167,0.146-0.337,0.232-0.466,0.416c-0.105,0.141-0.167,0.307-0.264,0.463c-0.148,0.243-0.392,0.514-0.516,0.779
				c-0.05,0.098-0.086,0.197-0.122,0.291c-0.013,0.014-0.023,0.031-0.026,0.031c-0.063,0.08-0.173,0.414-0.173,0.414
				c-0.115,0.269-0.389,0.418-0.751,0.935c-0.423,0.03-1.882-0.339-2.875-0.81c0.222,0.246,1.335,0.994,2.64,1.139
				c-0.087,0.127-0.094,0.259-0.25,0.299c-0.521,0.129-1.428-0.156-2.647-0.582c0.071,0.17,1.145,0.8,2.729,0.895
				C8.644,34.17,6.467,34.1,4.764,33.637c-0.064,0.178,2.129,0.666,3.333,0.649C7.891,34.393,7.349,34.516,7,34.641
				c-0.549-0.061-1.314-0.156-1.463-0.213c0.034,0.109,0.578,0.258,1.027,0.363c-0.433,0.154-1.072,0.243-1.321,0.296
				c0.181,0.045,0.875-0.065,1.605-0.241c0.64,0.123,1.618,0.25,2.157,0.227c-0.135,0.066-0.642,0.395-1.042,0.627
				c-1.022,0.097-2.135,0.182-2.374,0.211c0.134,0.021,1.031,0.035,1.987,0.011c-0.584,0.343-1.207,0.7-1.506,0.835
				c0.443-0.111,1.235-0.414,2.044-0.85c0.803-0.029,1.556-0.096,1.869-0.207c-0.107,0.234-0.756,1.354-1.36,1.613
				c0.261-0.043,1.099-0.279,1.606-1.549c0.18,0.078,0.385,0.123,0.624,0.139c0.134,0.201,0.45,0.719,1.049,0.748
				c0.122,0.347,1.233,2.16,2.794,1.451c-0.451-0.244-0.724-0.498-0.946-1.222c0.692-0.042,2.526,0.962,3.078,3.136
				c-0.435-0.146-0.978-0.397-1.035-0.615c-0.119,0.504-0.197,1.152,0.915,2.271c0.021,0.239,0.017,0.527,0.068,0.799
				c0.183,0.191,0.396,0.334,0.592,0.5c0.014,0.316-0.031,0.75,0.798,0.991c0.282,0.231,1.186,0.481,1.318,0.64
				c0.27,0.086,0.671,0.102,0.962,0.086c0,0,0.393-0.067,0.498-0.219c0.196-0.01,0.462-0.017,1.664-1.298
				c0.252-0.3,0-1.957,0.061-2.358c0.118-0.291,0.17-0.561,0.331-0.92c0,0,0.163-0.354,0.47-0.496
				c0.021-0.012,0.039-0.012,0.064-0.018c0.692-0.156,1.594,0.49,2.02,0.672c0.155,0.063,0.237,0.029,0.362,0.105
				c0.062,0.031,0.147,0.174,0.21,0.209c0.152,0.085,0.299,0.063,0.47,0.152c0.248,0.137,0.752,0.866,1.19,0.781
				c0.136-0.031,0.244-0.344,0.362-0.418c0.205-0.127,0.491-0.113,0.674-0.258c0.209-0.165,0.123-0.35,0.155-0.573
				c0-0.011,0.097-0.114,0.105-0.157c0.102-0.012,0.328-0.002,0.469-0.047c0.018-0.007,0.078-0.076,0.102-0.103
				c0.089-0.095,0.024-0.192,0-0.269c-0.032-0.084-0.243-0.183-0.31-0.254c-0.156-0.156-0.422-0.381-0.522-0.568
				c-0.047-0.098,0.013-0.116-0.054-0.213c-0.068-0.108-0.25-0.224-0.305-0.359c-0.2-0.446-0.121-1.438-0.209-1.577
				c-0.083-0.134-0.184-0.116-0.265-0.241c-0.172-0.271,0.04-1.154,0.056-1.503c0.015-0.278-0.259-0.106-0.259-0.106
				c-0.227,0.562-0.203,0.809-0.259,1.609c-0.009,0.071-0.104,0.5-0.104,0.575c-0.003,0.278,0.161,0.752,0.049,1.088
				c-0.036,0.108-0.262,0.319-0.57,0.312c-0.116,0-0.697-0.149-0.829-0.207c-0.025-0.012-0.149-0.153-0.158-0.158
				c-0.288-0.229-0.349-0.016-0.362,0.102c-0.009,0.121,0.04,0.143,0.063,0.209c0.01,0.066,0.127,0.315,0.115,0.338
				c-0.004,0.021-0.105,0.295-0.645-0.021c-0.406-0.245-0.808-0.924-0.83-1.04c-0.056-0.261,0.024-0.457,0.074-0.546
				c0.203-0.184,0.444,0.07,0.647,0.18c0.051,0.028,0.176,0.116,0.238,0.127c0.119,0.021,0.31-0.021,0.336-0.021
				c0.788-0.047,1.604,0.238,1.744-0.289c0.087-0.332-0.239-0.512-0.297-0.646c-0.074-0.17-0.036-0.18-0.079-0.365
				c-0.007-0.016-0.061-0.135-0.073-0.15c-0.08-0.137-0.022-0.258-0.103-0.414c-0.083-0.169-0.315-0.271-0.412-0.414
				c-0.135-0.191-0.135-0.432-0.315-0.572c-0.266-0.219-1.329-0.535-1.453-0.781c-0.202-0.393,0.047-1.112-0.051-1.605
				c-0.053-0.287-0.147-0.445-0.323-0.623c-0.068-0.07-0.101-0.174-0.076-0.268c0.046-0.172,0.138-0.125,0.19-0.512
				c0.033-0.213-0.02-0.451,0-0.674c0.001-0.035,0.103-0.374,0.109-0.414c0.047-0.58-0.029-1.186-0.157-1.605
				c-0.061-0.204-0.25-0.38-0.313-0.574c-0.055-0.162,0.011-0.256-0.055-0.416c-0.051-0.143-0.232-0.242-0.305-0.359
				c-0.141-0.207-0.1-0.557-0.315-0.677c-0.157-0.088-0.213,0.035-0.204,0c-0.053,0.19-0.041,0.376,0.051,0.622
				c0.038,0.105,0.232,0.26,0.263,0.364c0.041,0.192-0.031,0.424,0,0.624l0.1,0.209c0.079,0.521-0.204,1.211-0.415,1.501
				c-0.148,0.191-0.594,0.438-0.621,0.726c-0.023,0.181,0.05,0.187,0.096,0.263c0.067,0.094,0.281,0.219,0.314,0.311
				c0.023,0.066,0.049,0.053,0.077,0.12l0.027,0.142c0.036,0.362-0.438,0.444-0.208,0.881c0.065,0.127,0.288,0.127,0.413,0.205
				c0.236,0.149,0.683,0.569,0.726,0.93c0.02,0.158,0,0.994-0.047,1.094c-0.108,0.232-0.691,0.32-0.625,0.779
				c0.074,0.498,1.391,0.356,1.761,0.619c0.176,0.123,0.212,0.392,0.265,0.629c0.03,0.129-0.099,0.172-0.156,0.201
				c-0.139,0.082-0.239,0.019-0.416,0.057c-0.428,0.087-1.112,0.279-1.292,0.623c-0.226,0.396,0.041,0.941-0.055,1.396
				c-0.094,0.412-0.404,0.916-0.627,1.25c-0.138,0.2-0.313,0.401-0.377,0.688c-0.153,0.613-0.046,1.336-0.09,2.055l-0.008,0.005
				c0,0,0.026,0.374-0.225,0.646c-0.285,0.313-1.273,1.236-1.973,1.236c-0.26-0.009-0.366-0.094-0.649-0.299
				c-0.179-0.016-0.59-0.115-0.827-0.363c-0.075-0.131-0.848-0.916-0.362-1.14c0.458-0.211,1.198,0.247,1.541,0.47
				c0.139,0,1.14,0.049,2.203-1.345c-0.05-0.729-0.11-1.664-0.189-1.835c-0.111-0.357-0.715-0.988-0.844-1.366
				c-0.08-0.309-0.224-0.911-0.131-1.327c-0.041-0.468-0.335-0.568-0.457-0.947c-0.034-0.094-0.074-0.168-0.095-0.197
				c-0.037-0.137-0.062-0.26-0.146-0.383c-0.184-0.281-0.364-0.344-0.533-0.62c-0.176-0.285-0.145-0.644-0.416-0.83
				c-0.149-0.101-0.35-0.108-0.518-0.205c-0.122-0.074-0.274-0.25-0.415-0.312c-0.164-0.074-0.209-0.096-0.375-0.17
				c-0.081-0.037-0.229-0.104-0.3-0.142c-0.073-0.042-0.146-0.006-0.207-0.056c-0.2-0.17-0.056-0.322-0.155-0.618
				c-0.01-0.036-0.088-0.038-0.106-0.104c-0.083-0.022-0.228-0.154-0.341-0.076c-0.155,0.115-0.199,0.08-0.295,0.319
				c-0.056,0.156-0.162,0.617-0.267,0.729c-0.094,0.109-0.211,0.265-0.358,0.367c-0.138,0.072-0.259,0.063-0.259,0.063l-0.388,0.058
				l-0.193,0.299c0,0-0.211-0.03-0.323-0.03c-0.031,0.071-0.288,0.269-0.368,0.339c-0.329,0.191-0.531,0.057-0.552-0.014
				c-0.017-0.063-0.121-0.191,0.102-0.325c0.76-0.214,1.693-1.229,1.771-1.452c-0.097,0.15-1.671,1.02-1.962,1.137
				c0.313-0.742,2.242-1.83,2.359-1.959c-0.494,0.076-2.136,1.067-2.422,1.508c-0.273,0.441-0.594,0.318-0.897,0.307
				c-0.294-0.01-0.27,0.307-0.284,0.502c-0.003,0.188-0.15,0.574-0.026,0.643c0.202,0.174,0.732-0.531,0.901-0.152
				c0.092,0.424-1,0.404-0.99,0.744c-0.052,0.181,1.008,0.244,1.203,0.435c-0.34,0.249-1.174,0.329-1.422,0.342
				c-0.155,0.013-0.294,0.007-0.374-0.006c-0.138-0.024-0.319-0.149-0.478-0.41c-0.302-0.548,0.208-0.926,0.216-1.065
				c0.012-0.147-0.057-0.069-0.066-0.301c-0.009-0.228,0.25-0.269,0.315-0.316c0.073-0.051-0.019-0.113-0.001-0.336
				c0.135-0.506,0.957-1.086,0.747-1.25c-0.191-0.102-0.59,0.339-0.745,0.539c-0.566,0.729-1.226,0.502-1.449,0.511
				c-0.5,0.026-0.412-0.519-0.063-0.479c0.402-0.082,0.373-0.639,0.658-0.584c0.092,0.406-0.358,0.463-0.147,0.555
				c0.287,0.113,0.315-0.262,0.406-0.422c0.086-0.16,0.491-0.504,0.445-0.594c-0.117-0.039-0.416,0.174-0.551,0.277
				c-0.329-0.82,0.5-1.443,0.541-1.688c0.271-0.43,1.79-0.978,1.818-1.627l0.042-0.037c0,0,0.028-0.019,0.074,0.059c0,0,0,0,0.003,0
				c0.01,0.04,0.017,0.082,0.029,0.126c0.003,0.053-0.002,0.101-0.002,0.101l0.007-0.063c0.012,0.104,0.007,0.189,0.012,0.169v0.099
				c0.014,0.059,0.091,0.088,0.104,0.094c0.031-0.006,0.115-0.031,0.193-0.121c0.012-0.014,0.101-0.098,0.101-0.119
				c0.146-0.105,0.172-0.12,0.274-0.266c0.261-0.381-0.242-0.938-0.103-1.449c0.096-0.341,0.414-0.744,0.414-0.744
				c0.085-0.193-0.05-0.191-0.05-0.191c-0.2-0.037-0.34,0.178-0.31,0.149c-0.256,0.241-0.333,0.358-0.52,0.681
				c0,0-0.157,0.143-0.203-0.053c-0.09-0.32,0.275-0.952,0.389-1.033c0.213-0.146,0.43-0.21,0.697-0.318
				c0.135-0.057,0.335-0.272,0.469-0.309c0.066-0.022,0.137-0.036,0.206,0c0,0,0.101,0.074,0.054,0.309c0,0-0.103,0.281-0.066,0.385
				c0.022,0.069,0.013,0.136,0.171,0.136c0.372,0.007,1.205-0.08,1.449-0.21c0.056-0.021,0.109-0.104,0.16-0.152
				c0.077-0.078,0.057-0.194,0-0.206l-0.16-0.052c0.122-0.019-0.702-0.024-0.57-0.049c-0.144,0.024,0.195-0.385,0.155-0.578
				c-0.017-0.092-0.178-0.131-0.208-0.203c-0.016-0.047-0.104-0.115,0-0.157l0.12-0.051c0.04-0.028,0.083-0.077,0.139-0.104
				c0.261-0.121,0.729-0.062,0.935,0c0.022,0.011,0.357,0.104,0.468,0.416c0.029,0.087,0.052,0.185,0.103,0.262
				c0.157,0.214,0.614,0.291,0.882,0.036c0.053-0.049,0.118-0.17,0.158-0.242c0.267-0.611-0.128-1.027-0.626-1.197
				c-0.201-0.071-0.526-0.091-0.778-0.156c-0.177-0.049-0.071-0.198-0.02-0.243l0.076-0.067c0.098-0.146,0.407-0.276,0.519-0.311
				c0.275-0.104,0.545-0.207,0.934-0.049c0.058,0.02,0.209,0.139,0.253,0.15c0.295,0.074,0.406,0.096,0.679-0.047
				c0.11-0.053,0.093-0.067,0.104-0.1c0.097-0.279-0.096-0.463-0.09-0.434c-0.058-0.375,1.01,0.088,1.176-0.148
				c0.157-0.213,0.055-0.621,0.261-0.775c0.024-0.014,0.146-0.1,0.155-0.104c0.199-0.041,0.373,0.041,0.531,0.104l0.168,0.08
				c0.337,0.139,0.628,0.213,0.81,0.489c0.114,0.181,0.093,0.442,0.204,0.626c0.048,0.078,0.159,0.127,0.216,0.207
				c0.047,0.057,0.14,0.095,0.202,0.13c0.096,0.06,0.133,0.085,0.257,0.124c0.092,0.037,0.225,0.176,0.313,0.212
				c0.317,0.129,0.696,0.11,1.038,0.103c0.204-0.008,0.324,0.111,0.517,0.053c0.099-0.033,0.071-0.209,0.009-0.283
				c-0.124-0.157-0.218-0.119-0.423-0.236c-0.08-0.049-0.181-0.209-0.261-0.256c-0.236-0.154-0.58-0.177-0.723-0.418
				c-0.02-0.037-0.047-0.107-0.051-0.15l-0.058-0.11c-0.287-0.582-0.378-0.927-0.102-1.036c0.171-0.065,0.546-0.028,0.731-0.104
				c0.042-0.022,0.121-0.139,0.153-0.156c0.412-0.195,1.187-0.424,1.611-0.207c0.128,0.061,0,0.391,0.047,0.518
				c0.027,0.057,0.122,0.153,0.23,0.186c0.891,0.24,1.781,0.199,2.434,0.509c0.39,0.183,0.688,0.472,1.039,0.774
				c0.301,0.27-0.056,0.572,0.254,0.663c-0.212,0.028-0.392,0.052-0.429-0.06c-0.01-0.027-0.074-0.124-0.104-0.152
				c-0.233-0.221-0.505-0.563-0.828-0.674c-0.167-0.061-0.241-0.008-0.418-0.055l-0.209-0.07c-0.225-0.063-0.241-0.041-0.462-0.086
				c-0.098-0.02-0.321-0.141-0.418-0.151c-0.441-0.065-0.688,0.111-1.091,0c-0.186-0.054-0.425-0.349-0.575-0.429
				c-0.187-0.105-0.358-0.143-0.567-0.209c-0.084-0.023-0.127-0.023-0.19,0.009c-0.115,0.067-0.077,0.171-0.017,0.255
				c0.034,0.046,0.063,0.124,0.104,0.148c0.147,0.106,0.438,0.106,0.519,0.26c0.229,0.453-0.107,0.611-0.156,0.746
				c-0.024,0.081-0.087,0.146,0,0.256c0.049,0.059,0.152,0.131,0.21,0.152c0.21,0.092,0.376,0.057,0.572,0.158
				c0.14,0.074,0.286,0.326,0.466,0.365c0.416,0.09,0.515-0.217,0.725-0.264c0.3-0.065,0.486,0.093,0.831,0
				c0.114-0.029,0.177-0.166,0.258-0.203c0.199-0.105,0.396-0.121,0.52-0.057c0,0,0.134,0.064-0.053,0.158
				c-0.108,0.059-0.198,0.059-0.31,0.115c-0.075,0.041-0.142,0.146-0.154,0.164c-0.035,0.072-0.06,0.18-0.058,0.188
				c0.033,0.059,0.078,0.091,0.106,0.105c0.361,0.125,0.73-0.109,1.04-0.156c0.229-0.037,0.872,0,1.057,0.142
				c0,0,0.171,0.035,0.06,0.347c-0.068,0.187-0.364,0.322-0.476,0.481c-0.065,0.089-0.138,0.261-0.205,0.348
				c-0.109,0.142-0.128,0.138-0.239,0.268l-0.076,0.11c-0.045,0.133-0.573,0.582-0.673,0.732c-0.059,0.088-0.087,0.183-0.15,0.279
				c-0.095,0.135-0.164,0.157-0.212,0.24c-0.152,0.219-0.451,0.663-0.696,0.775c-0.11,0.045-0.264-0.006-0.417-0.035
				c-0.104-0.029-0.217-0.221-0.308-0.262c-0.363-0.166-0.767-0.119-1.086-0.313c-0.16-0.095-0.308-0.375-0.421-0.518
				c-0.076-0.099-0.144-0.271-0.259-0.316c-0.186-0.063-0.637-0.004-0.724,0.157c-0.171,0.326,0.275,1.164,0.313,1.509
				c0.027,0.293-0.107,0.427,0,0.671c0.05,0.125,0.244,0.158,0.309,0.262c0.281,0.441,0.036,1.065,0.103,1.658
				c0.026,0.184,0.136,0.411,0.104,0.678c-0.044,0.414-0.577,0.771-0.361,1.399c0.008,0.024,0.108,0.101,0.116,0.104
				c0.083,0.041,0.213,0.023,0.3-0.002c0.172-0.06,0.34-0.405,0.522-0.518c0.018-0.021,0.077-0.051,0.109-0.051
				c0.019-0.036,0.068-0.038,0.097-0.051c0.076-0.059,0.106-0.061,0.152-0.157c0.074-0.169,0.049-0.334,0.104-0.574
				c0.054-0.196,0.237-0.55,0.261-0.778c0.063-0.635-0.397-1.877-0.066-2.082c0.126-0.078,0.251-0.229,0.469-0.262
				c0.097-0.021,0.41,0.074,0.545,0.07c-0.001,0.004-0.003,0.005-0.003,0.005c-0.169,0.397,0.453,1.437,0.404,2.009
				c-0.121,1.395-1.033,2.164-1.819,2.908c-0.09,0.089-0.014,0.189,0.054,0.262c0.156,0.146,0.534,0.082,0.73,0.051
				c0.285-0.061,0.413-0.188,0.622-0.26c0.077-0.031,0.171,0.018,0.257,0c0.215-0.059,0.397-0.351,0.52-0.525
				c0,0,0.254-0.272,0.308,0.089l0.005,0.021c0,0.336-0.059,0.707,0,1.034c0.062,0.392,0.772,1.56,1.141,1.612
				c0.864,0.127-0.02-0.963-0.056-1.04c-0.141-0.327-0.278-0.915-0.258-1.347c0.004-0.158,0.136-0.479,0.154-0.629
				c0.008-0.072-0.03-0.244,0-0.306c0.068-0.138,0.525-0.185,0.625-0.366c0.026-0.051-0.013-0.146,0-0.205
				c0.021-0.125,0.112-0.354,0.208-0.463c0.062-0.078,0.151-0.123,0.259,0c0.089,0.1,0.112,0.33,0.261,0.5l0.127,0.139
				c0.153,0.1,0.401-0.033,0.336-0.018c0.161-0.044,0.142-0.209,0.209-0.264c0.011-0.012,0.101-0.051,0.101-0.051
				c0.375-0.385-0.457-0.733-0.466-1.092c-0.008-0.396,0.088-0.857-0.049-1.297c-0.035-0.109-0.238-0.264-0.262-0.361
				c-0.056-0.25,0.074-0.516,0.104-0.674c0.058-0.332-0.056-0.841,0.054-0.987c0.061-0.08,0.162-0.139,0.362-0.104
				c0.131,0.024,0.219,0.239,0.311,0.312c0.34,0.273,0.734,0.426,1.299,0.361c0.07-0.002,0.128-0.107,0.14-0.138
				c0.036-0.104,0.029-0.236-0.037-0.327c-0.204-0.273-0.994-0.482-1.037-0.619c-0.031-0.102-0.156-0.237-0.019-0.306
				c-0.076,0.044,0.487-0.017,0.69-0.06c0.264-0.058,0.284-0.32,0.466-0.412c0.258-0.137,0.638-0.018,0.782-0.259
				c0.086-0.156,0.019-0.38,0.102-0.522c0.102-0.184,0.41-0.221,0.569-0.366C35.511,24.545,35.489,24.385,35.478,24.334
				 M14.622,36.469c-0.102-0.115-0.016-0.335,0.172-0.428c0.347-0.165,0.49,0.025,0.565,0.115c0.336,0.521,0.771,1.199,1.095,1.468
				C16.155,37.652,15.04,37.313,14.622,36.469 M17.477,41.715c-0.182,0-1.336-0.973-1.163-1.576
				c0.342,0.254,1.111,0.789,1.208,0.779C17.625,40.977,17.707,41.646,17.477,41.715 M18.819,41.719
				c-0.15-0.133-1.27-1.316-0.99-1.863c0.308,0.309,1.163,1.095,1.468,1.17C19.382,41.25,19.37,41.869,18.819,41.719 M18.939,37.201
				c0.196,0.294,0.465,0.465,0.451,1.098c-0.019,0.156,0.031,0.186,0.161,0.176c0.118-0.033,0.054-0.764,0.407-0.718
				c0.301,0.046,0.097,0.462,0.246,0.933c0.055,0.168,0.395,0.769,0.303,1.799c-0.008,0.268-0.515,0.613-0.803,0.41
				c-0.237-0.144-0.237-0.318-0.374-1.41c-0.058-0.643-0.841-0.863-1.174-1.155c-0.333-0.245-0.143-0.368-0.204-0.813
				c-0.192-0.646-0.944-0.947-0.692-1.377c0.078-0.106,0.154-0.209,0.393-0.117C17.666,36.344,18.43,36.59,18.939,37.201
				 M13.593,35.163c-0.02,0.011-0.023,0.013,0.007-0.002C13.6,35.161,13.596,35.161,13.593,35.163
				c0.077-0.034,0.412-0.192,0.5-0.224c0.354-0.125,0.543,0.063,0.869-0.117c0.077-0.049,0.163-0.174,0.234-0.229
				c0.061-0.059,0.174-0.052,0.247-0.104c0.181-0.122,0.517-0.51,0.75-0.549c0.133-0.025,0.133,0.011,0.201,0.017
				c0,0.013,0.1-0.021,0.074,0.179c-0.062,0.385,0.841-0.005,1.434,0.137c0.403,0.096,0.796,0.232,0.692,0.492
				c0.014-0.027-0.118,0.08-0.149,0.1c-0.277,0.201-0.494-0.02-0.635-0.039c-0.242-0.027-0.415,0.046-0.663,0.015
				c0-0.002-0.298-0.101-0.298-0.101c-0.188-0.01-0.459,0.09-0.604,0.101c-0.272,0.021-0.404-0.075-0.649-0.049
				c-0.12,0.013-0.312,0.169-0.399,0.201c-0.08,0.028-0.173,0.057-0.251,0.082c-0.055,0.013-0.189,0.087-0.252,0.114
				c-0.247,0.123-0.394,0.123-0.7,0.203l-0.177,0.049C13.437,35.488,13.475,35.229,13.593,35.163 M12.669,36.646
				c0.408-0.099,0.529,0.008,0.724,0.474c0.145,0.274,0.449,0.638,0.566,0.812c-0.471,0.055-1.22-0.588-1.429-0.938
				C12.396,36.818,12.6,36.682,12.669,36.646 M7.47,34.697c0.538-0.149,1.013-0.307,1.211-0.42c0.072-0.004,0.142-0.004,0.214-0.01
				c0.03,0.143,0.086,0.289,0.171,0.433c0.019,0.028,0.038,0.058,0.054,0.081C8.796,34.791,8.139,34.749,7.47,34.697 M8.59,35.637
				c0.276-0.164,0.54-0.345,0.791-0.527c0.114,0.135,0.239,0.26,0.378,0.377C9.614,35.523,9.158,35.582,8.59,35.637L8.59,35.637z"/>
			<path fill="#910023" d="M13.593,35.163c0.003-0.002,0.006-0.002,0.006-0.002C13.57,35.176,13.574,35.174,13.593,35.163
				L13.593,35.163z"/>
		</g>
	</g>
	<g>
		<path fill="#8B0029" d="M52.135,24.018h1.408v3.631l2.904-3.631h1.507l-2.981,3.652l2.707,2.98
			c0.407,0.431,0.803,0.771,1.474,1.267h-1.188c-0.671,0-1.078-0.177-1.386-0.528l-3.037-3.377v3.905h-1.408V24.018z"/>
		<path fill="#8B0029" d="M62.024,26.196c1.728,0,3.125,1.275,3.125,2.926c0,1.651-1.397,2.927-3.125,2.927
			c-1.705,0-3.091-1.275-3.091-2.927C58.933,27.471,60.319,26.196,62.024,26.196z M62.024,30.947c0.957,0,1.75-0.725,1.75-1.76
			c0-1.022-0.792-1.902-1.75-1.902c-0.935,0-1.738,0.748-1.738,1.781C60.286,30.079,61.089,30.947,62.024,30.947z"/>
		<path fill="#8B0029" d="M67.634,26.823c0.363-0.418,0.946-0.639,1.771-0.627v1.122c-1.375-0.11-1.76,0.517-1.76,1.595v3.004
			h-1.342v-5.589h1.331V26.823z"/>
		<path fill="#8B0029" d="M72.937,26.196c1.639,0,3.014,1.133,2.904,3.333h-4.346c0.22,1.057,1.045,1.451,1.936,1.451
			c0.803,0,1.672-0.318,2.233-0.78l-0.011,1.286c-0.66,0.363-1.452,0.552-2.223,0.552c-1.716,0-3.366-0.925-3.366-2.916
			C70.065,27.472,71.231,26.196,72.937,26.196z M71.462,28.572h2.927c-0.176-0.759-0.693-1.32-1.452-1.32
			C72.155,27.252,71.616,27.791,71.462,28.572z"/>
		<path fill="#8B0029" d="M77.677,26.416c0.495-0.132,1.133-0.22,1.694-0.22c1.232,0,2.432,0.429,2.432,1.814v2.301
			c0,0.637,0.165,1.176,0.363,1.64h-1.43c-0.044-0.077-0.088-0.165-0.121-0.255c-0.473,0.222-1.034,0.343-1.518,0.343
			c-1.122,0-2.255-0.66-2.255-1.806c0-1.76,2.035-2.067,3.62-2.067v-0.319c0-0.45-0.539-0.594-1.111-0.594
			c-0.627,0-1.408,0.176-1.661,0.264L77.677,26.416z M79.305,30.98c0.418,0,0.913-0.121,1.155-0.285v-1.573
			c-1.694-0.065-2.245,0.45-2.245,1.034C78.216,30.641,78.601,30.98,79.305,30.98z"/>
		<path fill="#8B0029" d="M91.482,24.018h1.265v4.875c0,2.101-1.012,3.156-3.146,3.156c-2.134,0-3.146-1.057-3.146-3.156v-4.875
			h1.408v5.104c0,1.222,0.572,1.825,1.804,1.825c1.243,0,1.815-0.604,1.815-1.825V24.018z"/>
		<path fill="#8B0029" d="M95.508,26.823c0.363-0.418,0.946-0.627,1.661-0.627c1.177,0,2.002,0.715,2.002,2.201v3.521h-1.342v-3.024
			c0-1.058-0.352-1.606-1.177-1.606c-0.671,0-1.133,0.528-1.133,1.606v3.024h-1.342v-5.589h1.331V26.823z"/>
		<path fill="#8B0029" d="M102.119,25.426h-1.453v-1.408h1.453V25.426z M102.064,31.917h-1.342v-5.589h1.342V31.917z"/>
		<path fill="#8B0029" d="M105.903,29.938l1.298-3.608h1.232l-2.135,5.589h-1.045l-2.134-5.589h1.452L105.903,29.938z"/>
		<path fill="#8B0029" d="M111.964,26.196c1.639,0,3.014,1.133,2.904,3.333h-4.346c0.22,1.057,1.045,1.451,1.936,1.451
			c0.803,0,1.672-0.318,2.233-0.78l-0.011,1.286c-0.66,0.363-1.452,0.552-2.223,0.552c-1.716,0-3.366-0.925-3.366-2.916
			C109.092,27.472,110.258,26.196,111.964,26.196z M110.489,28.572h2.927c-0.176-0.759-0.693-1.32-1.452-1.32
			C111.183,27.252,110.644,27.791,110.489,28.572z"/>
		<path fill="#8B0029" d="M117.365,26.823c0.363-0.418,0.946-0.639,1.771-0.627v1.122c-1.375-0.11-1.76,0.517-1.76,1.595v3.004
			h-1.342v-5.589h1.331V26.823z"/>
		<path fill="#8B0029" d="M119.762,31.719l0.011-1.21c0.209,0.274,1.144,0.507,1.969,0.507c0.869,0,1.32-0.297,1.32-0.639
			c0-0.177-0.176-0.374-0.627-0.539l-1.441-0.539c-0.759-0.285-1.188-0.945-1.188-1.552c0-0.781,0.726-1.551,2.498-1.551
			c0.495,0,1.067,0.065,1.551,0.197v1.266c-0.154-0.242-0.935-0.429-1.628-0.429c-0.66,0-1.089,0.209-1.089,0.483
			c0,0.154,0.165,0.318,0.583,0.475l1.441,0.539c0.781,0.297,1.221,0.979,1.221,1.604c0,0.849-0.803,1.717-2.64,1.717
			C121.16,32.049,120.5,31.961,119.762,31.719z"/>
		<path fill="#8B0029" d="M127.077,25.426h-1.452v-1.408h1.452V25.426z M127.022,31.917h-1.342v-5.589h1.342V31.917z"/>
		<path fill="#8B0029" d="M129.189,24.458h1.342v1.87h1.475v1.067h-1.475v2.607c0,0.551,0.253,0.936,0.771,0.936h0.781v1.033
			c-0.308,0.045-0.583,0.066-0.836,0.066c-1.463,0-2.057-0.946-2.057-2.135v-2.508h-1.001v-1.067h1.001L129.189,24.458
			L129.189,24.458z"/>
		<path fill="#8B0029" d="M138.067,26.328l-1.837,4.818c-0.572,1.508-1.309,2.408-2.783,2.408c-0.077,0-0.165,0-0.253-0.011
			l-0.671-1.089h0.891c0.748,0,1.221-0.43,1.639-1.419l-2.442-4.709h1.551l1.507,3.06l1.133-3.06L138.067,26.328L138.067,26.328z"/>
		<path fill="#8B0029" d="M51.97,39.537c0-2.288,1.87-4.081,4.181-4.081c0.924,0,1.738,0.153,2.464,0.474v1.396
			c-0.649-0.473-1.452-0.715-2.233-0.715c-1.54,0-3.003,0.935-3.003,2.826c0,2.047,1.562,3.037,3.202,3.037
			c0.759,0,1.54-0.209,2.189-0.627v1.254c-0.737,0.373-1.617,0.518-2.618,0.518C53.84,43.619,51.97,41.837,51.97,39.537z"/>
		<path fill="#8B0029" d="M62.85,37.768c1.728,0,3.125,1.274,3.125,2.926c0,1.65-1.397,2.927-3.125,2.927
			c-1.705,0-3.091-1.276-3.091-2.927C59.759,39.042,61.145,37.768,62.85,37.768z M62.85,42.52c0.957,0,1.75-0.727,1.75-1.76
			c0-1.023-0.792-1.904-1.75-1.904c-0.935,0-1.738,0.748-1.738,1.783C61.111,41.648,61.915,42.52,62.85,42.52z"/>
		<path fill="#8B0029" d="M68.701,35.588v7.898h-1.342v-7.898H68.701z"/>
		<path fill="#8B0029" d="M71.825,35.588v7.898h-1.342v-7.898H71.825z"/>
		<path fill="#8B0029" d="M76.083,37.768c1.639,0,3.014,1.133,2.904,3.332h-4.346c0.22,1.057,1.045,1.453,1.936,1.453
			c0.803,0,1.672-0.32,2.233-0.781l-0.01,1.287c-0.66,0.362-1.452,0.551-2.223,0.551c-1.716,0-3.366-0.926-3.366-2.916
			C73.211,39.042,74.377,37.768,76.083,37.768z M74.608,40.143h2.927c-0.176-0.758-0.693-1.32-1.452-1.32
			C75.301,38.822,74.762,39.361,74.608,40.143z"/>
		<path fill="#8B0029" d="M80.933,42.035c-0.055-0.133-0.077-0.266-0.077-0.387c0-0.317,0.198-0.57,0.594-0.703
			c-0.704-0.318-1.177-0.901-1.177-1.596c0-1.022,1.034-1.814,2.343-1.814h3.3l-0.429,0.957h-0.814
			c0.176,0.253,0.275,0.55,0.275,0.857c0,1.002-0.99,1.771-2.233,1.815c-0.286,0.011-0.407,0.088-0.407,0.165
			c0,0.121,0.275,0.253,0.715,0.253c1.639,0,2.904,0.715,2.904,1.672c0,1.045-1.419,1.87-3.158,1.87
			c-1.628,0-2.893-0.736-2.893-1.705C79.877,42.794,80.328,42.332,80.933,42.035z M82.836,44.113c0.924,0,1.75-0.297,1.75-0.736
			s-0.693-0.803-1.639-0.803c-0.902,0-1.75,0.308-1.75,0.748C81.197,43.751,81.923,44.113,82.836,44.113z M82.605,40.197
			c0.572,0,1.045-0.33,1.045-0.813s-0.473-0.868-1.045-0.868c-0.572,0-1.056,0.33-1.056,0.813
			C81.549,39.803,82.033,40.197,82.605,40.197z"/>
		<path fill="#8B0029" d="M89.679,37.768c1.639,0,3.014,1.133,2.904,3.332h-4.346c0.22,1.057,1.045,1.453,1.936,1.453
			c0.803,0,1.672-0.32,2.233-0.781l-0.011,1.287c-0.66,0.362-1.452,0.551-2.223,0.551c-1.716,0-3.366-0.926-3.366-2.916
			C86.807,39.042,87.973,37.768,89.679,37.768z M88.204,40.143h2.927c-0.176-0.758-0.693-1.32-1.452-1.32
			C88.897,38.822,88.358,39.361,88.204,40.143z"/>
		<path fill="#8B0029" d="M99.754,37.768c1.728,0,3.125,1.274,3.125,2.926c0,1.65-1.397,2.927-3.125,2.927
			c-1.705,0-3.091-1.276-3.091-2.927C96.663,39.042,98.049,37.768,99.754,37.768z M99.754,42.52c0.957,0,1.75-0.727,1.75-1.76
			c0-1.023-0.792-1.904-1.75-1.904c-0.935,0-1.738,0.748-1.738,1.783C98.016,41.648,98.819,42.52,99.754,42.52z"/>
		<path fill="#8B0029" d="M104.759,37.7c0-1.188,0.539-2.134,2.255-2.134c0.253,0,0.528,0.021,0.836,0.064v1.034h-0.957
			c-0.517,0-0.77,0.297-0.77,0.849v0.385h1.529v1.066h-1.529v4.521h-1.364v-4.521h-1.111v-1.066h1.111V37.7z"/>
		<path fill="#8B0029" d="M112.085,35.588h1.408v7.898h-1.408V35.588z"/>
		<path fill="#8B0029" d="M116.364,38.395c0.363-0.418,0.946-0.627,1.661-0.627c1.177,0,2.002,0.715,2.002,2.199v3.521h-1.342
			v-3.025c0-1.057-0.352-1.605-1.177-1.605c-0.671,0-1.133,0.527-1.133,1.605v3.025h-1.342v-5.59h1.331V38.395L116.364,38.395z"/>
		<path fill="#8B0029" d="M122.073,37.7c0-1.188,0.539-2.134,2.255-2.134c0.253,0,0.528,0.021,0.836,0.064v1.034h-0.957
			c-0.517,0-0.77,0.297-0.77,0.849v0.385h1.529v1.066h-1.529v4.521h-1.364v-4.521h-1.111v-1.066h1.111V37.7z"/>
		<path fill="#8B0029" d="M129.025,37.768c1.728,0,3.125,1.274,3.125,2.926c0,1.65-1.397,2.927-3.125,2.927
			c-1.705,0-3.091-1.276-3.091-2.927C125.934,39.042,127.32,37.768,129.025,37.768z M129.025,42.52c0.957,0,1.75-0.727,1.75-1.76
			c0-1.023-0.792-1.904-1.75-1.904c-0.935,0-1.738,0.748-1.738,1.783C127.287,41.648,128.09,42.52,129.025,42.52z"/>
		<path fill="#8B0029" d="M134.635,38.395c0.363-0.418,0.946-0.64,1.771-0.627v1.121c-1.375-0.109-1.76,0.518-1.76,1.596v3.004
			h-1.342v-5.59h1.331V38.395z"/>
		<path fill="#8B0029" d="M138.54,38.395c0.363-0.418,0.968-0.627,1.683-0.627c0.749,0,1.342,0.297,1.684,0.891
			c0.494-0.616,1.089-0.891,1.936-0.891c1.178,0,2.002,0.715,2.002,2.199v3.521h-1.32v-3.025c0-1.057-0.373-1.605-1.198-1.605
			c-0.66,0-1.101,0.66-1.122,1.693v2.938h-1.32v-3.024c0-1.058-0.352-1.606-1.177-1.606c-0.671,0-1.155,0.529-1.155,1.606v3.024
			h-1.32V37.9h1.309L138.54,38.395L138.54,38.395z"/>
		<path fill="#8B0029" d="M147.834,37.986c0.495-0.133,1.133-0.221,1.694-0.221c1.232,0,2.431,0.43,2.431,1.814v2.3
			c0,0.638,0.165,1.177,0.362,1.64h-1.43c-0.043-0.076-0.088-0.164-0.121-0.254c-0.473,0.221-1.033,0.342-1.518,0.342
			c-1.122,0-2.255-0.66-2.255-1.805c0-1.76,2.035-2.068,3.62-2.068v-0.318c0-0.45-0.539-0.594-1.111-0.594
			c-0.627,0-1.408,0.176-1.66,0.264L147.834,37.986z M149.463,42.553c0.418,0,0.913-0.121,1.155-0.287v-1.572
			c-1.694-0.065-2.245,0.451-2.245,1.033C148.374,42.211,148.759,42.553,149.463,42.553z"/>
		<path fill="#8B0029" d="M154.039,36.027h1.342v1.871h1.476v1.066h-1.476v2.607c0,0.55,0.253,0.935,0.771,0.935h0.781v1.034
			c-0.308,0.044-0.582,0.066-0.836,0.066c-1.463,0-2.057-0.946-2.057-2.135v-2.509h-1.001v-1.067h1.001L154.039,36.027
			L154.039,36.027z"/>
		<path fill="#8B0029" d="M159.494,36.996h-1.452v-1.408h1.452V36.996z M159.438,43.486h-1.342v-5.588h1.342V43.486z"/>
		<path fill="#8B0029" d="M160.825,40.691c0-1.639,1.342-2.926,2.992-2.926c0.67,0,1.254,0.109,1.771,0.342v1.254
			c-0.495-0.33-1.077-0.506-1.628-0.506c-0.945,0-1.781,0.561-1.781,1.793c0,1.275,0.979,1.881,2.002,1.881
			c0.527,0,1.077-0.153,1.518-0.45v1.166c-0.518,0.274-1.155,0.374-1.881,0.374C162.167,43.619,160.825,42.332,160.825,40.691z"/>
		<path fill="#8B0029" d="M166.655,43.289l0.011-1.21c0.209,0.274,1.144,0.506,1.97,0.506c0.868,0,1.319-0.297,1.319-0.638
			c0-0.178-0.177-0.375-0.627-0.539l-1.44-0.539c-0.76-0.286-1.188-0.946-1.188-1.553c0-0.78,0.726-1.551,2.497-1.551
			c0.496,0,1.068,0.065,1.552,0.197v1.266c-0.153-0.242-0.935-0.429-1.628-0.429c-0.66,0-1.09,0.209-1.09,0.483
			c0,0.154,0.166,0.318,0.584,0.474l1.441,0.539c0.78,0.298,1.221,0.979,1.221,1.604c0,0.849-0.803,1.718-2.641,1.718
			C168.052,43.619,167.392,43.531,166.655,43.289z"/>
	</g>
	<g>
		<path fill="#910023" d="M51.775,15.683h3.914v-4.787h1.87v4.787h2.859c0.575-0.987,0.607-5.215,0.607-5.247V7.211h-7.94V5.435
			h9.889v3.24c0,4.441-0.431,6.481-0.607,7.008h1.885v1.76H51.775V15.683z"/>
		<path fill="#910023" d="M75.976,18.166v-1.908c-0.383,0.148-1.262,0.379-2.62,0.379l-5,0.033c-0.048,0-1.342-0.182-1.39-1.579
			V9.712h4.154v-2.73h-4.282V5.271h6.151v6.25H69.01v3.389h4.553c0.048,0,1.662,0,2.412-0.608V12.97h-1.549v-1.728h1.549V9.695
			h-1.549v-1.76h1.549v-2.83h1.949v13.061H75.976z"/>
		<path fill="#910023" d="M87.57,15.913c-0.463,0.147-1.15,0.313-2.236,0.361c-0.687,0.05-1.422,0.05-2.013,0.05
			c-0.352,0-0.687,0-1.006-0.017c-0.048,0-1.326-0.164-1.374-1.629v-9.49h4.969v1.727h-2.972v7.633h2.636
			c0.224,0,0.447-0.017,0.687-0.033c0.399-0.05,0.879-0.115,1.31-0.313V5.105h1.837V9.76h1.262V5.105h1.789v13.061H90.67v-6.612
			h-1.262v6.612H87.57V15.913z"/>
		<path fill="#910023" d="M100.316,5.369h3.179v1.678h-1.182c0.367,0.543,0.559,1.135,0.559,1.76c0,1.892-1.582,3.438-3.499,3.438
			s-3.547-1.596-3.547-3.438c0-0.642,0.208-1.217,0.575-1.76h-1.31V5.369h3.307V4.103h1.917L100.316,5.369L100.316,5.369z
			 M106.451,13.248v5.033h-1.997v-3.354h-8.196v-1.678H106.451z M99.374,7.162c-0.895,0-1.662,0.757-1.662,1.727
			c0,0.922,0.767,1.678,1.662,1.678s1.677-0.756,1.677-1.678C101.051,7.919,100.268,7.162,99.374,7.162z M106.451,5.105v2.896h1.31
			v1.76h-1.31v2.73h-1.949V5.105H106.451z"/>
		<path fill="#910023" d="M121.752,17.442h-12.478v-1.76h2.413v-4.573h1.917v4.573h1.422v-4.573h1.917v4.573h0.975
			c0.511-0.855,0.607-4.326,0.607-5.198v-3.24h-7.94v-1.81h9.905v3.29c0,4.605-0.447,6.497-0.623,6.958h1.885V17.442z"/>
		<path fill="#910023" d="M128.537,10.073c2.524-0.575,3.051-1.925,3.1-2.796V6.915h-2.572v-1.76h7.173v1.76h-2.556v0.362
			c0,0.904,0.655,2.27,3.083,2.796l-0.559,1.464c-1.885-0.263-3.163-1.447-3.546-2.056c-0.384,0.625-1.758,1.842-3.547,2.056
			L128.537,10.073z M135.758,11.948c2.157,0,3.914,1.579,3.914,3.537c0,1.957-1.757,3.536-3.914,3.536
			c-2.157,0-3.914-1.579-3.914-3.536C131.844,13.527,133.602,11.948,135.758,11.948z M135.71,17.262c1.022,0,1.853-0.79,1.853-1.776
			c0-0.987-0.831-1.776-1.853-1.776s-1.854,0.789-1.854,1.776C133.857,16.472,134.688,17.262,135.71,17.262z M137.979,5.105h1.949
			v6.843h-1.949V9.301h-1.646V7.573h1.646V5.105z"/>
		<path fill="#910023" d="M154.974,17.442h-12.478v-1.76h5.224v-2.911h-2.939c-0.398,0-0.67-0.083-0.846-0.346
			c-0.192-0.181-0.289-0.543-0.289-1.086V5.353h1.998v2.122h6.183V5.353h1.965v7.419h-4.106v2.911h5.289V17.442L154.974,17.442z
			 M145.644,11.094h6.151V9.152h-6.151V11.094z"/>
		<path fill="#910023" d="M163.917,15.913c-0.463,0.147-1.15,0.313-2.236,0.361c-0.687,0.05-1.422,0.05-2.013,0.05
			c-0.353,0-0.687,0-1.006-0.017c-0.048,0-1.326-0.164-1.374-1.629v-9.49h4.969v1.727h-2.972v7.633h2.636
			c0.225,0,0.447-0.017,0.688-0.033c0.398-0.05,0.879-0.115,1.31-0.313V5.105h1.837V9.76h1.262V5.105h1.789v13.061h-1.789v-6.612
			h-1.262v6.612h-1.837L163.917,15.913L163.917,15.913z"/>
		<path fill="#910023" d="M176.662,5.369h3.179v1.678h-1.182c0.367,0.543,0.559,1.135,0.559,1.76c0,1.892-1.582,3.438-3.498,3.438
			c-1.918,0-3.548-1.596-3.548-3.438c0-0.642,0.208-1.217,0.575-1.76h-1.311V5.369h3.308V4.103h1.917L176.662,5.369L176.662,5.369z
			 M182.797,13.248v5.033H180.8v-3.354h-8.195v-1.678H182.797z M175.72,7.162c-0.895,0-1.662,0.757-1.662,1.727
			c0,0.922,0.768,1.678,1.662,1.678s1.678-0.756,1.678-1.678C177.397,7.919,176.614,7.162,175.72,7.162z M182.797,5.105v2.896h1.31
			v1.76h-1.31v2.73h-1.948V5.105H182.797z"/>
		<path fill="#910023" d="M187.985,11.554c0-0.789,0.543-1.349,1.214-1.349c0.702,0,1.245,0.56,1.245,1.349
			c0,0.74-0.543,1.316-1.245,1.316C188.528,12.87,187.985,12.294,187.985,11.554z"/>
		<path fill="#910023" d="M195.204,10.073c2.523-0.575,3.051-1.925,3.1-2.796V6.915h-2.572v-1.76h7.174v1.76h-2.557v0.362
			c0,0.904,0.655,2.27,3.084,2.796l-0.56,1.464c-1.886-0.263-3.163-1.447-3.546-2.056c-0.385,0.625-1.758,1.842-3.547,2.056
			L195.204,10.073z M202.425,11.948c2.157,0,3.915,1.579,3.915,3.537c0,1.957-1.758,3.536-3.915,3.536
			c-2.156,0-3.914-1.579-3.914-3.536C198.511,13.527,200.269,11.948,202.425,11.948z M202.377,17.262
			c1.022,0,1.853-0.79,1.853-1.776c0-0.987-0.83-1.776-1.853-1.776s-1.854,0.789-1.854,1.776
			C200.524,16.472,201.354,17.262,202.377,17.262z M204.646,5.105h1.949v6.843h-1.949V9.301H203V7.573h1.646V5.105z"/>
		<path fill="#910023" d="M221.642,17.442h-12.479v-1.76h5.225v-2.911h-2.938c-0.399,0-0.671-0.083-0.847-0.346
			c-0.192-0.181-0.289-0.543-0.289-1.086V5.353h1.998v2.122h6.183V5.353h1.965v7.419h-4.104v2.911h5.287V17.442L221.642,17.442z
			 M212.312,11.094h6.149V9.152h-6.149V11.094z"/>
		<path fill="#910023" d="M223.538,10.583h5.225v-0.428h-2.492c-1.342,0-1.549-1.167-1.549-1.628V4.843h10.096v1.513h-8.1v0.511
			h8.067v1.382h-8.067v0.443h8.1v1.464h-4.057v0.428h5.256v1.563h-12.479V10.583z M229.815,12.162c2.109,0,3.804,1.547,3.804,3.471
			c0,1.925-1.693,3.471-3.804,3.471c-2.107,0-3.801-1.546-3.801-3.471C226.015,13.709,227.708,12.162,229.815,12.162z
			 M229.815,17.394c1.008,0,1.807-0.773,1.807-1.761c0-0.986-0.799-1.76-1.807-1.76c-1.006,0-1.805,0.773-1.805,1.76
			C228.013,16.62,228.812,17.394,229.815,17.394z"/>
		<path fill="#910023" d="M240.709,11.258c-0.623,0.395-1.278,0.707-1.901,0.839l-0.687-1.678c0.847-0.247,1.39-0.625,1.854-1.02
			c0.974-0.839,1.276-2.172,1.276-3.273V5.188h1.997v0.938c0,1.053,0.305,2.615,1.471,3.454c0.432,0.313,0.959,0.642,1.661,0.839
			l-0.688,1.694c-0.574-0.148-1.197-0.411-1.853-0.822c-0.575-0.329-1.422-1.103-1.598-1.793
			C241.938,10.271,241.332,10.863,240.709,11.258z M249.783,18.314h-8.962c-0.399,0-0.672-0.099-0.815-0.296
			c-0.19-0.23-0.286-0.576-0.286-1.053v-3.307h1.948v2.978h8.115V18.314z M249.783,5.105v9.015h-1.966V5.105H249.783z"/>
		<path fill="#910023" d="M259.334,15.913c-0.464,0.147-1.149,0.313-2.237,0.361c-0.687,0.05-1.422,0.05-2.013,0.05
			c-0.353,0-0.687,0-1.007-0.017c-0.049,0-1.325-0.164-1.373-1.629v-9.49h4.968v1.727H254.7v7.633h2.637
			c0.225,0,0.447-0.017,0.688-0.033c0.398-0.05,0.879-0.115,1.311-0.313V5.105h1.837V9.76h1.263V5.105h1.789v13.061h-1.789v-6.612
			h-1.263v6.612h-1.837L259.334,15.913L259.334,15.913z"/>
		<path fill="#910023" d="M272.078,5.369h3.18v1.678h-1.183c0.367,0.543,0.56,1.135,0.56,1.76c0,1.892-1.581,3.438-3.499,3.438
			c-1.916,0-3.547-1.596-3.547-3.438c0-0.642,0.208-1.217,0.575-1.76h-1.31V5.369h3.307V4.103h1.917V5.369z M278.213,13.248v5.033
			h-1.997v-3.354h-8.195v-1.678H278.213z M271.136,7.162c-0.895,0-1.662,0.757-1.662,1.727c0,0.922,0.769,1.678,1.662,1.678
			c0.895,0,1.678-0.756,1.678-1.678C272.813,7.919,272.03,7.162,271.136,7.162z M278.213,5.105v2.896h1.312v1.76h-1.312v2.73h-1.948
			V5.105H278.213z"/>
	</g>
</g>
<g id="Layer_6">
</g>
<g id="korea_University_Global_construction_engineering_department_3_">
</g>
<g id="korea_University_Global_construction_engineering_department_2_">
</g>
</svg>
