<?xml version="1.0" encoding="utf-8"?>
<!-- Generator: Adobe Illustrator 16.0.0, SVG Export Plug-In . SVG Version: 6.00 Build 0)  -->
<!DOCTYPE svg PUBLIC "-//W3C//DTD SVG 1.1//EN" "http://www.w3.org/Graphics/SVG/1.1/DTD/svg11.dtd">
<svg version="1.1" id="Layer_1" xmlns="http://www.w3.org/2000/svg" xmlns:xlink="http://www.w3.org/1999/xlink" x="0px" y="0px"
	 width="1531.007px" height="299.047px" viewBox="0 0 1531.007 299.047" enable-background="new 0 0 1531.007 299.047"
	 xml:space="preserve">
<g>
	<defs>
		<rect id="SVGID_1_" x="-14.243" y="-15.536" width="1558.055" height="321.083"/>
	</defs>
	<clipPath id="SVGID_2_">
		<use xlink:href="#SVGID_1_"  overflow="visible"/>
	</clipPath>
	<path clip-path="url(#SVGID_2_)" fill="#910023" d="M222.246,161.71V0h-3.869H0v161.792c-0.019,2.362-0.157,59.214,40.323,92.915
		l-0.09-0.073c1.272,1.129,31.549,27.676,69.17,43.883l0.741,0.315h2.027l0.769-0.369c36.217-16.795,69.238-43.457,69.576-43.719
		C223.045,220.993,222.296,164.119,222.246,161.71"/>
	<rect x="8.171" y="8.242" clip-path="url(#SVGID_2_)" fill="#E1D7C7" width="206.413" height="1.575"/>
	<rect x="8.171" y="52.43" clip-path="url(#SVGID_2_)" fill="#E1D7C7" width="206.413" height="1.581"/>
	<rect x="7.702" y="78.814" clip-path="url(#SVGID_2_)" fill="#E1D7C7" width="206.421" height="1.575"/>
	<path clip-path="url(#SVGID_2_)" fill="#E1D7C7" d="M46.642,45.676c-1.103-0.84-2.15-1.629-4.411-4c0,0-9.54-10.555-10.991-12.163
		c0.369-0.455,11.095-13.565,11.095-13.573l0.634-0.664H42.16h-4.601l-12.05,14.906V15.275h-0.351h-5.103v31.483h5.454V30.632
		l12.584,14.009c1.037,1.393,2.918,2.117,5.544,2.117h4.498l-1.076-0.768C47.072,45.997,46.642,45.676,46.642,45.676"/>
	<path clip-path="url(#SVGID_2_)" fill="#E1D7C7" d="M72.455,14.346c-4.797-0.029-8.926,1.587-12.271,4.795
		c-3.339,3.208-5.041,7.151-5.041,11.71c0,4.802,1.677,8.841,4.993,11.989c3.222,3.092,7.208,4.653,11.867,4.653
		c4.655,0,8.697-1.617,12.008-4.822c3.298-3.2,4.993-7.256,4.993-12.055c0-4.394-1.561-8.205-4.631-11.323
		C81.192,16.04,77.171,14.376,72.455,14.346 M72.226,43.385c-3.276,0-6.054-1.372-8.203-4.084C62,36.787,60.97,33.802,60.97,30.43
		c0-3.477,1.03-6.386,3.056-8.622c2.029-2.221,4.751-3.349,8.108-3.349c3.291,0,6.023,1.358,8.132,4.038
		c1.929,2.478,2.911,5.531,2.911,9.058c0,3.426-0.992,6.279-2.953,8.481C78.201,42.252,75.5,43.385,72.226,43.385"/>
	<path clip-path="url(#SVGID_2_)" fill="#E1D7C7" d="M148.607,31.705c0.65,0,10.121,0.006,10.121,0.006v-4.125
		c0,0-9.471,0.004-10.121,0.004v-8.159c2.209-0.052,12.384-0.004,12.499-0.004l0.346,0.004v-4.233l-18.343-0.013v0.351l0.023,31.223
		h20.226l0.05-4.438c0,0-14.144,0.014-14.801,0.014V31.705z"/>
	<path clip-path="url(#SVGID_2_)" fill="#E1D7C7" d="M192.629,15.185h-5.056l-12.872,31.574h4.872c0,0,4.173-11.145,4.33-11.584
		h11.374c0.157,0.434,4.415,11.584,4.415,11.584h6.044L192.86,15.185H192.629z M193.517,30.998h-8.088
		c0.311-0.817,3.543-8.991,4.088-10.369C190.044,22.011,193.21,30.191,193.517,30.998"/>
	<path clip-path="url(#SVGID_2_)" fill="#E1D7C7" d="M124.121,39.626c0,0-5.233-6.54-6.555-8.194
		c1.084-0.396,2.978-1.241,4.426-2.757c1.583-1.646,2.382-3.529,2.382-5.585c0-2.313-0.875-4.214-2.612-5.655
		c-1.806-1.487-4.3-2.242-7.435-2.242h-10.13h-0.352v31.566h5.627v-0.486c-0.148-1.058-0.155-2.684-0.155-6.434V19.127
		c5.148-0.052,7.196,0.6,7.995,1.164c1.076,0.769,1.606,1.872,1.595,3.387c-0.019,3.485-2.575,5.566-7.806,6.356l-0.595,0.082
		l11.064,14.165c1.31,1.65,3.227,2.478,5.706,2.478h4.506l-0.929-0.638C128.608,44.585,126.146,42.218,124.121,39.626"/>
	<path clip-path="url(#SVGID_2_)" fill="#E1D7C7" d="M104.287,67.308h4.83v-1.967c0,0-4.517,0.004-4.83,0.004v-3.891
		c1.051-0.027,5.898,0,5.958,0h0.157v-2.015l-8.732-0.008V59.6l0.012,14.88h9.606l0.059-2.119c0,0-6.737,0.009-7.06,0.009V67.308z"
		/>
	<path clip-path="url(#SVGID_2_)" fill="#E1D7C7" d="M32.422,59.446H30.61l0.014,9.271c0,2.767-0.638,4.273-4.042,4.273h-0.396
		c-2.261,0-3.405-1.446-3.405-4.273c0-0.007,0.014-9.271,0.014-9.271h-2.613l-0.009,9.279c0,1.126,0.044,1.895,0.138,2.363
		c0.157,0.842,0.505,1.576,1.051,2.167c0.981,1.068,2.388,1.62,4.178,1.62h1.689c1.785,0,3.201-0.552,4.177-1.62
		c0.538-0.591,0.885-1.325,1.047-2.171c0.096-0.464,0.134-1.233,0.134-2.359l-0.004-9.279H32.422z"/>
	<path clip-path="url(#SVGID_2_)" fill="#E1D7C7" d="M55.091,59.446l-0.004,0.165c0,0-0.017,10.006-0.017,10.886
		c-0.561-0.707-8.707-11.051-8.707-11.051h-2.261V74.51h1.967c0,0,0.008-10.378,0.008-11.264c0.555,0.717,8.828,11.26,8.828,11.26
		l2.171,0.004V59.446h-0.183H55.091z"/>
	<polygon clip-path="url(#SVGID_2_)" fill="#E1D7C7" points="68.178,59.446 68.178,74.51 70.766,74.51 70.776,59.446 70.61,59.446 	
		"/>
	<polygon clip-path="url(#SVGID_2_)" fill="#E1D7C7" points="162.39,74.51 164.984,74.51 164.984,71.206 164.984,62.773 
		164.984,59.611 164.984,59.446 164.818,59.446 162.371,59.446 162.371,62.773 162.371,71.206 	"/>
	<path clip-path="url(#SVGID_2_)" fill="#E1D7C7" d="M90.844,59.446c0,0-4.021,11.004-4.311,11.807
		c-0.286-0.806-4.234-11.807-4.234-11.807h-2.961l5.614,15.077l2.357-0.004l5.819-15.073h-0.234H90.844z"/>
	<path clip-path="url(#SVGID_2_)" fill="#E1D7C7" d="M149.645,66.877c-0.011-0.01-2.025-0.999-2.025-0.999l-1.729-0.847
		c-1.268-0.665-1.906-1.389-1.906-2.154c0-0.641,0.292-1.11,0.888-1.437c0.449-0.265,1.106-0.392,1.906-0.365
		c1.318,0.039,2.666,0.43,3.369,0.978l0.262,0.207v-2.674l-0.108-0.034c-1.057-0.327-2.205-0.5-3.393-0.5
		c-1.556,0-2.874,0.307-3.911,0.917c-1.249,0.71-1.879,1.771-1.879,3.139c0,1.393,0.699,2.557,2.082,3.446
		c0.008,0.01,0.742,0.369,0.742,0.369l3.005,1.474c1.264,0.668,1.906,1.441,1.906,2.313c0,0.657-0.335,1.185-1.038,1.598
		c-0.618,0.382-1.295,0.565-1.994,0.561c-1.622-0.013-3.147-0.417-4.523-1.212l-0.292-0.177l0.389,2.634l0.1,0.031
		c1.206,0.451,2.589,0.686,4.065,0.686c1.832,0,3.415-0.477,4.553-1.38c1.076-0.864,1.61-2.021,1.61-3.417
		C151.724,68.811,151.024,67.757,149.645,66.877"/>
	<path clip-path="url(#SVGID_2_)" fill="#E1D7C7" d="M174.854,59.391v0.161l-0.008,1.81c0,0,3.889,0,4.204,0.014v13.1h2.59
		c0,0,0.007-12.783,0.007-13.1h4.296v-1.985H174.854z"/>
	<path clip-path="url(#SVGID_2_)" fill="#E1D7C7" d="M202.919,59.408c0,0-3.843,5.933-4.104,6.34
		c-0.265-0.407-4.042-6.357-4.042-6.357h-0.084h-2.913c0,0,5.364,8.437,5.426,8.52c0,0.09-0.02,6.565-0.02,6.565h2.605
		c0,0,0.012-6.465,0.012-6.561c0.057-0.087,5.644-8.507,5.644-8.507H202.919z"/>
	<path clip-path="url(#SVGID_2_)" fill="#E1D7C7" d="M130.86,71.081c0,0-2.49-3.118-3.128-3.91c0.53-0.19,1.43-0.589,2.114-1.306
		c0.753-0.79,1.133-1.689,1.133-2.666c0-1.103-0.411-2.006-1.249-2.7c-0.861-0.709-2.052-1.06-3.535-1.06h-4.833h-0.158v15.04h2.674
		v-0.238c-0.069-0.503-0.069-1.233-0.069-3.06v-9.875c2.444-0.023,3.424,0.286,3.804,0.561c0.519,0.363,0.772,0.89,0.765,1.61
		c-0.008,1.664-1.226,2.657-3.72,3.032l-0.28,0.038l5.268,6.747c0.622,0.782,1.529,1.185,2.705,1.185h2.167l-0.457-0.313
		C132.992,73.442,131.824,72.309,130.86,71.081"/>
	<path clip-path="url(#SVGID_2_)" fill="#E1D7C7" d="M214.507,161.791v0.351c0,4.771-0.853,56.615-36.902,86.625
		c-0.292,0.23-31.737,25.612-66.514,42.034c-35.84-15.772-65.445-41.696-65.744-41.958l-0.087-0.076
		C8.158,217.88,7.729,163.862,7.729,161.878V88.783h206.779V161.791z"/>
	<path clip-path="url(#SVGID_2_)" fill="#910023" d="M93.724,264.915h2.84c0.393,0,0.247-0.356,0.247-0.356
		c-1.156-5.104-0.553-9.107-0.33-10.294c0,0,0.111-0.35-0.296-0.35H93.38c-0.382,0-0.238,0.291-0.238,0.291
		c0.951,3.923,0.582,8.893,0.334,10.329C93.476,264.535,93.301,264.915,93.724,264.915"/>
	<path clip-path="url(#SVGID_2_)" fill="#910023" d="M104.244,253.596c-4.52,0.438-4.242,5.735-4.242,5.735
		c0.277,4.795,5.249,5.702,5.249,5.702c-1.358,3.677-4.989,4.772-4.989,4.772c-0.855,0.331-0.229,0.577-0.229,0.577
		c1.085,0.36,2.665-0.277,2.665-0.277c6.639-2.974,6.812-9.933,6.812-9.933C109.65,253.077,104.244,253.596,104.244,253.596
		 M105.86,263.351c-2.163,0.065-2.684-3.305-2.684-3.305c-0.555-3.695,0.882-3.907,0.882-3.907c1.52-0.477,2.184,2.671,2.184,2.671
		C106.98,262.437,105.86,263.351,105.86,263.351"/>
	<path clip-path="url(#SVGID_2_)" fill="#910023" d="M120.993,257.887c0,0-0.595-4.396-4.722-4.35c0,0-4.077-0.104-4.263,5.548
		c0,0-0.156,5.968,4.997,5.71C117.005,264.795,122.054,264.48,120.993,257.887 M117.074,262.906
		c-1.952,0.714-2.167-3.271-2.167-3.271c-0.207-3.808,1.345-4.184,1.345-4.184c1.568-0.393,2.005,2.409,2.005,2.409
		C118.965,262.191,117.074,262.906,117.074,262.906"/>
	<path clip-path="url(#SVGID_2_)" fill="#910023" d="M122.207,266.321c4.357,0.861,5.51-2.225,5.51-2.225
		c1.391-4.38-4.081-4.591-4.081-4.591l0.88-5.638c0,0,5.491,0.263,6.959-0.469c0,0,0.342-0.229,0.149,0.596
		c0,0-0.303,1.871-2.094,2.01l-2.697,0.227l-0.257,1.587c0,0,4.668-0.1,4.58,4.941c0,0-0.173,3.896-4.73,4.856
		c0,0-2.136,0.47-4.595-0.533c0,0-0.377-0.182-0.177-0.481C121.654,266.601,121.831,266.244,122.207,266.321"/>
	<path clip-path="url(#SVGID_2_)" fill="#910023" d="M106.137,160.742c0.348-0.419,0.791-0.123,1.164,0
		c0.352,0.101,0.361,0.784,0.565,1.137c0.108,0.246,0.79,0.938,0.855,1.149c0.551,2.536,0,5.86-1.141,7.785
		c-0.323,0.591-0.847,0.903-1.216,0.922c-0.479,0.042-0.634-0.661-0.803-0.922c-0.73-1.02-0.179-3.447,0-4.584
		c0.19-1.46-0.951-3.813-0.223-4.876C105.337,161.353,106.124,160.742,106.137,160.742"/>
	<path clip-path="url(#SVGID_2_)" fill="#910023" d="M71.652,163.417c0.617-0.186,1.502,0.123,1.877,0l0.828-0.338
		c0.957-0.615,1.908-0.438,2.88-0.339c0.486,0.055,1.923,0.677,2.401,0.695c0.769,0.088,4.394,0.48,8.254,1.033
		c-0.035-0.011,2.057-0.272,1.529-0.853c0.33,0.376-0.058-0.314-0.847-0.588l-0.269-0.288c0.03-0.03-0.669-0.584,0.576-0.999
		c-0.473,0.139,0.817-0.188,1.068-0.461c0.5-0.538-0.234-1.114-0.234-1.114c-1.823-0.614-3.873,0.557-6.613,0.269
		c-1.35-0.111-3.264-0.883-5.166-0.572c-2.071,0.369-5.116,1.537-6.566,2.666C71.37,162.528,70.68,163.735,71.652,163.417"/>
	<path clip-path="url(#SVGID_2_)" fill="#910023" d="M94.727,148.477c1.865-0.111,1.948,1.819,1.992,1.621
		c-0.213,1.38-3.6,1.503-4.403,2.579c-2.367,3.081-1.385,6.028-6.978,6.343c0,0-1.124-0.261-0.69-0.722
		c0.352-0.373,1.707-0.73,2.206-1.037c0.724-0.415,0.665-1.58,1.141-2.298c0.1-0.178,0.73-0.4,0.886-0.554
		c1.567-2.125,1.746-4.272,4.517-5.532C93.511,148.807,94.521,148.517,94.727,148.477"/>
	<path clip-path="url(#SVGID_2_)" fill="#910023" d="M112.64,140.18c0.638-0.359,1.268,0,1.687,0.379
		c0.242,0.172,2.293,5.079,2.386,5.567c0.261,1.783,0.461,5.896-0.023,7.216c-0.688,1.84-2.39,3.258-2.021,6.521
		c0.2,1.922,1.045,3.416,1.855,5.084c0.096,0.276,0.938,1.905,0.98,2.248c0.316,1.755-0.645,4.021-0.791,5.443
		c-0.431,3.539,0.987,6.755,0.418,10.132c-0.237,1.453-0.706,2.188-1.502,3.086l-0.638,0.541c-0.176,0.354-0.491,0.47-0.814,0.716
		l-0.388,0.399c-0.6,0.139-0.657,0.492-0.903,0.519c-1.516,0.339-1.825-0.55-1.729-0.343c-1.537-4.329,1.037-9.386-0.279-13.566
		c-0.303-0.96-1.437-1.917-1.588-2.943c-0.525-3.746,2.981-5.721,2.931-8.242c0-1.794-2.363-4.13-2.897-5.897
		c-0.669-2.075-1.11-6.05-0.2-8.637c0.214-0.635,1.026-1.695,1.251-2.532c0.43-1.616,1.095-2.947,1.325-4.025
		c0.081-0.325,0.287-0.799,0.46-1.113C112.221,140.627,112.533,140.242,112.64,140.18"/>
	<path clip-path="url(#SVGID_2_)" fill="#910023" d="M157.349,131.24c2.528-0.296,3.666,0.703,2.482,2.861l-0.495,0.468
		c-0.204,0.075-0.877,0.955-1.015,1.078c-1.226,0.903-2.378,1.458-3.308,2.602c-0.323,0.38-0.584,1.358-0.98,1.692
		c-0.634,0.455-3.055,1.523-3.669,1.633c-3.067,0.49-7.231-2.567-7.689-4.334c-0.396-1.516,0-2.988,0.657-3.335
		c1.034-0.525,3.758-0.252,4.688-0.348c2.363-0.177,3.85-0.046,5.656-0.672C154.775,132.529,156.027,131.392,157.349,131.24"/>
	<path clip-path="url(#SVGID_2_)" fill="#910023" d="M144.293,130.218c0,0,1.437,0.599,2.724,0.288
		c0.911-0.227,2.597-0.999,3.447-1.151c0.515-0.121,1.237,0.139,1.736,0c1.399-0.426,3.974-3.162,0.892-3.456
		c-1.122-0.104-4.457,1.155-5.499,1.445c-1.041,0.265-1.69,0.438-2.555,0.891c-0.23,0.135-1.425,1.115-1.283,0.946
		C143.755,129.181,142.967,129.841,144.293,130.218"/>
	<path clip-path="url(#SVGID_2_)" fill="#910023" d="M122.253,135.394c-0.899-0.125-0.899-1.637-3.166-1.149
		c-1.583,0.334-2.014,2.657-4.319,2.596l-1.145-0.56c-0.999-0.24-1.719,0.108-2.597-0.322c-4.056-1.896,3.143-11.627,5.471-11.496
		c0.123,0,1.322,0.438,1.468,0.568c0.722,0.628,0.722,3.343,1.403,4.325c0.518,0.689,1.332,0.634,2.032,1.151
		c0.734,0.555,2.121,2.47,2.29,3.469C123.69,133.976,124.067,135.638,122.253,135.394"/>
	<path clip-path="url(#SVGID_2_)" fill="#910023" d="M159.708,214.012C159.754,213.954,159.754,213.954,159.708,214.012"/>
	<path clip-path="url(#SVGID_2_)" fill="#910023" d="M192.011,128.453C192.011,128.409,192.011,128.401,192.011,128.453"/>
	<path clip-path="url(#SVGID_2_)" fill="#910023" d="M159.708,214.012l-0.011,0.011
		C159.708,214.023,159.708,214.023,159.708,214.012"/>
	<path clip-path="url(#SVGID_2_)" fill="#910023" d="M192.011,128.453c0,0.014,0.004,0.035,0.004,0.056
		c0,0.004,0.015,0.007,0.015,0.013C192.015,128.491,192.015,128.47,192.011,128.453"/>
	<path clip-path="url(#SVGID_2_)" fill="#910023" d="M155.674,125.711c0.023-0.052,0.05-0.104,0.069-0.146
		C155.666,125.717,155.655,125.742,155.674,125.711"/>
	<path clip-path="url(#SVGID_2_)" fill="#910023" d="M138.164,174.859c-0.004,0-0.038,0-0.05-0.013
		C138.164,174.881,138.176,174.881,138.164,174.859"/>
	<path clip-path="url(#SVGID_2_)" fill="#910023" d="M104.8,136.113c-1.572,0.88-4.997,2.226-5.714,3.75
		c-0.4,0.799-0.4,1.491-0.72,2.449c-0.044,0.104-0.469,0.273-0.6,0.565c-1.671,0-3.145-0.106-4.593,0.283
		c-1.134,0.32-2.767,1.523-4.027,1.74c-2.557,0.442-4.511-0.695-6.909-0.292c-1.068,0.188-1.754,1.295-2.629,1.738
		c-0.752,0.359-1.055,0.359-1.641,0.894l-0.53,0.613c-0.087,0.233-0.348,0.816-0.514,1.089c-0.52,0.782-0.729,1.581-0.854,2.423
		c-0.127,0.82-0.604,2.784-1.03,3.598c-0.208,0.393-1.289,1.276-1.445,1.638c-0.082,0.245-0.326,0.487,0,0.856
		c-0.374-0.408-0.299,0.399,1.775,0.511c2.281,0.047,7.247-1.475,7.247-1.475L85,155.208c0.461-0.356,2.309-1.756,2.719-2.244
		c1.736-2.151,6.382-10,9.995-7.948l0.652,0.465c0.862,1.452-0.227,5.593-0.874,6.541l-0.817,0.974
		c-0.645,0.211-1.097,1.879-1.193,2.659c-0.152,1.237,0.208,2.359,0.3,3.051c0.186,1.49,0.342,3.373-0.579,5.214
		c-0.199,0.357-0.72,0.995-0.582,1.994c0.175,1.13,1.777,1.955,2.008,2.894c0.138,0.469,0.551,0.542,0,1.44
		c-0.306,0.484-1.625,1.306-2.008,1.726c-0.52,0.53-0.065,1.359,0.279,1.687c0.995,0.899,1.819,1.014,2.592,2.048
		c1.102,1.414,1.039,2.644,3.465,2.878c1.906,0.176,4.598,0.284,3.46-2.313l-0.572-0.97c-0.678-1.693-1.864-3.199-2.023-5.056
		c-0.223-2.358,1.675-3.558,0.876-5.464c-0.638-1.464-3.512-1.299-3.752-3.2c-0.121-1.061,0.957-3.309,1.16-4.323
		c0.221-1.383-0.148-2.259,0.3-3.446c0.286-0.85,1.546-1.803,1.685-2.86c0.269-1.902-1.199-3.101-0.561-5.182
		c0.317-1.072,1.994-0.951,2.611-1.74c0.797-1.068,0.359-2.54,0.845-4.038c0.048-0.173,0.461-1.069,0.544-1.224
		c-0.048-0.066,0.33-1.929,0.33-1.929C105.612,135.673,104.886,136.151,104.8,136.113 M86.564,151.309
		c-1.612,0.368-1.756-3.07-5.637-1.729c-0.2,0.075-1.289,1.074-1.381,1.233c-0.452,1.025-0.208,3.643-0.72,3.893
		c0,0-1.507,0.372-1.213-1.533c0.465-3.027,1.047-3.593,2.576-4.869c0.208-0.164,0.782-0.595,1.076-0.659
		c1.829-0.415,5.203,0.281,5.81,1.212C87.596,149.624,86.493,151.33,86.564,151.309"/>
	<path clip-path="url(#SVGID_2_)" fill="#910023" d="M192.014,128.508c-0.269-1.406-4.092-1.306-5.632-3.183
		c-0.577-0.751-0.15-1.163,0-1.724c0.438-1.64,3.93-0.668,4.748-2.128c0.331-0.611,0.442-2.417,0.223-2.665
		c-2.186-2.687-6.808-1.408-10.074-2.711c-1.568-0.645-3.527-1.952-5.18-2.574c-2.078-0.793-3.681-0.911-5.756-1.733
		c-0.472-0.204-1.394-0.88-1.89-1.083c-2.309-0.926-4.142-1.113-6.44-2.095c-0.276-0.099-0.976-0.499-1.279-0.626
		c-0.918-0.394-1.211-0.449-2.19-0.811c-3.558-1.289-8.092-2.428-13.252-2.101c-2.26,0.121-4.861-0.296-8.346,0.695
		c-1.206,0.304-2.889,1.345-4.019,1.702c-0.799,0.239-1.483,0.377-2.206,0.69c-1.002,0.409-1.89,0.993-3.266,1.32
		c-3.957,0.886-9.236-0.087-13.248,0.582c-3.477,0.559-5.487,2.753-8.347,3.742c-0.874,0.287-1.234,0.196-2.094,0.509
		c-0.5,0.174-1.685,0.487-2.085,0.711c-1.193,0.613-1.971,0.8-3.316,1.364c-0.674,0.304-1.477,0.921-2.128,1.224
		c-0.969,0.479-1.024,0.613-1.824,1.195l-0.651,0.473c0,0-1.406,1.229-1.577,1.446c-0.559,0.586-1.097,1.393-1.579,2.002
		c-1.464,1.706-3.662,3.846-5.481,5.166c-0.663,0.479-1.128,0.379-1.71,0.886c-0.69,0.522-1.295,1.081-1.95,1.581
		c-1.51,1.082-3.018,1.798-4.68,2.711l-1.068,0.711c-1.408,0.926-1.351,1.298-2.811,2.219c-0.951,0.651-1.366,1.627-2.244,2.374
		c-0.578,0.448-1.241,1.854-1.629,2.454c-1.81,2.649-2.488,6.553-3.777,9.836c-0.386,0.933-3.529,5.463-4.311,5.752l-0.578,0.549
		c-0.448,0.377-0.448,0.488-0.855,0.888c-0.93,0.826-1.868,1.3-2.584,2.31c-0.586,0.784-0.93,1.706-1.464,2.574
		c-0.824,1.353-2.179,2.851-2.865,4.326c-0.278,0.546-0.478,1.092-0.674,1.614c-0.073,0.076-0.125,0.169-0.146,0.169
		c-0.352,0.449-0.961,2.306-0.961,2.306c-0.637,1.482-2.157,2.316-4.169,5.183c-2.347,0.169-10.445-1.886-15.951-4.495
		c1.233,1.372,7.412,5.529,14.649,6.32c-0.48,0.707-0.521,1.43-1.389,1.657c-2.895,0.714-7.925-0.869-14.689-3.232
		c0.392,0.945,6.347,4.438,15.14,4.972c-1.302,1.529-13.383,1.149-22.831-1.425c-0.359,0.987,11.812,3.696,18.493,3.604
		c-1.145,0.588-4.149,1.268-6.082,1.963c-3.043-0.338-7.295-0.868-8.121-1.18c0.192,0.614,3.205,1.438,5.698,2.014
		c-2.397,0.856-5.949,1.352-7.329,1.644c1.007,0.254,4.859-0.36,8.909-1.337c3.548,0.68,8.979,1.387,11.966,1.253
		c-0.751,0.373-3.559,2.183-5.778,3.481c-5.676,0.534-11.85,1.007-13.177,1.176c0.745,0.111,5.721,0.192,11.027,0.058
		c-3.239,1.897-6.695,3.876-8.357,4.634c2.461-0.631,6.854-2.31,11.344-4.723c4.456-0.157,8.632-0.522,10.371-1.145
		c-0.596,1.299-4.196,7.512-7.548,8.953c1.446-0.239,6.097-1.55,8.91-8.593c0.999,0.431,2.136,0.685,3.462,0.766
		c0.741,1.118,2.495,3.983,5.821,4.149c0.678,1.929,6.843,11.984,15.506,8.065c-2.502-1.361-4.016-2.771-5.249-6.786
		c3.842-0.238,14.017,5.341,17.081,17.402c-2.409-0.812-5.423-2.206-5.744-3.416c-0.661,2.793-1.095,6.39,5.076,12.606
		c0.117,1.329,0.096,2.924,0.378,4.426c1.02,1.065,2.196,1.856,3.287,2.782c0.077,1.748-0.169,4.154,4.428,5.498
		c1.564,1.291,6.582,2.675,7.316,3.535c1.499,0.48,3.721,0.573,5.341,0.48c0,0,2.18-0.368,2.763-1.202
		c1.089-0.063,2.564-0.097,9.234-7.201c1.399-1.671,0-10.858,0.335-13.087c0.653-1.621,0.945-3.116,1.836-5.11
		c0,0,0.903-1.967,2.606-2.758c0.115-0.054,0.215-0.054,0.357-0.093c3.842-0.868,8.841,2.728,11.208,3.734
		c0.861,0.354,1.314,0.161,2.006,0.584c0.342,0.178,0.818,0.96,1.168,1.16c0.845,0.474,1.66,0.342,2.605,0.847
		c1.376,0.768,4.173,4.81,6.609,4.342c0.753-0.182,1.352-1.91,2.005-2.329c1.138-0.695,2.728-0.63,3.743-1.422
		c1.16-0.914,0.684-1.94,0.861-3.182c0-0.058,0.537-0.638,0.587-0.884c0.565-0.054,1.818-0.004,2.602-0.254
		c0.1-0.038,0.43-0.422,0.564-0.568c0.496-0.519,0.135-1.067,0-1.49c-0.173-0.461-1.348-1.008-1.717-1.406
		c-0.864-0.861-2.344-2.113-2.897-3.159c-0.262-0.53,0.069-0.641-0.296-1.183c-0.381-0.6-1.387-1.223-1.694-1.991
		c-1.111-2.47-0.669-7.98-1.157-8.748c-0.457-0.742-1.022-0.646-1.472-1.338c-0.956-1.518,0.223-6.405,0.308-8.341
		c0.084-1.554-1.437-0.584-1.437-0.584c-1.261,3.104-1.126,4.479-1.437,8.925c-0.047,0.392-0.58,2.767-0.58,3.186
		c-0.02,1.553,0.891,4.185,0.276,6.04c-0.203,0.607-1.452,1.775-3.162,1.729c-0.646,0-3.869-0.838-4.599-1.149
		c-0.143-0.073-0.826-0.853-0.88-0.88c-1.599-1.268-1.937-0.077-2.006,0.557c-0.05,0.669,0.219,0.797,0.35,1.165
		c0.057,0.369,0.707,1.752,0.641,1.863c-0.023,0.138-0.584,1.652-3.577-0.111c-2.255-1.367-4.484-5.126-4.603-5.771
		c-0.311-1.448,0.134-2.535,0.411-3.031c1.126-1.018,2.467,0.396,3.589,1.003c0.284,0.15,0.976,0.639,1.322,0.703
		c0.661,0.111,1.721-0.123,1.867-0.123c4.372-0.257,8.899,1.329,9.675-1.605c0.484-1.842-1.329-2.832-1.648-3.594
		c-0.411-0.937-0.2-0.99-0.434-2.024c-0.039-0.08-0.339-0.749-0.408-0.83c-0.445-0.769-0.123-1.438-0.569-2.297
		c-0.457-0.938-1.752-1.506-2.289-2.311c-0.746-1.063-0.746-2.393-1.745-3.173c-1.476-1.207-7.373-2.963-8.061-4.334
		c-1.122-2.175,0.261-6.175-0.285-8.907c-0.295-1.602-0.814-2.474-1.794-3.462c-0.376-0.384-0.557-0.96-0.419-1.479
		c0.254-0.957,0.761-0.696,1.053-2.843c0.185-1.177-0.108-2.507,0-3.735c0.008-0.2,0.569-2.083,0.603-2.305
		c0.262-3.214-0.157-6.575-0.868-8.901c-0.338-1.134-1.387-2.112-1.737-3.188c-0.303-0.899,0.062-1.419-0.303-2.315
		c-0.284-0.789-1.291-1.341-1.691-1.988c-0.784-1.145-0.553-3.095-1.748-3.756c-0.876-0.486-1.187,0.192-1.133,0
		c-0.293,1.055-0.231,2.085,0.284,3.449c0.207,0.59,1.287,1.441,1.46,2.023c0.223,1.064-0.173,2.353,0,3.459l0.553,1.16
		c0.442,2.889-1.129,6.721-2.297,8.33c-0.823,1.068-3.297,2.437-3.447,4.031c-0.127,0.999,0.28,1.029,0.534,1.448
		c0.372,0.53,1.56,1.218,1.744,1.722c0.131,0.376,0.277,0.3,0.427,0.672l0.15,0.784c0.199,2.013-2.429,2.471-1.153,4.888
		c0.361,0.695,1.598,0.695,2.29,1.138c1.306,0.829,3.792,3.161,4.027,5.159c0.108,0.881-0.004,5.515-0.262,6.067
		c-0.599,1.283-3.834,1.783-3.465,4.322c0.407,2.771,7.715,1.986,9.767,3.443c0.976,0.681,1.176,2.162,1.472,3.484
		c0.165,0.715-0.55,0.957-0.869,1.118c-0.772,0.45-1.325,0.104-2.305,0.312c-2.375,0.484-6.171,1.548-7.166,3.461
		c-1.253,2.199,0.223,5.223-0.308,7.747c-0.522,2.294-2.244,5.079-3.481,6.936c-0.764,1.122-1.732,2.235-2.094,3.818
		c-0.849,3.397-0.257,7.408-0.503,11.397l-0.046,0.03c0,0,0.146,2.067-1.245,3.573c-1.583,1.736-7.062,6.862-10.949,6.862
		c-1.443-0.046-2.032-0.521-3.604-1.66c-0.995-0.084-3.274-0.638-4.59-2.009c-0.413-0.734-4.706-5.087-2.009-6.329
		c2.54-1.168,6.647,1.376,8.549,2.605c0.772,0,6.326,0.276,12.226-7.453c-0.276-4.05-0.611-9.238-1.052-10.184
		c-0.615-1.981-3.966-5.489-4.682-7.588c-0.444-1.706-1.243-5.049-0.726-7.365c-0.225-2.587-1.858-3.155-2.536-5.249
		c-0.187-0.53-0.408-0.941-0.525-1.103c-0.204-0.757-0.344-1.434-0.809-2.125c-1.024-1.568-2.023-1.906-2.96-3.435
		c-0.978-1.592-0.803-3.574-2.309-4.611c-0.83-0.553-1.943-0.607-2.871-1.146c-0.674-0.403-1.525-1.379-2.305-1.725
		c-0.909-0.407-1.161-0.522-2.081-0.93c-0.451-0.219-1.268-0.584-1.663-0.792c-0.404-0.234-0.811-0.03-1.151-0.308
		c-1.111-0.944-0.312-1.794-0.863-3.431c-0.054-0.204-0.488-0.212-0.588-0.58c-0.459-0.123-1.268-0.856-1.892-0.419
		c-0.859,0.634-1.103,0.449-1.637,1.768c-0.309,0.868-0.895,3.424-1.481,4.046c-0.517,0.618-1.172,1.476-1.989,2.048
		c-0.764,0.399-1.433,0.354-1.433,0.354l-2.153,0.315l-1.072,1.647c0,0-1.172-0.156-1.793-0.156
		c-0.175,0.398-1.594,1.489-2.042,1.875c-1.823,1.067-2.943,0.314-3.064-0.077c-0.093-0.342-0.669-1.064,0.563-1.798
		c4.221-1.185,9.396-6.836,9.83-8.059c-0.538,0.823-9.273,5.648-10.889,6.298c1.737-4.118,12.44-10.147,13.091-10.861
		c-2.74,0.415-11.858,5.924-13.443,8.359c-1.515,2.456-3.3,1.772-4.979,1.699c-1.633-0.054-1.499,1.702-1.574,2.778
		c-0.021,1.052-0.833,3.188-0.146,3.572c1.12,0.962,4.064-2.942,5.001-0.845c0.513,2.344-5.544,2.236-5.492,4.131
		c-0.29,0.998,5.592,1.341,6.67,2.405c-1.885,1.379-6.515,1.825-7.89,1.895c-0.859,0.068-1.633,0.033-2.075-0.035
		c-0.765-0.135-1.768-0.834-2.649-2.271c-1.676-3.043,1.154-5.137,1.198-5.917c0.069-0.813-0.317-0.38-0.369-1.66
		c-0.048-1.274,1.386-1.489,1.751-1.759c0.407-0.285-0.106-0.638-0.01-1.875c0.747-2.802,5.314-6.029,4.146-6.928
		c-1.062-0.562-3.278,1.882-4.136,2.993c-3.141,4.05-6.801,2.777-8.042,2.828c-2.771,0.149-2.285-2.878-0.348-2.666
		c2.232-0.462,2.067-3.548,3.652-3.24c0.511,2.26-1.988,2.575-0.82,3.078c1.596,0.63,1.748-1.456,2.253-2.332
		c0.477-0.893,2.723-2.813,2.471-3.297c-0.651-0.228-2.307,0.952-3.059,1.536c-1.823-4.553,2.771-8.015,2.997-9.363
		c1.507-2.378,9.935-5.421,10.09-9.033l0.231-0.2c0,0,0.157-0.1,0.413,0.323h0.017c0.056,0.219,0.096,0.453,0.162,0.695
		c0.017,0.296-0.014,0.561-0.014,0.561l0.039-0.349c0.065,0.567,0.04,1.056,0.065,0.937v0.546c0.079,0.322,0.503,0.491,0.572,0.522
		c0.175-0.031,0.64-0.176,1.074-0.676c0.069-0.073,0.559-0.542,0.559-0.653c0.809-0.592,0.955-0.676,1.526-1.483
		c1.444-2.105-1.343-5.192-0.571-8.037c0.531-1.892,2.294-4.124,2.294-4.124c0.477-1.078-0.279-1.068-0.279-1.068
		c-1.11-0.2-1.884,0.989-1.719,0.834c-1.424,1.337-1.85,1.988-2.884,3.776c0,0-0.868,0.786-1.123-0.292
		c-0.5-1.782,1.523-5.287,2.157-5.734c1.181-0.813,2.384-1.164,3.869-1.768c0.748-0.313,1.854-1.512,2.598-1.711
		c0.365-0.125,0.762-0.204,1.141,0c0,0,0.561,0.409,0.299,1.711c0,0-0.568,1.558-0.368,2.133c0.121,0.386,0.069,0.755,0.947,0.755
		c2.065,0.038,6.685-0.442,8.04-1.168c0.309-0.121,0.609-0.577,0.885-0.842c0.427-0.434,0.318-1.078,0-1.143l-0.885-0.29
		c0.678-0.1-3.898-0.134-3.161-0.269c-0.803,0.135,1.082-2.132,0.861-3.208c-0.092-0.509-0.991-0.723-1.151-1.13
		c-0.092-0.257-0.578-0.638,0-0.868l0.663-0.283c0.223-0.161,0.461-0.43,0.774-0.574c1.445-0.672,4.046-0.342,5.184,0
		c0.123,0.061,1.981,0.574,2.597,2.307c0.161,0.486,0.29,1.024,0.573,1.451c0.868,1.189,3.404,1.617,4.893,0.203
		c0.296-0.274,0.657-0.947,0.878-1.343c1.475-3.394-0.713-5.703-3.477-6.643c-1.113-0.398-2.919-0.507-4.313-0.868
		c-0.986-0.277-0.394-1.103-0.112-1.351l0.421-0.373c0.547-0.81,2.257-1.533,2.882-1.723c1.525-0.578,3.023-1.151,5.177-0.275
		c0.321,0.11,1.162,0.769,1.406,0.838c1.637,0.409,2.254,0.53,3.77-0.259c0.607-0.296,0.516-0.375,0.572-0.559
		c0.538-1.543-0.53-2.567-0.499-2.402c-0.321-2.077,5.602,0.486,6.526-0.822c0.868-1.183,0.303-3.443,1.449-4.307
		c0.13-0.073,0.806-0.552,0.86-0.569c1.103-0.231,2.067,0.227,2.943,0.569l0.938,0.447c1.867,0.769,3.485,1.186,4.496,2.715
		c0.633,1.003,0.514,2.453,1.133,3.473c0.265,0.431,0.88,0.711,1.195,1.151c0.265,0.313,0.776,0.525,1.122,0.721
		c0.53,0.334,0.738,0.468,1.425,0.689c0.511,0.206,1.249,0.974,1.737,1.174c1.756,0.715,3.862,0.615,5.76,0.569
		c1.129-0.044,1.798,0.615,2.866,0.294c0.55-0.187,0.392-1.159,0.05-1.572c-0.688-0.872-1.21-0.664-2.348-1.312
		c-0.445-0.273-1.006-1.158-1.444-1.424c-1.314-0.854-3.22-0.975-4.016-2.313c-0.107-0.209-0.257-0.595-0.28-0.839l-0.323-0.611
		c-1.59-3.228-2.098-5.141-0.568-5.75c0.952-0.359,3.035-0.156,4.057-0.573c0.231-0.124,0.668-0.772,0.849-0.868
		c2.286-1.085,6.582-2.353,8.937-1.147c0.711,0.334,0,2.167,0.265,2.874c0.15,0.313,0.677,0.847,1.28,1.026
		c4.941,1.329,9.879,1.11,13.506,2.822c2.163,1.02,3.819,2.619,5.767,4.304c1.672,1.489-0.311,3.17,1.41,3.673
		c-1.175,0.156-2.174,0.286-2.378-0.327c-0.058-0.151-0.411-0.689-0.576-0.847c-1.295-1.228-2.802-3.126-4.592-3.737
		c-0.93-0.34-1.337-0.048-2.321-0.305l-1.16-0.39c-1.249-0.352-1.341-0.231-2.563-0.482c-0.546-0.108-1.783-0.777-2.321-0.834
		c-2.444-0.365-3.815,0.617-6.052,0c-1.029-0.304-2.359-1.94-3.192-2.379c-1.034-0.587-1.987-0.791-3.147-1.164
		c-0.469-0.126-0.707-0.126-1.057,0.052c-0.638,0.375-0.426,0.943-0.096,1.416c0.192,0.252,0.353,0.686,0.576,0.824
		c0.815,0.586,2.436,0.586,2.882,1.437c1.272,2.515-0.595,3.391-0.864,4.138c-0.135,0.456-0.488,0.813,0,1.424
		c0.269,0.323,0.841,0.726,1.168,0.847c1.164,0.505,2.086,0.313,3.174,0.878c0.772,0.408,1.586,1.806,2.585,2.027
		c2.306,0.496,2.855-1.206,4.023-1.462c1.668-0.369,2.697,0.511,4.611,0c0.634-0.169,0.987-0.922,1.433-1.13
		c1.103-0.585,2.198-0.668,2.886-0.313c0,0,0.741,0.358-0.296,0.878c-0.596,0.327-1.099,0.327-1.718,0.638
		c-0.418,0.227-0.787,0.813-0.856,0.907c-0.196,0.4-0.331,1.003-0.319,1.043c0.18,0.325,0.43,0.503,0.588,0.59
		c2.005,0.692,4.053-0.607,5.771-0.869c1.275-0.203,4.841,0,5.867,0.782c0,0,0.949,0.196,0.334,1.924
		c-0.38,1.037-2.021,1.794-2.639,2.674c-0.365,0.495-0.765,1.443-1.138,1.929c-0.607,0.785-0.711,0.76-1.325,1.485l-0.423,0.613
		c-0.25,0.737-3.181,3.225-3.735,4.059c-0.33,0.494-0.484,1.016-0.834,1.55c-0.526,0.751-0.91,0.876-1.179,1.334
		c-0.845,1.214-2.498,3.681-3.862,4.303c-0.611,0.256-1.467-0.027-2.317-0.196c-0.58-0.158-1.206-1.22-1.709-1.451
		c-2.014-0.92-4.254-0.66-6.029-1.729c-0.888-0.528-1.706-2.084-2.336-2.877c-0.419-0.544-0.799-1.499-1.437-1.751
		c-1.03-0.355-3.531-0.027-4.019,0.869c-0.949,1.81,1.529,6.461,1.736,8.373c0.147,1.624-0.599,2.361,0,3.725
		c0.277,0.694,1.357,0.875,1.714,1.443c1.56,2.455,0.2,5.925,0.569,9.206c0.146,1.021,0.753,2.291,0.576,3.762
		c-0.246,2.298-3.201,4.277-2.006,7.765c0.043,0.146,0.604,0.55,0.642,0.592c0.457,0.224,1.18,0.132,1.668-0.011
		c0.956-0.335,1.886-2.256,2.893-2.875c0.1-0.119,0.43-0.28,0.607-0.28c0.108-0.199,0.38-0.215,0.538-0.287
		c0.423-0.319,0.592-0.33,0.845-0.865c0.408-0.934,0.269-1.859,0.577-3.189c0.299-1.099,1.317-3.054,1.448-4.321
		c0.35-3.524-2.201-10.413-0.369-11.551c0.7-0.435,1.395-1.268,2.605-1.45c0.538-0.13,2.275,0.405,3.024,0.386
		c-0.011,0.02-0.019,0.026-0.019,0.026c-0.938,2.206,2.517,7.966,2.244,11.144c-0.672,7.742-5.729,12.019-10.094,16.148
		c-0.499,0.492-0.077,1.05,0.3,1.438c0.861,0.819,2.962,0.458,4.054,0.284c1.579-0.322,2.286-1.037,3.45-1.434
		c0.426-0.173,0.949,0.098,1.425,0c1.192-0.325,2.206-1.939,2.882-2.916c0,0,1.41-1.514,1.706,0.492l0.031,0.111
		c0,1.871-0.327,3.92,0,5.744c0.342,2.164,4.284,8.652,6.332,8.944c4.795,0.703-0.111-5.333-0.307-5.763
		c-0.784-1.825-1.545-5.079-1.433-7.48c0.023-0.881,0.757-2.655,0.856-3.481c0.047-0.411-0.165-1.364,0-1.699
		c0.377-0.768,2.917-1.018,3.466-2.027c0.146-0.288-0.069-0.812,0-1.138c0.119-0.695,0.623-1.979,1.16-2.579
		c0.342-0.43,0.838-0.672,1.437,0c0.492,0.554,0.623,1.842,1.449,2.771l0.707,0.775c0.849,0.55,2.225-0.181,1.864-0.096
		c0.891-0.246,0.787-1.153,1.16-1.468c0.062-0.05,0.561-0.273,0.561-0.273c2.082-2.14-2.536-4.072-2.59-6.059
		c-0.046-2.206,0.492-4.757-0.269-7.193c-0.192-0.606-1.321-1.468-1.452-2.01c-0.312-1.389,0.411-2.855,0.576-3.734
		c0.323-1.841-0.307-4.672,0.3-5.482c0.338-0.448,0.899-0.775,2.006-0.583c0.73,0.135,1.218,1.328,1.725,1.731
		c1.887,1.518,4.073,2.363,7.208,2.002c0.388-0.008,0.711-0.6,0.78-0.763c0.2-0.575,0.161-1.313-0.207-1.816
		c-1.13-1.519-5.518-2.678-5.753-3.435c-0.172-0.565-0.868-1.32-0.103-1.698c-0.419,0.24,2.701-0.091,3.827-0.329
		c1.467-0.321,1.575-1.777,2.59-2.288c1.433-0.757,3.538-0.096,4.341-1.437c0.477-0.868,0.104-2.105,0.561-2.901
		c0.569-1.016,2.279-1.22,3.159-2.029C192.199,129.68,192.076,128.791,192.014,128.508 M76.282,195.841
		c-0.565-0.626-0.089-1.852,0.954-2.367c1.923-0.91,2.719,0.146,3.136,0.646c1.865,2.896,4.284,6.646,6.078,8.138
		C84.79,202.419,78.598,200.53,76.282,195.841 M92.121,224.958c-1.008,0-7.417-5.395-6.453-8.749
		c1.902,1.403,6.165,4.384,6.705,4.323C92.946,220.871,93.397,224.582,92.121,224.958 M99.572,224.977
		c-0.838-0.733-7.047-7.3-5.497-10.343c1.706,1.71,6.452,6.078,8.146,6.505C102.697,222.384,102.628,225.82,99.572,224.977
		 M100.24,199.915c1.086,1.629,2.58,2.582,2.502,6.094c-0.104,0.857,0.173,1.029,0.893,0.968c0.651-0.191,0.296-4.233,2.259-3.98
		c1.668,0.25,0.538,2.566,1.362,5.172c0.306,0.93,2.189,4.269,1.685,9.99c-0.048,1.479-2.857,3.403-4.459,2.274
		c-1.316-0.795-1.316-1.774-2.071-7.823c-0.321-3.565-4.672-4.795-6.516-6.424c-1.85-1.36-0.796-2.032-1.134-4.508
		c-1.064-3.584-5.241-5.26-3.842-7.646c0.434-0.593,0.855-1.156,2.178-0.653C93.172,195.15,97.408,196.525,100.24,199.915
		 M70.572,188.602c-0.11,0.059-0.127,0.069,0.038-0.012C70.606,188.59,70.589,188.598,70.572,188.602
		c0.428-0.184,2.288-1.06,2.778-1.24c1.967-0.696,3.014,0.356,4.824-0.649c0.424-0.262,0.903-0.957,1.299-1.28
		c0.338-0.307,0.964-0.271,1.367-0.557c1.003-0.676,2.871-2.824,4.16-3.055c0.741-0.139,0.737,0.058,1.116,0.093
		c0,0.073,0.551-0.112,0.407,0.995c-0.342,2.128,4.665-0.027,7.96,0.753c2.236,0.538,4.416,1.295,3.838,2.734
		c0.079-0.152-0.655,0.446-0.83,0.555c-1.541,1.113-2.739-0.108-3.521-0.22c-1.345-0.161-2.3,0.25-3.677,0.08
		c0-0.019-1.655-0.553-1.655-0.553c-1.043-0.054-2.549,0.492-3.348,0.553c-1.514,0.116-2.244-0.418-3.604-0.275
		c-0.663,0.077-1.731,0.944-2.213,1.113c-0.444,0.17-0.961,0.319-1.395,0.458c-0.3,0.072-1.045,0.483-1.393,0.642
		c-1.372,0.676-2.188,0.676-3.887,1.122l-0.981,0.265C69.707,190.417,69.915,188.971,70.572,188.602 M65.442,196.826
		c2.267-0.531,2.936,0.05,4.021,2.632c0.803,1.524,2.492,3.546,3.139,4.507c-2.612,0.299-6.768-3.266-7.932-5.215
		C63.932,197.793,65.06,197.033,65.442,196.826 M36.594,186.02c2.984-0.834,5.619-1.693,6.722-2.332
		c0.4-0.026,0.786-0.026,1.186-0.05c0.169,0.791,0.476,1.599,0.95,2.395c0.104,0.172,0.208,0.321,0.304,0.461
		C43.95,186.536,40.306,186.304,36.594,186.02 M42.811,191.239c1.529-0.923,2.997-1.914,4.386-2.937
		c0.634,0.746,1.329,1.438,2.102,2.094C48.492,190.617,45.96,190.93,42.811,191.239"/>
	<path clip-path="url(#SVGID_2_)" fill="#910023" d="M70.572,188.603c0.017-0.005,0.034-0.013,0.038-0.013
		C70.445,188.671,70.462,188.661,70.572,188.603"/>
	<rect x="290.263" y="128.876" clip-path="url(#SVGID_2_)" fill="#910023" width="1240.427" height="4.437"/>
	<path clip-path="url(#SVGID_2_)" fill="#910023" d="M296.045,94.123h24.01V65.605h11.466v28.518h17.542
		c0.587-0.98,1.093-2.433,1.519-4.361c0.424-1.927,0.767-4.034,1.028-6.321c0.261-2.286,0.474-4.638,0.638-7.056
		c0.162-2.416,0.276-4.621,0.343-6.615c0.064-1.992,0.113-3.626,0.146-4.9s0.05-1.943,0.05-2.009V43.653h-48.706V33.069h60.662
		v19.306c0,6.6-0.147,12.348-0.441,17.248s-0.637,9.033-1.029,12.397c-0.392,3.366-0.801,6.027-1.225,7.987
		c-0.426,1.96-0.769,3.332-1.029,4.116h11.564v10.486h-76.538V94.123z"/>
	<path clip-path="url(#SVGID_2_)" fill="#910023" d="M444.514,108.921V97.553c-1.176,0.458-3.104,0.948-5.782,1.47
		c-2.68,0.524-6.11,0.784-10.289,0.784l-30.675,0.196c-0.066,0-0.539-0.098-1.421-0.294c-0.882-0.196-1.83-0.62-2.842-1.274
		c-1.013-0.652-1.96-1.6-2.842-2.842c-0.881-1.24-1.356-2.906-1.42-4.998V58.549h25.479V42.281h-26.264V32.089h37.73v37.24h-24.402
		v20.188h27.93c0.065,0,0.652-0.015,1.764-0.049c1.11-0.032,2.45-0.162,4.018-0.392c1.568-0.228,3.168-0.588,4.802-1.078
		c1.633-0.49,3.038-1.191,4.214-2.107v-7.938h-9.506v-10.29h9.506v-9.212h-9.506V47.965h9.506V31.109h11.956v77.812H444.514z"/>
	<path clip-path="url(#SVGID_2_)" fill="#910023" d="M515.661,95.495c-1.437,0.458-3.251,0.899-5.439,1.323
		c-2.19,0.426-4.949,0.703-8.281,0.833c-2.092,0.132-4.214,0.213-6.37,0.245c-2.156,0.034-4.149,0.049-5.978,0.049h-3.185
		c-1.014,0-2.009-0.033-2.989-0.098c-0.066,0-0.524-0.098-1.372-0.294c-0.85-0.196-1.798-0.621-2.842-1.274
		c-1.046-0.653-1.993-1.633-2.842-2.94c-0.849-1.306-1.307-3.038-1.372-5.194V31.599h30.478v10.29h-18.228v45.472h16.17
		c0.718,0,1.421-0.015,2.107-0.049c0.686-0.032,1.387-0.081,2.107-0.147c1.24-0.13,2.563-0.326,3.969-0.588
		c1.404-0.26,2.759-0.686,4.067-1.274V31.109h11.27v27.734h7.742V31.109h10.976v77.812h-10.976V69.525h-7.742v39.396h-11.27V95.495z
		"/>
	<path clip-path="url(#SVGID_2_)" fill="#910023" d="M593.865,32.677h19.502v9.996h-7.252c2.286,3.268,3.43,6.762,3.43,10.486
		c0,2.81-0.572,5.456-1.715,7.938c-1.144,2.484-2.68,4.655-4.605,6.517c-1.928,1.862-4.2,3.332-6.812,4.41
		c-2.613,1.078-5.39,1.617-8.33,1.617s-5.732-0.554-8.379-1.666c-2.645-1.11-4.949-2.597-6.909-4.459
		c-1.96-1.862-3.527-4.033-4.703-6.517c-1.177-2.482-1.765-5.096-1.765-7.84c0-1.894,0.31-3.707,0.932-5.439
		c0.62-1.73,1.484-3.413,2.596-5.047h-8.036v-9.996h20.286v-7.546h11.76V32.677z M631.497,79.619v29.988h-12.25V89.615h-50.273
		v-9.996H631.497z M598.373,53.649c0-1.436-0.278-2.776-0.833-4.018c-0.556-1.24-1.308-2.335-2.254-3.283
		c-0.947-0.946-2.043-1.681-3.283-2.205c-1.241-0.522-2.548-0.784-3.92-0.784s-2.68,0.262-3.92,0.784
		c-1.241,0.524-2.319,1.259-3.233,2.205c-0.916,0.948-1.652,2.043-2.205,3.283c-0.556,1.242-0.833,2.582-0.833,4.018
		c0,1.372,0.277,2.663,0.833,3.871c0.553,1.21,1.289,2.271,2.205,3.185c0.914,0.916,1.992,1.634,3.233,2.156
		c1.24,0.524,2.548,0.784,3.92,0.784s2.679-0.26,3.92-0.784c1.24-0.522,2.336-1.24,3.283-2.156c0.946-0.914,1.698-1.975,2.254-3.185
		C598.095,56.312,598.373,55.021,598.373,53.649 M631.497,31.109v17.248h8.036v10.486h-8.036v16.268h-11.956V31.109H631.497z"/>
	<path clip-path="url(#SVGID_2_)" fill="#910023" d="M725.381,104.609h-76.538V94.123h14.798V66.879h11.76v27.244h8.721V66.879
		h11.761v27.244h5.977c0.523-0.848,0.981-2.09,1.373-3.724c0.392-1.632,0.718-3.445,0.98-5.439c0.26-1.992,0.489-4.082,0.686-6.272
		c0.196-2.188,0.342-4.295,0.441-6.321c0.098-2.024,0.162-3.854,0.195-5.488c0.033-1.632,0.05-2.874,0.05-3.724V43.849h-48.706
		v-10.78h60.76v19.6c0,6.86-0.148,12.757-0.442,17.689c-0.294,4.934-0.653,9.033-1.078,12.299c-0.425,3.268-0.849,5.831-1.273,7.693
		c-0.426,1.862-0.769,3.121-1.029,3.773h11.564V104.609z"/>
	<path clip-path="url(#SVGID_2_)" fill="#910023" d="M784.081,105.589c-3.332,0-6.664-0.311-9.996-0.931
		c-3.332-0.622-7.09-1.683-11.27-3.185l0.196-12.544c0.915,0.916,2.156,1.764,3.724,2.548c1.567,0.784,3.332,1.455,5.292,2.009
		c1.96,0.556,4.018,0.997,6.174,1.323c2.156,0.328,4.278,0.49,6.37,0.49c2.024,0,3.984-0.162,5.88-0.49
		c1.895-0.326,3.561-0.848,4.998-1.568c1.437-0.718,2.58-1.632,3.43-2.744c0.849-1.11,1.274-2.45,1.274-4.018
		c0-1.764-0.769-3.592-2.303-5.488c-1.536-1.894-3.97-3.626-7.302-5.194l-13.817-6.664c-4.508-2.156-7.857-4.817-10.045-7.987
		c-2.19-3.168-3.284-6.385-3.284-9.653c0-2.416,0.588-4.736,1.764-6.958c1.176-2.22,2.892-4.197,5.145-5.929
		c2.255-1.73,5.063-3.119,8.429-4.165c3.364-1.044,7.235-1.568,11.612-1.568c5.488,0,10.879,0.818,16.171,2.45v13.23
		c-0.654-0.848-1.585-1.6-2.793-2.254c-1.21-0.652-2.598-1.208-4.165-1.666c-1.568-0.456-3.219-0.816-4.949-1.078
		c-1.731-0.26-3.479-0.392-5.243-0.392c-1.764,0-3.464,0.132-5.096,0.392c-1.634,0.262-3.055,0.671-4.263,1.225
		c-1.21,0.556-2.19,1.274-2.94,2.156c-0.752,0.882-1.127,1.945-1.127,3.185c0,1.764,0.669,3.479,2.009,5.145
		c1.339,1.666,3.675,3.283,7.007,4.851l13.818,6.664c4.769,2.288,8.28,5.064,10.535,8.33c2.254,3.268,3.381,6.6,3.381,9.996
		c0,2.614-0.654,5.145-1.96,7.595c-1.308,2.45-3.186,4.64-5.635,6.566c-2.45,1.926-5.439,3.462-8.968,4.606
		C792.607,105.016,788.589,105.589,784.081,105.589"/>
	<polygon clip-path="url(#SVGID_2_)" fill="#910023" points="889.235,87.557 904.229,33.657 915.989,33.657 894.135,104.413 
		881.983,104.413 867.186,56.491 853.759,104.413 841.607,104.413 817.793,33.657 831.709,33.657 848.565,87.165 863.167,33.657 
		872.478,33.657 	"/>
	<path clip-path="url(#SVGID_2_)" fill="#910023" d="M938.725,95.005c0-2.156,0.393-4.214,1.177-6.174
		c0.783-1.96,1.877-3.756,3.282-5.39c1.404-1.632,3.087-3.053,5.048-4.263c1.96-1.208,4.115-2.139,6.468-2.793v-4.998h-31.458
		V60.901h76.538v10.486h-32.635v4.606c2.549,0.524,4.9,1.372,7.057,2.548c2.156,1.176,4.018,2.597,5.585,4.263
		c1.569,1.666,2.793,3.528,3.676,5.586c0.882,2.058,1.323,4.263,1.323,6.615c0,2.744-0.588,5.292-1.765,7.644
		c-1.176,2.352-2.81,4.41-4.9,6.174c-2.091,1.764-4.542,3.151-7.35,4.165c-2.81,1.012-5.816,1.519-9.016,1.519
		c-3.268,0-6.289-0.507-9.064-1.519c-2.778-1.014-5.211-2.401-7.302-4.165c-2.092-1.764-3.725-3.822-4.899-6.174
		C939.313,100.297,938.725,97.749,938.725,95.005 M931.08,30.129h60.663v9.604h-22.736l-0.294,0.49
		c1.502,2.288,4.409,4.035,8.722,5.243c4.312,1.21,9.931,1.977,16.855,2.303l-2.939,9.408c-13.264-0.914-23.26-3.788-29.987-8.624
		c-6.6,4.836-16.563,7.71-29.891,8.624l-2.939-9.408c6.923-0.326,12.527-1.093,16.807-2.303c4.278-1.208,7.17-2.955,8.673-5.243
		l-0.195-0.49H931.08V30.129z M950.975,95.005c0,2.744,1.013,4.981,3.038,6.713c2.023,1.73,4.606,2.597,7.742,2.597
		s5.716-0.867,7.741-2.597c2.025-1.732,3.039-3.969,3.039-6.713s-1.014-4.981-3.039-6.713c-2.025-1.73-4.605-2.597-7.741-2.597
		s-5.719,0.867-7.742,2.597C951.987,90.024,950.975,92.261,950.975,95.005"/>
	<path clip-path="url(#SVGID_2_)" fill="#910023" d="M1037.998,57.862c-0.653,1.046-1.765,2.386-3.332,4.018
		c-1.567,1.634-3.659,3.104-6.271,4.411c-1.504,0.784-3.202,1.486-5.097,2.107c-1.896,0.621-3.92,1.028-6.075,1.225l-4.215-9.212
		c1.765-0.392,3.479-0.931,5.146-1.617s3.151-1.421,4.459-2.206c1.895-1.175,3.43-2.433,4.605-3.772
		c1.177-1.339,2.107-2.826,2.793-4.459c0.686-1.633,1.143-3.431,1.372-5.391c0.228-1.96,0.344-4.18,0.344-6.663v-4.704h12.25v4.9
		c0,2.287,0.081,4.345,0.245,6.173c0.162,1.831,0.553,3.529,1.176,5.097c0.62,1.567,1.519,3.038,2.694,4.41
		c1.177,1.371,2.744,2.743,4.704,4.116c1.568,1.111,3.218,2.042,4.949,2.792c1.73,0.752,3.315,1.259,4.753,1.52l-4.508,9.211
		c-2.352-0.456-4.459-1.028-6.321-1.714c-1.861-0.686-3.513-1.454-4.949-2.304c-2.417-1.371-4.296-2.759-5.635-4.165
		C1039.745,60.232,1038.717,58.974,1037.998,57.862 M1084.254,109.607h-54.39c-1.308,0-2.386-0.147-3.234-0.441
		c-0.85-0.294-1.535-0.801-2.059-1.519c-1.175-1.176-1.763-3.268-1.763-6.272V77.07h61.445V109.607z M1072.298,87.36h-37.436v11.956
		h37.436V87.36z M1084.254,71.583h-11.956V31.109h11.956V71.583z"/>
	<path clip-path="url(#SVGID_2_)" fill="#910023" d="M1142.858,95.495c-1.438,0.458-3.251,0.899-5.439,1.323
		c-2.189,0.426-4.949,0.703-8.281,0.833c-2.092,0.132-4.214,0.213-6.369,0.245c-2.156,0.034-4.149,0.049-5.979,0.049h-3.185
		c-1.015,0-2.009-0.033-2.989-0.098c-0.066,0-0.524-0.098-1.372-0.294c-0.85-0.196-1.798-0.621-2.842-1.274
		c-1.046-0.653-1.993-1.633-2.842-2.94c-0.85-1.306-1.308-3.038-1.372-5.194V31.599h30.478v10.29h-18.228v45.472h16.17
		c0.718,0,1.421-0.015,2.106-0.049c0.687-0.032,1.388-0.081,2.107-0.147c1.24-0.13,2.563-0.326,3.969-0.588
		c1.404-0.26,2.759-0.686,4.067-1.274V31.109h11.27v27.734h7.742V31.109h10.977v77.812h-10.977V69.525h-7.742v39.396h-11.27V95.495z
		"/>
	<path clip-path="url(#SVGID_2_)" fill="#910023" d="M1221.062,32.677h19.502v9.996h-7.252c2.285,3.268,3.43,6.762,3.43,10.486
		c0,2.81-0.572,5.456-1.715,7.938c-1.145,2.484-2.68,4.655-4.605,6.517c-1.928,1.862-4.199,3.332-6.812,4.41
		c-2.613,1.078-5.39,1.617-8.33,1.617s-5.732-0.554-8.379-1.666c-2.646-1.11-4.949-2.597-6.909-4.459
		c-1.96-1.862-3.527-4.033-4.703-6.517c-1.177-2.482-1.765-5.096-1.765-7.84c0-1.894,0.31-3.707,0.932-5.439
		c0.62-1.73,1.484-3.413,2.596-5.047h-8.036v-9.996h20.286v-7.546h11.761V32.677z M1258.693,79.619v29.988h-12.25V89.615h-50.273
		v-9.996H1258.693z M1225.569,53.649c0-1.436-0.278-2.776-0.833-4.018c-0.556-1.24-1.308-2.335-2.254-3.283
		c-0.947-0.946-2.043-1.681-3.283-2.205c-1.241-0.522-2.548-0.784-3.92-0.784s-2.681,0.262-3.92,0.784
		c-1.241,0.524-2.319,1.259-3.233,2.205c-0.916,0.948-1.652,2.043-2.205,3.283c-0.556,1.242-0.833,2.582-0.833,4.018
		c0,1.372,0.277,2.663,0.833,3.871c0.553,1.21,1.289,2.271,2.205,3.185c0.914,0.916,1.992,1.634,3.233,2.156
		c1.239,0.524,2.548,0.784,3.92,0.784s2.679-0.26,3.92-0.784c1.24-0.522,2.336-1.24,3.283-2.156
		c0.946-0.914,1.698-1.975,2.254-3.185C1225.291,56.312,1225.569,55.021,1225.569,53.649 M1258.693,31.109v17.248h8.036v10.486
		h-8.036v16.268h-11.956V31.109H1258.693z"/>
	<path clip-path="url(#SVGID_2_)" fill="#910023" d="M1289.464,89.125c-1.698,1.372-3.625,2.631-5.781,3.773
		c-2.156,1.144-4.084,2.042-5.782,2.695l-4.214-9.408c3.396-1.503,6.337-3.413,8.82-5.733c2.482-2.318,4.508-4.883,6.075-7.693
		c0.719-1.241,1.373-2.629,1.96-4.165c0.588-1.535,1.094-3.381,1.52-5.537c0.425-2.156,0.751-4.719,0.979-7.693
		c0.229-2.973,0.344-6.582,0.344-10.829V31.893h12.739v12.642c0,4.247,0.099,7.825,0.294,10.731c0.197,2.908,0.456,5.39,0.785,7.448
		c0.326,2.058,0.734,3.79,1.225,5.194c0.489,1.405,1.028,2.695,1.616,3.871c1.699,3.332,3.823,6.272,6.37,8.82
		c2.548,2.548,5.325,4.378,8.331,5.488l-4.117,9.212c-1.895-0.588-3.968-1.47-6.222-2.646c-2.255-1.176-4.2-2.45-5.831-3.822
		c-0.916-0.848-1.765-1.681-2.549-2.499c-0.783-0.817-1.535-1.681-2.254-2.597c-0.72-0.914-1.438-1.96-2.155-3.136
		c-0.72-1.176-1.471-2.58-2.254-4.214c-1.309,2.94-2.762,5.375-4.362,7.301C1293.4,85.614,1291.555,87.427,1289.464,89.125
		 M1345.227,59.137h9.311v10.78h-9.311v39.004h-11.956V31.109h11.956V59.137z"/>
	<path clip-path="url(#SVGID_2_)" fill="#910023" d="M1365.512,50.611c0-2.808,0.571-5.439,1.716-7.889
		c1.141-2.45,2.694-4.589,4.654-6.419c1.96-1.828,4.246-3.266,6.859-4.312c2.613-1.044,5.422-1.568,8.429-1.568
		c3.005,0,5.814,0.524,8.428,1.568c2.612,1.046,4.899,2.484,6.86,4.312c1.959,1.83,3.511,3.969,4.655,6.419
		c1.142,2.45,1.714,5.081,1.714,7.889c0,2.81-0.572,5.439-1.714,7.889c-1.145,2.45-2.696,4.591-4.655,6.419
		c-1.961,1.83-4.248,3.268-6.86,4.312c-2.613,1.046-5.423,1.568-8.428,1.568c-3.007,0-5.815-0.522-8.429-1.568
		c-2.613-1.044-4.899-2.482-6.859-4.312c-1.96-1.828-3.514-3.969-4.654-6.419C1366.083,56.05,1365.512,53.421,1365.512,50.611
		 M1437.052,109.803h-55.174c-1.111,0-2.093-0.147-2.939-0.441c-0.851-0.294-1.536-0.833-2.059-1.617
		c-1.177-1.046-1.764-3.202-1.764-6.468V76.091h12.25v6.958h37.436v-6.958h12.25V109.803z M1377.566,50.709
		c0,3.006,0.914,5.473,2.743,7.399c1.829,1.928,4.116,2.891,6.86,2.891c2.743,0,5.029-0.963,6.86-2.891
		c1.828-1.926,2.744-4.393,2.744-7.399c0-3.004-0.916-5.471-2.744-7.399c-1.831-1.926-4.117-2.891-6.86-2.891
		c-2.744,0-5.031,0.965-6.86,2.891C1378.48,45.238,1377.566,47.705,1377.566,50.709 M1424.802,93.535h-37.437v5.978h37.437V93.535z
		 M1425.096,31.109h11.956v40.474h-11.956V56.785h-11.073v-10.29h11.073V31.109z"/>
	<path clip-path="url(#SVGID_2_)" fill="#910023" d="M1522.898,47.377h8.037v10.78h-8.037v26.754h-11.956V70.015
		c-1.437,0.523-3.218,0.98-5.34,1.372c-2.124,0.392-4.788,0.654-7.988,0.784c-1.371,0.066-3.135,0.115-5.291,0.147
		c-2.156,0.033-4.459,0.066-6.909,0.098c-2.45,0.034-4.917,0.034-7.398,0c-2.485-0.032-4.722-0.049-6.713-0.049h-4.901h-2.008
		c-1.634-0.326-3.006-0.849-4.117-1.568c-1.046-0.718-1.994-1.73-2.841-3.038c-0.851-1.307-1.274-3.102-1.274-5.39V32.677h39.984
		v10.29h-27.734v18.62h30.674c1.109,0,2.76-0.032,4.949-0.098c2.188-0.064,4.49-0.588,6.908-1.568V31.109h11.956V47.377z
		 M1472.919,99.121h49.979v10.192h-54.978c-2.287,0-4.019-0.654-5.193-1.96c-1.176-1.372-1.765-3.366-1.765-5.978V81.579h11.956
		V99.121z"/>
	<polygon clip-path="url(#SVGID_2_)" fill="#910023" points="330.379,154.698 338.544,154.698 338.544,205.747 329.811,205.747 
		302.617,167.548 302.617,205.675 294.524,205.675 294.524,154.698 303.611,154.698 330.379,192.115 	"/>
	<path clip-path="url(#SVGID_2_)" fill="#910023" d="M351.394,170.175c1.608-0.426,3.383-0.769,5.325-1.029
		c1.94-0.26,3.809-0.391,5.609-0.391c1.987,0,3.928,0.19,5.821,0.568c1.893,0.38,3.562,1.018,5.006,1.917
		c1.444,0.899,2.615,2.106,3.515,3.621c0.898,1.516,1.349,3.385,1.349,5.608v14.839c0,2.084,0.224,3.988,0.674,5.715
		c0.45,1.729,1.005,3.35,1.668,4.864h-9.229c-0.332-0.567-0.593-1.113-0.781-1.633c-1.516,0.71-3.136,1.254-4.864,1.633
		s-3.373,0.568-4.934,0.568c-1.8,0-3.575-0.261-5.326-0.781s-3.313-1.278-4.685-2.271c-1.374-0.994-2.475-2.213-3.302-3.656
		c-0.829-1.444-1.242-3.089-1.242-4.936c0-2.84,0.733-5.135,2.201-6.887c1.466-1.751,3.348-3.099,5.644-4.047
		c2.296-0.946,4.816-1.585,7.561-1.917c2.745-0.331,5.397-0.497,7.952-0.497v-2.059c0-0.71-0.201-1.313-0.603-1.811
		s-0.935-0.898-1.598-1.207c-0.663-0.308-1.431-0.521-2.306-0.639c-0.877-0.118-1.765-0.178-2.664-0.178
		c-0.994,0-2.035,0.06-3.124,0.178c-1.088,0.118-2.129,0.272-3.124,0.461c-0.994,0.189-1.88,0.379-2.662,0.568
		c-0.781,0.189-1.384,0.354-1.81,0.496L351.394,170.175z M354.873,194.315c0,1.563,0.604,2.841,1.811,3.834
		c1.207,0.994,2.946,1.491,5.217,1.491c1.373,0,2.757-0.178,4.155-0.533c1.395-0.354,2.496-0.792,3.3-1.313v-10.153
		c-2.745-0.094-5.041,0.025-6.886,0.355c-1.846,0.332-3.337,0.805-4.473,1.42c-1.137,0.616-1.941,1.349-2.414,2.201
		C355.109,192.469,354.873,193.37,354.873,194.315"/>
	<path clip-path="url(#SVGID_2_)" fill="#910023" d="M391.438,157.538h8.662v12.07h9.514v6.887H400.1v16.827
		c0,1.799,0.413,3.255,1.242,4.366c0.827,1.112,2.071,1.669,3.728,1.669h5.041v6.674c-1.988,0.284-3.787,0.426-5.397,0.426
		c-2.367,0-4.39-0.354-6.07-1.065c-1.681-0.71-3.053-1.692-4.118-2.945c-1.065-1.254-1.846-2.71-2.343-4.367
		c-0.497-1.656-0.745-3.455-0.745-5.396v-16.188h-6.461v-6.887h6.461V157.538z"/>
	<path clip-path="url(#SVGID_2_)" fill="#910023" d="M426.652,163.786h-9.371v-9.088h9.371V163.786z M426.298,205.675h-8.662
		v-36.068h8.662V205.675z"/>
	<path clip-path="url(#SVGID_2_)" fill="#910023" d="M435.244,187.641c0-2.649,0.519-5.122,1.561-7.419
		c1.041-2.296,2.473-4.296,4.296-6c1.821-1.703,3.94-3.041,6.354-4.012c2.415-0.969,4.994-1.455,7.74-1.455
		c2.792,0,5.406,0.486,7.844,1.455c2.438,0.971,4.568,2.309,6.391,4.012c1.821,1.704,3.266,3.704,4.331,6
		c1.065,2.297,1.597,4.77,1.597,7.419c0,2.651-0.532,5.124-1.597,7.42c-1.065,2.297-2.51,4.296-4.331,6
		c-1.823,1.703-3.953,3.041-6.391,4.012c-2.438,0.969-5.052,1.455-7.844,1.455c-2.746,0-5.325-0.486-7.74-1.455
		c-2.414-0.971-4.533-2.309-6.354-4.012c-1.823-1.704-3.255-3.703-4.296-6C435.763,192.765,435.244,190.292,435.244,187.641
		 M443.976,187.287c0,1.657,0.295,3.219,0.888,4.686c0.591,1.469,1.408,2.746,2.449,3.834c1.041,1.09,2.237,1.966,3.586,2.627
		c1.348,0.664,2.78,0.994,4.296,0.994c1.561,0,3.016-0.283,4.366-0.852c1.349-0.568,2.544-1.349,3.585-2.343s1.857-2.189,2.45-3.586
		c0.591-1.396,0.887-2.923,0.887-4.579s-0.296-3.231-0.887-4.722c-0.593-1.491-1.409-2.793-2.45-3.905
		c-1.041-1.111-2.236-1.999-3.585-2.662c-1.35-0.662-2.805-0.994-4.366-0.994c-1.516,0-2.948,0.284-4.296,0.852
		c-1.349,0.568-2.545,1.361-3.586,2.379c-1.041,1.019-1.858,2.236-2.449,3.656C444.271,184.091,443.976,185.63,443.976,187.287"/>
	<path clip-path="url(#SVGID_2_)" fill="#910023" d="M491.403,172.802c1.183-1.373,2.687-2.39,4.509-3.053
		c1.821-0.662,3.892-0.994,6.213-0.994c1.892,0,3.632,0.296,5.217,0.888c1.586,0.593,2.948,1.468,4.083,2.627
		c1.136,1.16,2.024,2.627,2.663,4.401c0.639,1.776,0.959,3.87,0.959,6.284v22.72h-8.663v-19.524c0-3.408-0.592-5.988-1.775-7.739
		c-1.184-1.751-3.124-2.627-5.821-2.627c-2.178,0-3.941,0.852-5.29,2.556c-1.349,1.704-2.024,4.309-2.024,7.811v19.524h-8.662
		v-36.067h8.591V172.802z"/>
	<path clip-path="url(#SVGID_2_)" fill="#910023" d="M527.898,170.175c1.608-0.426,3.383-0.769,5.325-1.029
		c1.94-0.26,3.809-0.391,5.609-0.391c1.987,0,3.928,0.19,5.821,0.568c1.893,0.38,3.562,1.018,5.006,1.917
		c1.444,0.899,2.615,2.106,3.515,3.621c0.898,1.516,1.349,3.385,1.349,5.608v14.839c0,2.084,0.224,3.988,0.674,5.715
		c0.45,1.729,1.005,3.35,1.668,4.864h-9.229c-0.332-0.567-0.593-1.113-0.781-1.633c-1.516,0.71-3.136,1.254-4.864,1.633
		s-3.373,0.568-4.934,0.568c-1.8,0-3.575-0.261-5.326-0.781s-3.313-1.278-4.685-2.271c-1.374-0.994-2.475-2.213-3.302-3.656
		c-0.829-1.444-1.242-3.089-1.242-4.936c0-2.84,0.733-5.135,2.201-6.887c1.466-1.751,3.348-3.099,5.644-4.047
		c2.296-0.946,4.816-1.585,7.561-1.917c2.745-0.331,5.397-0.497,7.952-0.497v-2.059c0-0.71-0.201-1.313-0.603-1.811
		c-0.402-0.497-0.935-0.898-1.598-1.207c-0.663-0.308-1.431-0.521-2.306-0.639c-0.877-0.118-1.765-0.178-2.664-0.178
		c-0.994,0-2.035,0.06-3.124,0.178c-1.088,0.118-2.129,0.272-3.124,0.461c-0.994,0.189-1.88,0.379-2.662,0.568
		c-0.781,0.189-1.384,0.354-1.81,0.496L527.898,170.175z M531.377,194.315c0,1.563,0.604,2.841,1.811,3.834
		c1.207,0.994,2.946,1.491,5.217,1.491c1.373,0,2.757-0.178,4.155-0.533c1.395-0.354,2.496-0.792,3.3-1.313v-10.153
		c-2.745-0.094-5.041,0.025-6.886,0.355c-1.846,0.332-3.337,0.805-4.473,1.42c-1.137,0.616-1.941,1.349-2.414,2.201
		C531.613,192.469,531.377,193.37,531.377,194.315"/>
	<rect x="565.455" y="154.698" clip-path="url(#SVGID_2_)" fill="#910023" width="8.662" height="50.978"/>
	<path clip-path="url(#SVGID_2_)" fill="#910023" d="M629.923,206.527c-3.739,0-7.242-0.674-10.508-2.022
		c-3.265-1.35-6.118-3.207-8.555-5.574c-2.439-2.366-4.367-5.158-5.787-8.378c-1.42-3.218-2.129-6.674-2.129-10.366
		c0-3.691,0.709-7.135,2.129-10.33c1.42-3.194,3.348-5.987,5.787-8.378c2.437-2.39,5.29-4.26,8.555-5.608
		c3.266-1.35,6.769-2.024,10.508-2.024c5.964,0,11.265,1.018,15.904,3.053v9.018c-2.13-1.515-4.426-2.662-6.886-3.443
		c-2.462-0.781-4.971-1.172-7.527-1.172c-2.51,0-4.924,0.38-7.242,1.136c-2.319,0.758-4.379,1.895-6.177,3.408
		c-1.8,1.516-3.243,3.42-4.331,5.716c-1.09,2.296-1.633,4.959-1.633,7.987c0,3.313,0.58,6.188,1.74,8.627
		c1.159,2.438,2.698,4.473,4.615,6.105c1.917,1.634,4.118,2.853,6.602,3.656c2.486,0.807,5.053,1.207,7.705,1.207
		c2.459,0,4.898-0.33,7.312-0.994c2.414-0.662,4.687-1.679,6.816-3.053v8.094c-2.414,1.231-5.017,2.096-7.81,2.593
		C636.218,206.279,633.19,206.527,629.923,206.527"/>
	<path clip-path="url(#SVGID_2_)" fill="#910023" d="M653.211,187.642c0-2.651,0.449-5.123,1.348-7.42
		c0.899-2.295,2.166-4.295,3.799-5.999c1.633-1.704,3.585-3.041,5.858-4.013c2.271-0.969,4.78-1.455,7.525-1.455
		c2.65,0,5.147,0.45,7.491,1.35c2.343,0.899,4.377,2.261,6.106,4.082c1.727,1.823,3.064,4.071,4.011,6.745
		c0.947,2.675,1.325,5.787,1.136,9.337H662.44c0.331,1.704,0.911,3.147,1.739,4.331c0.829,1.183,1.799,2.153,2.912,2.911
		c1.112,0.757,2.343,1.302,3.692,1.633s2.733,0.497,4.153,0.497c2.603,0,5.206-0.462,7.811-1.386
		c2.602-0.923,4.803-2.141,6.602-3.655l-0.071,8.307c-2.13,1.183-4.426,2.07-6.887,2.662c-2.462,0.591-4.946,0.888-7.455,0.888
		c-2.793,0-5.491-0.38-8.093-1.136c-2.604-0.758-4.912-1.906-6.923-3.444c-2.012-1.537-3.633-3.489-4.864-5.856
		C653.825,193.654,653.211,190.861,653.211,187.642 M671.741,175.572c-2.556,0-4.65,0.781-6.283,2.343
		c-1.633,1.563-2.71,3.621-3.231,6.177h18.886c-0.567-2.461-1.657-4.496-3.266-6.105S674.202,175.572,671.741,175.572"/>
	<path clip-path="url(#SVGID_2_)" fill="#910023" d="M706.602,172.802c1.183-1.373,2.687-2.39,4.509-3.053
		c1.821-0.662,3.892-0.994,6.213-0.994c1.892,0,3.632,0.296,5.217,0.888c1.586,0.593,2.948,1.468,4.083,2.627
		c1.136,1.16,2.024,2.627,2.663,4.401c0.639,1.776,0.959,3.87,0.959,6.284v22.72h-8.663v-19.524c0-3.408-0.592-5.988-1.775-7.739
		c-1.184-1.751-3.124-2.627-5.821-2.627c-2.178,0-3.941,0.852-5.29,2.556c-1.349,1.704-2.024,4.309-2.024,7.811v19.524h-8.662
		v-36.067h8.591V172.802z"/>
	<path clip-path="url(#SVGID_2_)" fill="#910023" d="M742.741,157.538h8.662v12.07h9.514v6.887h-9.514v16.827
		c0,1.799,0.413,3.255,1.242,4.366c0.827,1.112,2.071,1.669,3.728,1.669h5.041v6.674c-1.988,0.284-3.787,0.426-5.397,0.426
		c-2.367,0-4.39-0.354-6.07-1.065c-1.681-0.71-3.053-1.692-4.118-2.945c-1.065-1.254-1.846-2.71-2.343-4.367
		c-0.497-1.656-0.745-3.455-0.745-5.396v-16.188h-6.461v-6.887h6.461V157.538z"/>
	<path clip-path="url(#SVGID_2_)" fill="#910023" d="M766.383,187.642c0-2.651,0.449-5.123,1.349-7.42
		c0.898-2.295,2.166-4.295,3.799-5.999s3.585-3.041,5.857-4.013c2.271-0.969,4.78-1.455,7.525-1.455c2.65,0,5.146,0.45,7.491,1.35
		c2.343,0.899,4.377,2.261,6.105,4.082c1.728,1.823,3.064,4.071,4.011,6.745c0.947,2.675,1.325,5.787,1.137,9.337h-28.045
		c0.331,1.704,0.911,3.147,1.738,4.331c0.829,1.183,1.8,2.153,2.912,2.911c1.112,0.757,2.344,1.302,3.692,1.633
		s2.733,0.497,4.153,0.497c2.603,0,5.205-0.462,7.811-1.386c2.602-0.923,4.803-2.141,6.602-3.655l-0.07,8.307
		c-2.13,1.183-4.426,2.07-6.887,2.662c-2.463,0.591-4.946,0.888-7.455,0.888c-2.793,0-5.491-0.38-8.094-1.136
		c-2.604-0.758-4.912-1.906-6.923-3.444c-2.012-1.537-3.633-3.489-4.864-5.856C766.997,193.654,766.383,190.861,766.383,187.642
		 M784.913,175.572c-2.556,0-4.65,0.781-6.283,2.343c-1.633,1.563-2.71,3.621-3.23,6.177h18.886
		c-0.567-2.461-1.657-4.496-3.267-6.105C789.41,176.376,787.374,175.572,784.913,175.572"/>
	<path clip-path="url(#SVGID_2_)" fill="#910023" d="M819.774,172.802c2.414-2.744,6.224-4.094,11.432-4.047v7.242
		c-2.226-0.188-4.071-0.082-5.538,0.319c-1.468,0.402-2.627,1.054-3.479,1.953s-1.455,2.022-1.811,3.372
		c-0.354,1.349-0.532,2.899-0.532,4.65v19.383h-8.662v-36.067h8.591V172.802z"/>
	<path clip-path="url(#SVGID_2_)" fill="#910023" d="M855.346,187.641c0-2.649,0.52-5.122,1.562-7.419
		c1.041-2.296,2.473-4.296,4.296-6c1.821-1.703,3.939-3.041,6.354-4.012c2.415-0.969,4.994-1.455,7.74-1.455
		c2.792,0,5.406,0.486,7.844,1.455c2.438,0.971,4.568,2.309,6.392,4.012c1.82,1.704,3.266,3.704,4.331,6
		c1.064,2.297,1.597,4.77,1.597,7.419c0,2.651-0.532,5.124-1.597,7.42c-1.065,2.297-2.511,4.296-4.331,6
		c-1.823,1.703-3.953,3.041-6.392,4.012c-2.438,0.969-5.052,1.455-7.844,1.455c-2.746,0-5.325-0.486-7.74-1.455
		c-2.414-0.971-4.532-2.309-6.354-4.012c-1.823-1.704-3.255-3.703-4.296-6C855.865,192.765,855.346,190.292,855.346,187.641
		 M864.078,187.287c0,1.657,0.295,3.219,0.888,4.686c0.591,1.469,1.408,2.746,2.449,3.834c1.041,1.09,2.237,1.966,3.586,2.627
		c1.348,0.664,2.78,0.994,4.296,0.994c1.562,0,3.017-0.283,4.366-0.852c1.349-0.568,2.544-1.349,3.585-2.343s1.857-2.189,2.45-3.586
		c0.591-1.396,0.887-2.923,0.887-4.579s-0.296-3.231-0.887-4.722c-0.593-1.491-1.409-2.793-2.45-3.905
		c-1.041-1.111-2.236-1.999-3.585-2.662c-1.35-0.662-2.805-0.994-4.366-0.994c-1.516,0-2.948,0.284-4.296,0.852
		c-1.349,0.568-2.545,1.361-3.586,2.379c-1.041,1.019-1.858,2.236-2.449,3.656C864.373,184.091,864.078,185.63,864.078,187.287"/>
	<path clip-path="url(#SVGID_2_)" fill="#910023" d="M907.602,168.33c0-1.893,0.236-3.68,0.71-5.36
		c0.473-1.68,1.277-3.147,2.414-4.402c1.136-1.253,2.627-2.236,4.473-2.946s4.165-1.065,6.958-1.065
		c1.608,0,3.408,0.143,5.396,0.427v6.674h-6.179c-3.313,0-4.969,1.823-4.969,5.467v2.485h9.869v6.887h-9.869v29.181h-8.804v-29.181
		h-7.171v-6.887h7.171V168.33z"/>
	<polygon clip-path="url(#SVGID_2_)" fill="#910023" points="963.264,198.363 986.979,198.363 986.979,205.675 954.176,205.675 
		954.176,154.698 983.783,154.698 983.783,162.011 963.264,162.011 963.264,174.72 980.091,174.72 980.091,182.317 963.264,182.317 
			"/>
	<path clip-path="url(#SVGID_2_)" fill="#910023" d="M1021.2,198.433c0.852,1.374,1.786,2.663,2.804,3.87
		c1.017,1.207,2.094,2.33,3.231,3.372h-8.096c-2.318,0-4-0.852-5.041-2.556l-6.176-9.94l-8.591,12.496h-8.804l13.632-18.886
		l-0.144-0.284l-10.72-16.897h10.295l5.894,9.727l6.815-9.727h8.662l-11.786,16.188l0.143,0.143L1021.2,198.433z"/>
	<path clip-path="url(#SVGID_2_)" fill="#910023" d="M1050.593,206.527c-2.651,0-5.147-0.485-7.49-1.454
		c-2.343-0.972-4.391-2.309-6.142-4.013c-1.752-1.704-3.137-3.703-4.153-5.999c-1.02-2.296-1.527-4.768-1.527-7.42
		c0-2.649,0.508-5.123,1.527-7.419c1.017-2.296,2.401-4.296,4.153-6c1.751-1.704,3.799-3.041,6.142-4.011s4.839-1.456,7.49-1.456
		c4.354,0,8.165,0.734,11.432,2.201v8.094c-1.611-1.088-3.314-1.904-5.113-2.449c-1.799-0.544-3.597-0.816-5.396-0.816
		c-1.515,0-2.971,0.225-4.366,0.675c-1.396,0.45-2.627,1.16-3.693,2.13c-1.063,0.97-1.904,2.177-2.52,3.621
		c-0.615,1.443-0.923,3.159-0.923,5.146c0,2.084,0.366,3.883,1.1,5.396c0.734,1.516,1.705,2.769,2.912,3.763s2.579,1.74,4.118,2.237
		c1.537,0.497,3.135,0.745,4.792,0.745c1.704,0,3.408-0.248,5.112-0.745s3.266-1.218,4.687-2.166v7.525
		c-1.659,0.899-3.504,1.527-5.538,1.883C1055.159,206.35,1052.959,206.527,1050.593,206.527"/>
	<path clip-path="url(#SVGID_2_)" fill="#910023" d="M1069.123,187.642c0-2.651,0.449-5.123,1.349-7.42
		c0.898-2.295,2.165-4.295,3.799-5.999c1.633-1.704,3.585-3.041,5.857-4.013c2.271-0.969,4.78-1.455,7.525-1.455
		c2.649,0,5.146,0.45,7.491,1.35c2.343,0.899,4.377,2.261,6.105,4.082c1.728,1.823,3.064,4.071,4.011,6.745
		c0.947,2.675,1.325,5.787,1.137,9.337h-28.045c0.33,1.704,0.91,3.147,1.738,4.331c0.829,1.183,1.799,2.153,2.912,2.911
		c1.112,0.757,2.344,1.302,3.692,1.633s2.732,0.497,4.153,0.497c2.603,0,5.205-0.462,7.811-1.386
		c2.602-0.923,4.803-2.141,6.602-3.655l-0.07,8.307c-2.13,1.183-4.426,2.07-6.888,2.662c-2.462,0.591-4.945,0.888-7.454,0.888
		c-2.793,0-5.491-0.38-8.094-1.136c-2.604-0.758-4.912-1.906-6.923-3.444c-2.012-1.537-3.633-3.489-4.864-5.856
		C1069.737,193.654,1069.123,190.861,1069.123,187.642 M1087.653,175.572c-2.557,0-4.65,0.781-6.283,2.343
		c-1.633,1.563-2.71,3.621-3.23,6.177h18.886c-0.567-2.461-1.657-4.496-3.267-6.105
		C1092.15,176.376,1090.114,175.572,1087.653,175.572"/>
	<rect x="1115.415" y="154.698" clip-path="url(#SVGID_2_)" fill="#910023" width="8.662" height="50.978"/>
	<rect x="1135.578" y="154.698" clip-path="url(#SVGID_2_)" fill="#910023" width="8.662" height="50.978"/>
	<path clip-path="url(#SVGID_2_)" fill="#910023" d="M1153.187,187.642c0-2.651,0.449-5.123,1.348-7.42
		c0.899-2.295,2.166-4.295,3.8-5.999c1.633-1.704,3.585-3.041,5.857-4.013c2.271-0.969,4.78-1.455,7.525-1.455
		c2.649,0,5.146,0.45,7.491,1.35c2.343,0.899,4.377,2.261,6.105,4.082c1.728,1.823,3.064,4.071,4.011,6.745
		c0.947,2.675,1.325,5.787,1.137,9.337h-28.045c0.331,1.704,0.911,3.147,1.738,4.331c0.829,1.183,1.8,2.153,2.912,2.911
		c1.112,0.757,2.343,1.302,3.692,1.633c1.349,0.331,2.732,0.497,4.152,0.497c2.604,0,5.206-0.462,7.812-1.386
		c2.602-0.923,4.803-2.141,6.602-3.655l-0.07,8.307c-2.13,1.183-4.427,2.07-6.888,2.662c-2.462,0.591-4.945,0.888-7.455,0.888
		c-2.793,0-5.49-0.38-8.093-1.136c-2.604-0.758-4.912-1.906-6.923-3.444c-2.012-1.537-3.633-3.489-4.864-5.856
		C1153.801,193.654,1153.187,190.861,1153.187,187.642 M1171.717,175.572c-2.556,0-4.65,0.781-6.283,2.343
		c-1.633,1.563-2.71,3.621-3.231,6.177h18.887c-0.567-2.461-1.657-4.496-3.267-6.105
		C1176.214,176.376,1174.178,175.572,1171.717,175.572"/>
	<path clip-path="url(#SVGID_2_)" fill="#910023" d="M1206.578,172.802c1.183-1.373,2.687-2.39,4.509-3.053
		c1.821-0.662,3.892-0.994,6.213-0.994c1.893,0,3.632,0.296,5.217,0.888c1.586,0.593,2.948,1.468,4.083,2.627
		c1.137,1.16,2.024,2.627,2.663,4.401c0.64,1.776,0.959,3.87,0.959,6.284v22.72h-8.663v-19.524c0-3.408-0.592-5.988-1.774-7.739
		c-1.185-1.751-3.124-2.627-5.821-2.627c-2.178,0-3.94,0.852-5.29,2.556c-1.349,1.704-2.023,4.309-2.023,7.811v19.524h-8.662
		v-36.067h8.591V172.802z"/>
	<path clip-path="url(#SVGID_2_)" fill="#910023" d="M1256.987,206.527c-2.651,0-5.147-0.485-7.49-1.454
		c-2.343-0.972-4.391-2.309-6.142-4.013c-1.752-1.704-3.137-3.703-4.153-5.999c-1.02-2.296-1.527-4.768-1.527-7.42
		c0-2.649,0.508-5.123,1.527-7.419c1.017-2.296,2.401-4.296,4.153-6c1.751-1.704,3.799-3.041,6.142-4.011s4.839-1.456,7.49-1.456
		c4.354,0,8.165,0.734,11.432,2.201v8.094c-1.611-1.088-3.314-1.904-5.113-2.449c-1.799-0.544-3.597-0.816-5.396-0.816
		c-1.515,0-2.971,0.225-4.366,0.675c-1.396,0.45-2.627,1.16-3.693,2.13c-1.063,0.97-1.904,2.177-2.52,3.621
		c-0.615,1.443-0.923,3.159-0.923,5.146c0,2.084,0.366,3.883,1.1,5.396c0.734,1.516,1.705,2.769,2.912,3.763s2.579,1.74,4.118,2.237
		c1.537,0.497,3.135,0.745,4.792,0.745c1.704,0,3.408-0.248,5.112-0.745s3.266-1.218,4.687-2.166v7.525
		c-1.659,0.899-3.504,1.527-5.538,1.883C1261.554,206.35,1259.354,206.527,1256.987,206.527"/>
	<path clip-path="url(#SVGID_2_)" fill="#910023" d="M1275.518,187.642c0-2.651,0.449-5.123,1.349-7.42
		c0.898-2.295,2.165-4.295,3.799-5.999c1.633-1.704,3.585-3.041,5.857-4.013c2.271-0.969,4.78-1.455,7.525-1.455
		c2.649,0,5.146,0.45,7.491,1.35c2.343,0.899,4.377,2.261,6.105,4.082c1.728,1.823,3.064,4.071,4.011,6.745
		c0.947,2.675,1.325,5.787,1.137,9.337h-28.045c0.33,1.704,0.91,3.147,1.738,4.331c0.829,1.183,1.799,2.153,2.912,2.911
		c1.112,0.757,2.344,1.302,3.692,1.633s2.732,0.497,4.153,0.497c2.603,0,5.205-0.462,7.811-1.386
		c2.602-0.923,4.803-2.141,6.602-3.655l-0.07,8.307c-2.13,1.183-4.426,2.07-6.888,2.662c-2.462,0.591-4.945,0.888-7.454,0.888
		c-2.793,0-5.491-0.38-8.094-1.136c-2.604-0.758-4.912-1.906-6.923-3.444c-2.012-1.537-3.633-3.489-4.864-5.856
		C1276.132,193.654,1275.518,190.861,1275.518,187.642 M1294.048,175.572c-2.557,0-4.65,0.781-6.283,2.343
		c-1.633,1.563-2.71,3.621-3.23,6.177h18.886c-0.567-2.461-1.657-4.496-3.267-6.105
		C1298.545,176.376,1296.509,175.572,1294.048,175.572"/>
	<path clip-path="url(#SVGID_2_)" fill="#910023" d="M1350.706,163.786h-9.371v-9.088h9.371V163.786z M1350.352,205.675h-8.662
		v-36.068h8.662V205.675z"/>
	<path clip-path="url(#SVGID_2_)" fill="#910023" d="M1368.953,172.802c1.183-1.373,2.687-2.39,4.509-3.053
		c1.821-0.662,3.892-0.994,6.213-0.994c1.893,0,3.632,0.296,5.217,0.888c1.586,0.593,2.948,1.468,4.083,2.627
		c1.137,1.16,2.024,2.627,2.663,4.401c0.64,1.776,0.959,3.87,0.959,6.284v22.72h-8.663v-19.524c0-3.408-0.592-5.988-1.774-7.739
		c-1.185-1.751-3.124-2.627-5.821-2.627c-2.178,0-3.94,0.852-5.29,2.556c-1.349,1.704-2.023,4.309-2.023,7.811v19.524h-8.662
		v-36.067h8.591V172.802z"/>
	<path clip-path="url(#SVGID_2_)" fill="#910023" d="M1435.124,206.527c-2.414,0-4.828-0.225-7.241-0.674
		c-2.414-0.451-5.137-1.22-8.165-2.308l0.141-9.088c0.662,0.664,1.563,1.277,2.699,1.846c1.135,0.568,2.414,1.054,3.834,1.456
		s2.911,0.722,4.473,0.958c1.563,0.238,3.1,0.355,4.614,0.355c1.468,0,2.888-0.117,4.261-0.355c1.371-0.236,2.578-0.614,3.621-1.136
		c1.041-0.521,1.868-1.183,2.485-1.988c0.614-0.804,0.923-1.775,0.923-2.911c0-1.278-0.557-2.602-1.669-3.976
		c-1.112-1.372-2.875-2.627-5.289-3.764l-10.011-4.827c-3.267-1.563-5.693-3.49-7.279-5.786c-1.585-2.296-2.377-4.626-2.377-6.994
		c0-1.75,0.426-3.432,1.277-5.041c0.852-1.608,2.095-3.04,3.727-4.295c1.635-1.254,3.668-2.26,6.107-3.019
		c2.438-0.756,5.242-1.136,8.413-1.136c3.977,0,7.882,0.593,11.716,1.775v9.585c-0.475-0.615-1.148-1.159-2.025-1.633
		c-0.876-0.473-1.881-0.875-3.016-1.207c-1.137-0.33-2.332-0.592-3.586-0.781c-1.255-0.188-2.521-0.284-3.799-0.284
		s-2.509,0.096-3.691,0.284c-1.184,0.189-2.214,0.485-3.089,0.888c-0.876,0.403-1.586,0.923-2.13,1.563
		c-0.545,0.638-0.817,1.408-0.817,2.307c0,1.278,0.485,2.521,1.456,3.727c0.97,1.208,2.663,2.38,5.077,3.516l10.01,4.828
		c3.454,1.656,5.999,3.669,7.634,6.034c1.633,2.368,2.448,4.782,2.448,7.242c0,1.895-0.473,3.729-1.42,5.503
		c-0.946,1.775-2.307,3.361-4.083,4.758c-1.773,1.395-3.939,2.508-6.496,3.337C1441.302,206.112,1438.391,206.527,1435.124,206.527"
		/>
	<polygon clip-path="url(#SVGID_2_)" fill="#910023" points="1511.308,193.463 1522.169,154.414 1530.69,154.414 1514.857,205.675 
		1506.054,205.675 1495.331,170.957 1485.605,205.675 1476.802,205.675 1459.549,154.414 1469.631,154.414 1481.843,193.179 
		1492.421,154.414 1499.165,154.414 	"/>
</g>
</svg>
