<svg width="1440" height="1024" viewBox="0 0 1440 1024" fill="none" xmlns="http://www.w3.org/2000/svg">
<mask id="mask0_1_10" style="mask-type:alpha" maskUnits="userSpaceOnUse" x="0" y="0" width="1440" height="1024">
<rect width="1440" height="1024" fill="#221B82"/>
</mask>
<g mask="url(#mask0_1_10)">
<path d="M-125 343L668.279 -115L734.779 0.181377L-58.5 458.181L-125 343Z" fill="#F0DE4C"/>
<path d="M-99.8091 531L1184.27 1023.91L1137.08 1146.85L-147 653.936L-99.8091 531Z" fill="#F0DE4C"/>
<path d="M9.39492 626.62L-8.5259 657.133L-16.403 654.11L1.51784 623.596L9.39492 626.62ZM11.9229 648.989L4.24851 662.037L-3.5331 659.05L9.92343 636.171L17.3231 639.011L14.8685 643.218L15.139 643.322C16.4771 642.119 18.0357 641.372 19.8149 641.082C21.5982 640.78 23.3969 640.978 25.211 641.674C26.919 642.33 28.1993 643.259 29.0518 644.463C29.9044 645.667 30.3047 647.05 30.2527 648.612C30.2047 650.164 29.6673 651.802 28.6405 653.525L20.0504 668.103L12.2688 665.116L20.0019 651.962C20.7525 650.704 20.9933 649.586 20.7242 648.606C20.4698 647.62 19.7167 646.887 18.4649 646.406C17.648 646.092 16.8308 645.986 16.0134 646.086C15.2106 646.179 14.4549 646.467 13.7463 646.95C13.0482 647.437 12.4404 648.116 11.9229 648.989ZM35.9895 674.751C33.4115 673.761 31.488 672.414 30.2191 670.71C28.9607 669.01 28.3598 667.087 28.4163 664.942C28.4769 662.787 29.1979 660.544 30.5793 658.213C31.9435 655.865 33.6405 653.996 35.6702 652.609C37.7041 651.211 39.9378 650.37 42.3713 650.087C44.8048 649.804 47.3 650.153 49.8567 651.135C52.1164 652.002 53.8586 653.139 55.0833 654.547C56.3186 655.958 56.994 657.544 57.1094 659.305C57.2394 661.059 56.7764 662.883 55.7203 664.779L48.4479 661.987C48.988 660.77 49.108 659.696 48.808 658.766C48.5121 657.824 47.8177 657.144 46.725 656.725C45.802 656.37 44.8556 656.299 43.8857 656.511C42.9304 656.716 41.9929 657.209 41.0731 657.988C40.168 658.76 39.3219 659.823 38.5346 661.176C37.7474 662.529 37.2632 663.743 37.0819 664.818C36.9154 665.886 37.0261 666.786 37.4141 667.52C37.8168 668.246 38.4743 668.785 39.3867 669.135C40.1081 669.412 40.8355 669.515 41.5689 669.443C42.3023 669.372 43.0112 669.126 43.6954 668.707C44.3837 668.278 45.0201 667.682 45.6046 666.921L52.861 669.706C51.6695 671.574 50.1905 673.033 48.424 674.083C46.6722 675.127 44.7337 675.722 42.6085 675.867C40.4873 676.003 38.281 675.63 35.9895 674.751ZM62.7755 685.033C60.1976 684.043 58.2741 682.696 57.0052 680.992C55.7468 679.292 55.1426 677.362 55.1926 675.202C55.2426 673.043 55.957 670.785 57.3359 668.43C58.7107 666.085 60.4077 664.217 62.4269 662.825C64.4461 661.433 66.6651 660.599 69.0839 660.323C71.5028 660.046 73.9906 660.399 76.5473 661.38C79.1146 662.366 81.0275 663.709 82.2858 665.409C83.5548 667.113 84.1643 669.045 84.1143 671.205C84.0749 673.368 83.3638 675.633 81.9808 677.999C80.606 680.344 78.9037 682.21 76.8739 683.598C74.8482 684.975 72.6312 685.804 70.223 686.084C67.8148 686.365 65.3323 686.014 62.7755 685.033ZM65.9048 679.497C66.8596 679.863 67.8236 679.905 68.7967 679.621C69.7805 679.341 70.7298 678.787 71.6446 677.957C72.5595 677.128 73.3889 676.077 74.133 674.804C74.8689 673.553 75.3401 672.389 75.5466 671.312C75.7678 670.228 75.7105 669.3 75.3747 668.525C75.0429 667.741 74.405 667.167 73.4608 666.805C72.506 666.438 71.5347 666.4 70.5468 666.691C69.5631 666.97 68.6138 667.525 67.6989 668.354C66.7988 669.177 65.9746 670.23 65.2265 671.513C64.4906 672.764 64.0141 673.927 63.7969 675C63.5798 676.073 63.6424 677.003 63.9848 677.792C64.3312 678.57 64.9712 679.138 65.9048 679.497ZM85.4558 704.311C83.1219 703.415 81.3047 702.346 80.0042 701.104C78.7037 699.862 77.8874 698.533 77.5552 697.115C77.2231 695.697 77.3457 694.284 77.9233 692.874L85.5295 695.319C85.3977 695.853 85.4143 696.364 85.5795 696.854C85.7446 697.343 86.0769 697.793 86.5765 698.204C87.072 698.626 87.7441 698.999 88.5928 699.325C89.8977 699.826 91.155 699.944 92.3648 699.678C93.5745 699.412 94.5901 698.542 95.4116 697.068L97.777 693.046L97.5064 692.942C96.7929 693.533 95.9615 693.986 95.012 694.303C94.0626 694.621 93.0294 694.76 91.9124 694.72C90.7955 694.681 89.6376 694.431 88.4388 693.971C86.6459 693.283 85.2399 692.269 84.2208 690.928C83.2058 689.577 82.7373 687.912 82.8151 685.933C82.897 683.944 83.6975 681.653 85.2166 679.059C86.7895 676.388 88.5402 674.364 90.4688 672.987C92.4015 671.598 94.3504 670.77 96.3157 670.502C98.2915 670.238 100.133 670.434 101.841 671.09C103.125 671.582 104.101 672.213 104.768 672.98C105.439 673.736 105.881 674.551 106.093 675.424C106.306 676.297 106.371 677.143 106.287 677.963L106.51 678.049L108.801 674.126L116.551 677.101L103.057 700.076C101.93 702.029 100.457 703.472 98.6386 704.405C96.8198 705.338 94.778 705.789 92.5132 705.76C90.2483 705.73 87.8959 705.247 85.4558 704.311ZM94.2099 689.687C95.154 690.049 96.1038 690.128 97.059 689.922C98.0142 689.717 98.931 689.247 99.8092 688.513C100.687 687.779 101.483 686.8 102.196 685.577C102.917 684.332 103.355 683.192 103.509 682.155C103.678 681.113 103.571 680.219 103.187 679.476C102.803 678.732 102.134 678.177 101.179 677.81C100.214 677.439 99.2524 677.375 98.2955 677.616C97.3493 677.861 96.4363 678.369 95.5565 679.139C94.6913 679.902 93.9075 680.898 93.2051 682.125C92.492 683.349 92.0464 684.462 91.8684 685.465C91.701 686.472 91.808 687.334 92.1895 688.053C92.5816 688.776 93.2551 689.32 94.2099 689.687ZM123.559 691.842L115.884 704.89L108.103 701.903L121.559 679.024L128.959 681.864L126.504 686.071L126.775 686.175C128.113 684.972 129.671 684.225 131.451 683.935C133.234 683.633 135.033 683.831 136.847 684.527C138.555 685.183 139.835 686.112 140.688 687.316C141.54 688.52 141.94 689.903 141.888 691.465C141.841 693.017 141.303 694.655 140.276 696.378L131.686 710.956L123.905 707.969L131.638 694.815C132.388 693.557 132.629 692.439 132.36 691.459C132.106 690.473 131.353 689.739 130.101 689.259C129.284 688.945 128.467 688.839 127.649 688.939C126.846 689.032 126.091 689.32 125.382 689.803C124.684 690.29 124.076 690.969 123.559 691.842ZM136.456 712.787L149.913 689.908L157.694 692.895L144.238 715.774L136.456 712.787ZM155.452 688.748C154.349 688.324 153.593 687.614 153.184 686.617C152.776 685.621 152.841 684.641 153.381 683.68C153.924 682.708 154.78 682.032 155.948 681.653C157.116 681.274 158.246 681.294 159.339 681.713C160.442 682.137 161.19 682.837 161.581 683.815C161.983 684.797 161.913 685.774 161.369 686.747C160.851 687.716 160.006 688.396 158.833 688.786C157.672 689.18 156.545 689.167 155.452 688.748ZM176.444 700.092L173.274 705.448L157.854 699.529L161.024 694.173L176.444 700.092ZM167.457 689.923L175.239 692.911L162.803 714.082C162.546 714.531 162.408 714.922 162.389 715.256C162.385 715.583 162.497 715.863 162.724 716.096C162.965 716.323 163.293 716.516 163.707 716.674C163.993 716.784 164.324 716.875 164.698 716.945C165.073 717.016 165.356 717.07 165.549 717.108L163.647 722.823C163.189 722.781 162.581 722.699 161.824 722.579C161.073 722.474 160.228 722.265 159.289 721.953C157.393 721.311 155.933 720.501 154.908 719.523C153.899 718.539 153.354 717.405 153.275 716.121C153.206 714.841 153.636 713.435 154.564 711.905L167.457 689.923ZM177.912 729.23C175.334 728.24 173.411 726.893 172.142 725.189C170.884 723.489 170.279 721.559 170.329 719.399C170.379 717.239 171.094 714.982 172.473 712.626C173.847 710.282 175.544 708.413 177.564 707.022C179.583 705.63 181.802 704.796 184.221 704.52C186.639 704.243 189.127 704.596 191.684 705.577C194.251 706.563 196.164 707.905 197.423 709.606C198.692 711.31 199.301 713.242 199.251 715.402C199.212 717.565 198.5 719.83 197.118 722.196C195.743 724.541 194.04 726.407 192.011 727.795C189.985 729.172 187.768 730 185.36 730.281C182.951 730.562 180.469 730.211 177.912 729.23ZM181.042 723.694C181.996 724.06 182.96 724.102 183.933 723.818C184.917 723.538 185.866 722.984 186.781 722.154C187.696 721.325 188.526 720.274 189.27 719.001C190.006 717.75 190.477 716.586 190.683 715.509C190.905 714.425 190.847 713.496 190.511 712.722C190.18 711.938 189.542 711.364 188.597 711.002C187.643 710.635 186.671 710.597 185.684 710.887C184.7 711.167 183.751 711.722 182.836 712.551C181.935 713.374 181.111 714.427 180.363 715.71C179.627 716.961 179.151 718.123 178.934 719.196C178.717 720.269 178.779 721.2 179.122 721.989C179.468 722.767 180.108 723.335 181.042 723.694ZM229.866 711.251L211.945 741.764L204.068 738.74L221.989 708.227L229.866 711.251ZM232.394 733.62L224.719 746.668L216.938 743.681L230.394 720.802L237.794 723.642L235.339 727.849L235.61 727.953C236.948 726.75 238.507 726.003 240.286 725.712C242.069 725.411 243.868 725.608 245.682 726.305C247.39 726.961 248.67 727.89 249.523 729.094C250.375 730.297 250.776 731.681 250.723 733.243C250.676 734.795 250.138 736.433 249.111 738.156L240.521 752.734L232.74 749.747L240.473 736.593C241.223 735.335 241.464 734.217 241.195 733.237C240.941 732.251 240.188 731.517 238.936 731.037C238.119 730.723 237.302 730.616 236.484 730.717C235.681 730.81 234.926 731.098 234.217 731.581C233.519 732.068 232.911 732.747 232.394 733.62ZM256.46 759.382C253.882 758.392 251.959 757.045 250.69 755.341C249.432 753.64 248.831 751.718 248.887 749.573C248.948 747.417 249.669 745.174 251.05 742.844C252.414 740.495 254.111 738.627 256.141 737.24C258.175 735.842 260.409 735.001 262.842 734.718C265.276 734.435 267.771 734.784 270.328 735.765C272.587 736.633 274.329 737.77 275.554 739.178C276.789 740.589 277.465 742.175 277.58 743.936C277.71 745.69 277.247 747.514 276.191 749.409L268.919 746.618C269.459 745.401 269.579 744.327 269.279 743.397C268.983 742.455 268.289 741.775 267.196 741.355C266.273 741.001 265.326 740.93 264.357 741.142C263.401 741.347 262.464 741.839 261.544 742.618C260.639 743.391 259.793 744.454 259.005 745.807C258.218 747.16 257.734 748.374 257.553 749.448C257.386 750.517 257.497 751.417 257.885 752.15C258.288 752.877 258.945 753.416 259.858 753.766C260.579 754.043 261.306 754.145 262.04 754.074C262.773 754.002 263.482 753.757 264.166 753.338C264.855 752.909 265.491 752.313 266.075 751.552L273.332 754.337C272.14 756.204 270.661 757.663 268.895 758.714C267.143 759.758 265.205 760.352 263.079 760.498C260.958 760.633 258.752 760.261 256.46 759.382ZM283.246 769.664C280.668 768.674 278.745 767.327 277.476 765.623C276.218 763.923 275.613 761.993 275.663 759.833C275.713 757.673 276.428 755.416 277.807 753.06C279.182 750.716 280.879 748.847 282.898 747.456C284.917 746.064 287.136 745.23 289.555 744.954C291.974 744.677 294.461 745.03 297.018 746.011C299.585 746.997 301.498 748.339 302.757 750.04C304.026 751.744 304.635 753.676 304.585 755.836C304.546 757.999 303.835 760.264 302.452 762.63C301.077 764.975 299.375 766.841 297.345 768.229C295.319 769.606 293.102 770.434 290.694 770.715C288.286 770.996 285.803 770.645 283.246 769.664ZM286.376 764.128C287.33 764.494 288.294 764.536 289.268 764.252C290.251 763.972 291.201 763.418 292.115 762.588C293.03 761.759 293.86 760.708 294.604 759.435C295.34 758.184 295.811 757.02 296.017 755.943C296.239 754.859 296.181 753.93 295.846 753.156C295.514 752.372 294.876 751.798 293.932 751.436C292.977 751.069 292.006 751.031 291.018 751.321C290.034 751.601 289.085 752.156 288.17 752.985C287.27 753.808 286.445 754.861 285.697 756.144C284.961 757.395 284.485 758.557 284.268 759.63C284.051 760.703 284.113 761.634 284.456 762.423C284.802 763.201 285.442 763.769 286.376 764.128ZM305.927 788.941C303.593 788.045 301.776 786.977 300.475 785.735C299.175 784.493 298.358 783.163 298.026 781.746C297.694 780.328 297.817 778.914 298.394 777.505L306 779.95C305.869 780.484 305.885 780.995 306.05 781.485C306.215 781.974 306.548 782.424 307.047 782.835C307.543 783.257 308.215 783.63 309.064 783.956C310.369 784.457 311.626 784.574 312.836 784.308C314.045 784.042 315.061 783.173 315.882 781.699L318.248 777.677L317.977 777.573C317.264 778.163 316.432 778.617 315.483 778.934C314.533 779.251 313.5 779.39 312.383 779.351C311.266 779.312 310.108 779.062 308.91 778.602C307.117 777.914 305.711 776.899 304.692 775.559C303.677 774.208 303.208 772.543 303.286 770.564C303.368 768.575 304.168 766.284 305.687 763.69C307.26 761.019 309.011 758.995 310.94 757.618C312.872 756.229 314.821 755.401 316.787 755.133C318.762 754.869 320.604 755.065 322.312 755.721C323.596 756.213 324.571 756.843 325.238 757.611C325.91 758.367 326.351 759.182 326.564 760.055C326.777 760.928 326.841 761.774 326.758 762.594L326.981 762.68L329.272 758.757L337.021 761.732L323.528 784.707C322.401 786.66 320.928 788.103 319.109 789.036C317.291 789.968 315.249 790.42 312.984 790.391C310.719 790.361 308.367 789.878 305.927 788.941ZM314.681 774.317C315.625 774.68 316.575 774.758 317.53 774.553C318.485 774.348 319.402 773.878 320.28 773.144C321.158 772.41 321.954 771.431 322.667 770.208C323.388 768.963 323.826 767.822 323.98 766.786C324.149 765.743 324.042 764.85 323.658 764.106C323.274 763.363 322.605 762.807 321.65 762.441C320.684 762.07 319.723 762.006 318.766 762.247C317.82 762.492 316.907 763 316.027 763.77C315.162 764.533 314.378 765.529 313.676 766.756C312.963 767.98 312.517 769.093 312.339 770.096C312.172 771.103 312.279 771.965 312.66 772.684C313.052 773.406 313.726 773.951 314.681 774.317ZM344.03 776.473L336.355 789.521L328.574 786.534L342.03 763.655L349.43 766.495L346.975 770.702L347.246 770.806C348.584 769.603 350.142 768.856 351.922 768.565C353.705 768.264 355.504 768.461 357.318 769.158C359.026 769.813 360.306 770.743 361.158 771.947C362.011 773.15 362.411 774.533 362.359 776.096C362.311 777.648 361.774 779.285 360.747 781.009L352.157 795.587L344.375 792.599L352.109 779.446C352.859 778.188 353.1 777.07 352.831 776.09C352.576 775.104 351.823 774.37 350.572 773.89C349.755 773.576 348.937 773.469 348.12 773.57C347.317 773.663 346.562 773.951 345.853 774.434C345.155 774.92 344.547 775.6 344.03 776.473ZM356.927 797.418L370.384 774.539L378.165 777.526L364.709 800.405L356.927 797.418ZM375.923 773.378C374.82 772.955 374.064 772.245 373.655 771.248C373.247 770.251 373.312 769.272 373.851 768.311C374.395 767.339 375.251 766.663 376.419 766.284C377.587 765.904 378.717 765.925 379.81 766.344C380.913 766.768 381.661 767.468 382.052 768.446C382.454 769.428 382.383 770.405 381.84 771.377C381.322 772.347 380.476 773.027 379.304 773.417C378.143 773.811 377.016 773.798 375.923 773.378ZM396.915 784.723L393.745 790.079L378.325 784.16L381.495 778.804L396.915 784.723ZM387.928 774.554L395.71 777.541L383.274 798.713C383.017 799.161 382.878 799.553 382.86 799.886C382.856 800.214 382.968 800.494 383.195 800.727C383.436 800.954 383.764 801.146 384.178 801.305C384.464 801.415 384.795 801.505 385.169 801.576C385.544 801.647 385.827 801.701 386.02 801.738L384.118 807.454C383.66 807.411 383.052 807.33 382.294 807.21C381.544 807.104 380.699 806.896 379.76 806.584C377.864 805.941 376.404 805.131 375.379 804.154C374.369 803.17 373.825 802.036 373.746 800.752C373.677 799.471 374.107 798.066 375.035 796.536L387.928 774.554ZM398.383 813.861C395.805 812.871 393.882 811.524 392.613 809.82C391.354 808.119 390.75 806.19 390.8 804.03C390.85 801.87 391.565 799.613 392.943 797.257C394.318 794.912 396.015 793.044 398.034 791.653C400.054 790.261 402.273 789.427 404.691 789.151C407.11 788.874 409.598 789.226 412.155 790.208C414.722 791.193 416.635 792.536 417.893 794.237C419.162 795.941 419.772 797.873 419.722 800.032C419.683 802.196 418.971 804.461 417.588 806.827C416.214 809.172 414.511 811.038 412.481 812.426C410.456 813.802 408.239 814.631 405.831 814.912C403.422 815.192 400.94 814.842 398.383 813.861ZM401.512 808.325C402.467 808.691 403.431 808.732 404.404 808.449C405.388 808.169 406.337 807.614 407.252 806.785C408.167 805.955 408.996 804.904 409.741 803.632C410.476 802.381 410.948 801.217 411.154 800.14C411.375 799.056 411.318 798.127 410.982 797.353C410.65 796.569 410.013 795.995 409.068 795.633C408.114 795.266 407.142 795.228 406.154 795.518C405.171 795.798 404.221 796.352 403.307 797.182C402.406 798.005 401.582 799.058 400.834 800.341C400.098 801.592 399.622 802.754 399.405 803.827C399.187 804.9 399.25 805.831 399.592 806.62C399.939 807.398 400.579 807.966 401.512 808.325ZM450.337 795.881L432.416 826.395L424.539 823.371L442.46 792.858L450.337 795.881ZM452.865 818.25L445.19 831.299L437.409 828.312L450.865 805.433L458.265 808.273L455.81 812.48L456.081 812.583C457.419 811.381 458.977 810.634 460.757 810.343C462.54 810.042 464.339 810.239 466.153 810.936C467.861 811.591 469.141 812.521 469.994 813.725C470.846 814.928 471.246 816.311 471.194 817.874C471.146 819.426 470.609 821.063 469.582 822.787L460.992 837.364L453.211 834.377L460.944 821.224C461.694 819.966 461.935 818.847 461.666 817.868C461.412 816.882 460.658 816.148 459.407 815.668C458.59 815.354 457.773 815.247 456.955 815.347C456.152 815.441 455.397 815.729 454.688 816.212C453.99 816.698 453.382 817.378 452.865 818.25ZM476.931 844.012C474.353 843.023 472.43 841.676 471.161 839.971C469.902 838.271 469.302 836.349 469.358 834.204C469.419 832.048 470.14 829.805 471.521 827.475C472.885 825.126 474.582 823.258 476.612 821.87C478.646 820.472 480.879 819.632 483.313 819.349C485.747 819.066 488.242 819.415 490.798 820.396C493.058 821.264 494.8 822.401 496.025 823.808C497.26 825.22 497.936 826.806 498.051 828.566C498.181 830.321 497.718 832.145 496.662 834.04L489.39 831.249C489.93 830.032 490.05 828.958 489.75 828.027C489.454 827.086 488.759 826.406 487.667 825.986C486.744 825.632 485.797 825.561 484.827 825.773C483.872 825.978 482.935 826.47 482.015 827.249C481.11 828.022 480.264 829.084 479.476 830.438C478.689 831.791 478.205 833.005 478.024 834.079C477.857 835.147 477.968 836.048 478.356 836.781C478.759 837.508 479.416 838.046 480.328 838.397C481.05 838.673 481.777 838.776 482.511 838.705C483.244 838.633 483.953 838.388 484.637 837.969C485.325 837.54 485.962 836.944 486.546 836.182L493.803 838.968C492.611 840.835 491.132 842.294 489.366 843.345C487.614 844.388 485.675 844.983 483.55 845.129C481.429 845.264 479.223 844.892 476.931 844.012ZM503.717 854.295C501.139 853.305 499.216 851.958 497.947 850.254C496.688 848.553 496.084 846.624 496.134 844.464C496.184 842.304 496.899 840.047 498.278 837.691C499.652 835.346 501.349 833.478 503.369 832.087C505.388 830.695 507.607 829.861 510.026 829.584C512.444 829.308 514.932 829.66 517.489 830.642C520.056 831.627 521.969 832.97 523.228 834.67C524.497 836.375 525.106 838.307 525.056 840.466C525.017 842.63 524.305 844.895 522.922 847.261C521.548 849.606 519.845 851.472 517.816 852.86C515.79 854.236 513.573 855.065 511.165 855.346C508.756 855.626 506.274 855.276 503.717 854.295ZM506.847 848.759C507.801 849.125 508.765 849.166 509.738 848.883C510.722 848.603 511.671 848.048 512.586 847.219C513.501 846.389 514.331 845.338 515.075 844.066C515.811 842.815 516.282 841.651 516.488 840.574C516.71 839.49 516.652 838.561 516.316 837.787C515.985 837.002 515.347 836.429 514.402 836.067C513.448 835.7 512.476 835.662 511.489 835.952C510.505 836.232 509.555 836.786 508.641 837.616C507.74 838.439 506.916 839.492 506.168 840.775C505.432 842.026 504.956 843.188 504.739 844.261C504.522 845.334 504.584 846.265 504.926 847.054C505.273 847.832 505.913 848.4 506.847 848.759ZM526.398 873.572C524.064 872.676 522.246 871.607 520.946 870.366C519.645 869.124 518.829 867.794 518.497 866.377C518.165 864.959 518.287 863.545 518.865 862.136L526.471 864.581C526.339 865.115 526.356 865.626 526.521 866.116C526.686 866.605 527.019 867.055 527.518 867.466C528.014 867.887 528.686 868.261 529.535 868.587C530.839 869.088 532.097 869.205 533.306 868.939C534.516 868.673 535.532 867.803 536.353 866.329L538.719 862.308L538.448 862.204C537.735 862.794 536.903 863.248 535.954 863.565C535.004 863.882 533.971 864.021 532.854 863.982C531.737 863.943 530.579 863.693 529.38 863.233C527.588 862.545 526.182 861.53 525.163 860.19C524.148 858.838 523.679 857.174 523.757 855.195C523.839 853.206 524.639 850.914 526.158 848.321C527.731 845.65 529.482 843.626 531.41 842.248C533.343 840.86 535.292 840.032 537.257 839.764C539.233 839.5 541.075 839.696 542.783 840.351C544.067 840.844 545.042 841.474 545.709 842.241C546.38 842.998 546.822 843.813 547.035 844.686C547.248 845.559 547.312 846.405 547.229 847.225L547.452 847.31L549.742 843.388L557.492 846.363L543.999 869.337C542.872 871.29 541.399 872.733 539.58 873.666C537.762 874.599 535.72 875.051 533.455 875.021C531.19 874.992 528.838 874.509 526.398 873.572ZM535.152 858.948C536.096 859.311 537.045 859.389 538.001 859.184C538.956 858.978 539.873 858.509 540.751 857.775C541.629 857.041 542.425 856.062 543.138 854.838C543.859 853.594 544.297 852.453 544.451 851.417C544.62 850.374 544.513 849.481 544.129 848.737C543.745 847.993 543.075 847.438 542.121 847.072C541.155 846.701 540.194 846.636 539.237 846.878C538.291 847.123 537.378 847.631 536.498 848.401C535.633 849.164 534.849 850.16 534.147 851.387C533.434 852.611 532.988 853.724 532.81 854.726C532.643 855.733 532.75 856.596 533.131 857.315C533.523 858.037 534.197 858.582 535.152 858.948ZM564.5 861.103L556.826 874.152L549.044 871.165L562.501 848.285L569.901 851.126L567.446 855.333L567.717 855.436C569.055 854.234 570.613 853.487 572.392 853.196C574.176 852.895 575.974 853.092 577.788 853.789C579.496 854.444 580.777 855.374 581.629 856.578C582.482 857.781 582.882 859.164 582.83 860.727C582.782 862.279 582.245 863.916 581.218 865.64L572.628 880.217L564.846 877.23L572.579 864.077C573.33 862.819 573.571 861.7 573.302 860.721C573.047 859.734 572.294 859.001 571.042 858.521C570.225 858.207 569.408 858.1 568.591 858.2C567.788 858.294 567.032 858.582 566.324 859.065C565.626 859.551 565.018 860.231 564.5 861.103ZM577.398 882.048L590.854 859.169L598.636 862.156L585.18 885.036L577.398 882.048ZM596.394 858.009C595.29 857.586 594.535 856.876 594.126 855.879C593.717 854.882 593.783 853.903 594.322 852.942C594.866 851.97 595.722 851.294 596.89 850.915C598.058 850.535 599.188 850.555 600.281 850.975C601.384 851.398 602.132 852.099 602.523 853.077C602.925 854.059 602.854 855.036 602.311 856.008C601.792 856.978 600.947 857.658 599.775 858.047C598.614 858.441 597.487 858.429 596.394 858.009ZM617.386 869.354L614.216 874.71L598.796 868.791L601.966 863.435L617.386 869.354ZM608.399 859.185L616.181 862.172L603.745 883.343C603.487 883.792 603.349 884.184 603.331 884.517C603.327 884.844 603.438 885.125 603.665 885.358C603.907 885.584 604.235 885.777 604.649 885.936C604.935 886.046 605.265 886.136 605.64 886.207C606.014 886.278 606.298 886.332 606.491 886.369L604.589 892.084C604.13 892.042 603.522 891.961 602.765 891.841C602.015 891.735 601.17 891.527 600.23 891.215C598.335 890.572 596.875 889.762 595.85 888.785C594.84 887.801 594.296 886.666 594.217 885.382C594.148 884.102 594.578 882.697 595.506 881.167L608.399 859.185ZM618.854 898.491C616.276 897.502 614.353 896.155 613.084 894.451C611.825 892.75 611.221 890.82 611.271 888.661C611.321 886.501 612.035 884.244 613.414 881.888C614.789 879.543 616.486 877.675 618.505 876.283C620.524 874.892 622.743 874.058 625.162 873.781C627.581 873.505 630.069 873.857 632.626 874.839C635.193 875.824 637.106 877.167 638.364 878.867C639.633 880.572 640.243 882.504 640.193 884.663C640.153 886.827 639.442 889.092 638.059 891.458C636.684 893.803 634.982 895.669 632.952 897.056C630.927 898.433 628.71 899.262 626.301 899.543C623.893 899.823 621.411 899.473 618.854 898.491ZM621.983 892.955C622.938 893.322 623.902 893.363 624.875 893.08C625.859 892.8 626.808 892.245 627.723 891.416C628.638 890.586 629.467 889.535 630.211 888.263C630.947 887.012 631.419 885.848 631.625 884.77C631.846 883.687 631.789 882.758 631.453 881.984C631.121 881.199 630.483 880.626 629.539 880.263C628.584 879.897 627.613 879.859 626.625 880.149C625.642 880.429 624.692 880.983 623.777 881.813C622.877 882.636 622.053 883.689 621.305 884.972C620.569 886.223 620.092 887.385 619.875 888.458C619.658 889.531 619.721 890.462 620.063 891.251C620.41 892.029 621.05 892.597 621.983 892.955ZM670.807 880.512L652.887 911.026L645.01 908.002L662.93 877.489L670.807 880.512ZM673.335 902.881L665.661 915.929L657.879 912.942L671.336 890.063L678.736 892.904L676.281 897.11L676.552 897.214C677.89 896.012 679.448 895.265 681.227 894.974C683.011 894.673 684.809 894.87 686.624 895.567C688.332 896.222 689.612 897.152 690.464 898.355C691.317 899.559 691.717 900.942 691.665 902.505C691.617 904.056 691.08 905.694 690.053 907.418L681.463 921.995L673.681 919.008L681.414 905.855C682.165 904.597 682.406 903.478 682.137 902.499C681.882 901.512 681.129 900.779 679.877 900.298C679.061 899.985 678.243 899.878 677.426 899.978C676.623 900.072 675.867 900.36 675.159 900.842C674.461 901.329 673.853 902.009 673.335 902.881ZM697.402 928.643C694.824 927.654 692.901 926.307 691.632 924.602C690.373 922.902 689.772 920.979 689.829 918.835C689.889 916.679 690.61 914.436 691.992 912.106C693.356 909.757 695.053 907.889 697.083 906.501C699.117 905.103 701.35 904.263 703.784 903.98C706.217 903.696 708.713 904.046 711.269 905.027C713.529 905.895 715.271 907.032 716.496 908.439C717.731 909.851 718.407 911.437 718.522 913.197C718.652 914.951 718.189 916.776 717.133 918.671L709.86 915.879C710.401 914.663 710.521 913.589 710.221 912.658C709.925 911.717 709.23 911.036 708.138 910.617C707.215 910.263 706.268 910.192 705.298 910.403C704.343 910.609 703.405 911.101 702.486 911.88C701.581 912.652 700.734 913.715 699.947 915.068C699.16 916.422 698.676 917.636 698.494 918.71C698.328 919.778 698.439 920.679 698.827 921.412C699.229 922.139 699.887 922.677 700.799 923.027C701.521 923.304 702.248 923.407 702.981 923.336C703.715 923.264 704.424 923.019 705.108 922.6C705.796 922.17 706.433 921.575 707.017 920.813L714.274 923.599C713.082 925.466 711.603 926.925 709.837 927.975C708.085 929.019 706.146 929.614 704.021 929.76C701.9 929.895 699.694 929.523 697.402 928.643ZM724.188 938.925C721.61 937.936 719.687 936.589 718.418 934.885C717.159 933.184 716.555 931.254 716.605 929.095C716.655 926.935 717.37 924.678 718.748 922.322C720.123 919.977 721.82 918.109 723.839 916.717C725.859 915.326 728.078 914.492 730.496 914.215C732.915 913.939 735.403 914.291 737.96 915.273C740.527 916.258 742.44 917.601 743.698 919.301C744.967 921.006 745.577 922.938 745.527 925.097C745.487 927.261 744.776 929.526 743.393 931.892C742.019 934.237 740.316 936.103 738.286 937.49C736.261 938.867 734.044 939.696 731.636 939.977C729.227 940.257 726.745 939.907 724.188 938.925ZM727.317 933.389C728.272 933.756 729.236 933.797 730.209 933.513C731.193 933.234 732.142 932.679 733.057 931.85C733.972 931.02 734.801 929.969 735.546 928.697C736.281 927.446 736.753 926.281 736.959 925.204C737.18 924.121 737.123 923.192 736.787 922.418C736.455 921.633 735.817 921.06 734.873 920.697C733.919 920.331 732.947 920.293 731.959 920.583C730.976 920.863 730.026 921.417 729.111 922.247C728.211 923.07 727.387 924.123 726.639 925.406C725.903 926.657 725.427 927.819 725.209 928.892C724.992 929.965 725.055 930.896 725.397 931.685C725.744 932.463 726.384 933.031 727.317 933.389ZM746.868 958.203C744.534 957.307 742.717 956.238 741.417 954.997C740.116 953.755 739.3 952.425 738.968 951.007C738.636 949.59 738.758 948.176 739.336 946.767L746.942 949.212C746.81 949.745 746.827 950.257 746.992 950.746C747.157 951.236 747.489 951.686 747.989 952.097C748.485 952.518 749.157 952.892 750.005 953.218C751.31 953.719 752.568 953.836 753.777 953.57C754.987 953.304 756.003 952.434 756.824 950.96L759.189 946.938L758.919 946.835C758.205 947.425 757.374 947.879 756.425 948.196C755.475 948.513 754.442 948.652 753.325 948.613C752.208 948.574 751.05 948.324 749.851 947.864C748.058 947.175 746.652 946.161 745.633 944.82C744.618 943.469 744.15 941.804 744.228 939.826C744.31 937.837 745.11 935.545 746.629 932.951C748.202 930.281 749.953 928.257 751.881 926.879C753.814 925.491 755.763 924.663 757.728 924.395C759.704 924.131 761.546 924.327 763.254 924.982C764.538 925.475 765.513 926.105 766.18 926.872C766.851 927.629 767.293 928.444 767.506 929.317C767.719 930.189 767.783 931.036 767.7 931.856L767.922 931.941L770.213 928.019L777.963 930.994L764.47 953.968C763.343 955.921 761.87 957.364 760.051 958.297C758.232 959.23 756.191 959.682 753.926 959.652C751.661 959.623 749.308 959.14 746.868 958.203ZM755.622 943.579C756.567 943.942 757.516 944.02 758.472 943.815C759.427 943.609 760.343 943.139 761.222 942.405C762.1 941.671 762.896 940.693 763.609 939.469C764.33 938.225 764.768 937.084 764.922 936.048C765.091 935.005 764.984 934.112 764.6 933.368C764.216 932.624 763.546 932.069 762.591 931.702C761.626 931.332 760.665 931.267 759.708 931.509C758.762 931.754 757.849 932.262 756.969 933.032C756.104 933.795 755.32 934.79 754.618 936.018C753.905 937.241 753.459 938.354 753.281 939.357C753.114 940.364 753.221 941.227 753.602 941.945C753.994 942.668 754.668 943.213 755.622 943.579ZM784.971 945.734L777.297 958.782L769.515 955.795L782.972 932.916L790.371 935.757L787.917 939.963L788.187 940.067C789.525 938.865 791.084 938.118 792.863 937.827C794.646 937.526 796.445 937.723 798.259 938.419C799.967 939.075 801.248 940.005 802.1 941.208C802.953 942.412 803.353 943.795 803.301 945.358C803.253 946.909 802.716 948.547 801.689 950.271L793.099 964.848L785.317 961.861L793.05 948.708C793.801 947.45 794.042 946.331 793.773 945.352C793.518 944.365 792.765 943.632 791.513 943.151C790.696 942.838 789.879 942.731 789.062 942.831C788.259 942.925 787.503 943.213 786.795 943.695C786.097 944.182 785.489 944.862 784.971 945.734ZM797.869 966.679L811.325 943.8L819.107 946.787L805.65 969.666L797.869 966.679ZM816.865 942.64C815.761 942.217 815.005 941.506 814.597 940.51C814.188 939.513 814.254 938.534 814.793 937.572C815.337 936.6 816.192 935.925 817.361 935.545C818.529 935.166 819.659 935.186 820.752 935.606C821.855 936.029 822.602 936.73 822.994 937.708C823.396 938.69 823.325 939.667 822.782 940.639C822.263 941.609 821.418 942.288 820.246 942.678C819.084 943.072 817.957 943.06 816.865 942.64ZM837.857 953.985L834.687 959.341L819.267 953.422L822.437 948.065L837.857 953.985ZM828.87 943.816L836.651 946.803L824.216 967.974C823.958 968.423 823.82 968.814 823.802 969.148C823.798 969.475 823.909 969.755 824.136 969.989C824.378 970.215 824.706 970.408 825.119 970.567C825.406 970.677 825.736 970.767 826.111 970.838C826.485 970.909 826.769 970.963 826.961 971L825.06 976.715C824.601 976.673 823.993 976.592 823.236 976.472C822.485 976.366 821.641 976.157 820.701 975.845C818.806 975.203 817.345 974.393 816.321 973.415C815.311 972.431 814.767 971.297 814.687 970.013C814.619 968.733 815.049 967.328 815.977 965.798L828.87 943.816ZM839.325 983.122C836.747 982.133 834.823 980.786 833.554 979.081C832.296 977.381 831.692 975.451 831.742 973.292C831.792 971.132 832.506 968.874 833.885 966.519C835.26 964.174 836.957 962.306 838.976 960.914C840.995 959.523 843.214 958.689 845.633 958.412C848.052 958.136 850.54 958.488 853.097 959.47C855.664 960.455 857.577 961.798 858.835 963.498C860.104 965.202 860.714 967.134 860.664 969.294C860.624 971.458 859.913 973.723 858.53 976.089C857.155 978.434 855.453 980.3 853.423 981.687C851.397 983.064 849.18 983.893 846.772 984.173C844.364 984.454 841.882 984.104 839.325 983.122ZM842.454 977.586C843.409 977.953 844.373 977.994 845.346 977.71C846.33 977.431 847.279 976.876 848.194 976.047C849.109 975.217 849.938 974.166 850.682 972.894C851.418 971.642 851.889 970.478 852.096 969.401C852.317 968.318 852.26 967.389 851.924 966.615C851.592 965.83 850.954 965.257 850.01 964.894C849.055 964.528 848.084 964.49 847.096 964.78C846.112 965.059 845.163 965.614 844.248 966.444C843.348 967.267 842.524 968.32 841.776 969.603C841.04 970.854 840.563 972.016 840.346 973.089C840.129 974.162 840.192 975.093 840.534 975.881C840.88 976.66 841.52 977.228 842.454 977.586ZM891.278 965.143L873.357 995.657L865.48 992.633L883.401 962.119L891.278 965.143ZM893.806 987.512L886.132 1000.56L878.35 997.573L891.807 974.694L899.206 977.535L896.752 981.741L897.022 981.845C898.36 980.642 899.919 979.896 901.698 979.605C903.482 979.303 905.28 979.501 907.094 980.197C908.802 980.853 910.083 981.783 910.935 982.986C911.788 984.19 912.188 985.573 912.136 987.135C912.088 988.687 911.551 990.325 910.524 992.049L901.934 1006.63L894.152 1003.64L901.885 990.486C902.636 989.228 902.877 988.109 902.608 987.129C902.353 986.143 901.6 985.41 900.348 984.929C899.531 984.616 898.714 984.509 897.897 984.609C897.094 984.703 896.338 984.991 895.63 985.473C894.932 985.96 894.324 986.64 893.806 987.512ZM917.873 1013.27C915.295 1012.28 913.371 1010.94 912.102 1009.23C910.844 1007.53 910.243 1005.61 910.3 1003.47C910.36 1001.31 911.081 999.067 912.463 996.737C913.827 994.388 915.524 992.52 917.554 991.132C919.587 989.734 921.821 988.893 924.255 988.61C926.688 988.327 929.183 988.677 931.74 989.658C934 990.525 935.742 991.663 936.967 993.07C938.202 994.482 938.877 996.068 938.993 997.828C939.123 999.582 938.66 1001.41 937.604 1003.3L930.331 1000.51C930.871 999.293 930.991 998.22 930.691 997.289C930.395 996.348 929.701 995.667 928.608 995.248C927.685 994.894 926.739 994.822 925.769 995.034C924.814 995.24 923.876 995.732 922.957 996.511C922.051 997.283 921.205 998.346 920.418 999.699C919.631 1001.05 919.147 1002.27 918.965 1003.34C918.799 1004.41 918.909 1005.31 919.298 1006.04C919.7 1006.77 920.358 1007.31 921.27 1007.66C921.991 1007.94 922.719 1008.04 923.452 1007.97C924.186 1007.89 924.895 1007.65 925.579 1007.23C926.267 1006.8 926.903 1006.21 927.488 1005.44L934.744 1008.23C933.553 1010.1 932.074 1011.56 930.307 1012.61C928.556 1013.65 926.617 1014.24 924.492 1014.39C922.371 1014.53 920.164 1014.15 917.873 1013.27ZM944.659 1023.56C942.081 1022.57 940.157 1021.22 938.889 1019.52C937.63 1017.82 937.026 1015.89 937.076 1013.73C937.126 1011.57 937.84 1009.31 939.219 1006.95C940.594 1004.61 942.291 1002.74 944.31 1001.35C946.329 999.957 948.548 999.123 950.967 998.846C953.386 998.57 955.874 998.922 958.431 999.904C960.998 1000.89 962.911 1002.23 964.169 1003.93C965.438 1005.64 966.048 1007.57 965.998 1009.73C965.958 1011.89 965.247 1014.16 963.864 1016.52C962.489 1018.87 960.787 1020.73 958.757 1022.12C956.732 1023.5 954.515 1024.33 952.106 1024.61C949.698 1024.89 947.216 1024.54 944.659 1023.56ZM947.788 1018.02C948.743 1018.39 949.707 1018.43 950.68 1018.14C951.664 1017.86 952.613 1017.31 953.528 1016.48C954.443 1015.65 955.272 1014.6 956.016 1013.33C956.752 1012.08 957.223 1010.91 957.43 1009.84C957.651 1008.75 957.594 1007.82 957.258 1007.05C956.926 1006.26 956.288 1005.69 955.344 1005.33C954.389 1004.96 953.418 1004.92 952.43 1005.21C951.446 1005.49 950.497 1006.05 949.582 1006.88C948.682 1007.7 947.858 1008.75 947.11 1010.04C946.374 1011.29 945.897 1012.45 945.68 1013.52C945.463 1014.6 945.526 1015.53 945.868 1016.32C946.215 1017.09 946.855 1017.66 947.788 1018.02ZM967.339 1042.83C965.005 1041.94 963.188 1040.87 961.888 1039.63C960.587 1038.39 959.771 1037.06 959.439 1035.64C959.106 1034.22 959.229 1032.81 959.807 1031.4L967.413 1033.84C967.281 1034.38 967.298 1034.89 967.463 1035.38C967.628 1035.87 967.96 1036.32 968.46 1036.73C968.955 1037.15 969.628 1037.52 970.476 1037.85C971.781 1038.35 973.038 1038.47 974.248 1038.2C975.458 1037.93 976.474 1037.07 977.295 1035.59L979.66 1031.57L979.39 1031.47C978.676 1032.06 977.845 1032.51 976.895 1032.83C975.946 1033.14 974.913 1033.28 973.796 1033.24C972.679 1033.2 971.521 1032.95 970.322 1032.49C968.529 1031.81 967.123 1030.79 966.104 1029.45C965.089 1028.1 964.621 1026.44 964.698 1024.46C964.78 1022.47 965.581 1020.18 967.1 1017.58C968.673 1014.91 970.424 1012.89 972.352 1011.51C974.285 1010.12 976.234 1009.29 978.199 1009.03C980.175 1008.76 982.017 1008.96 983.725 1009.61C985.009 1010.11 985.984 1010.74 986.651 1011.5C987.322 1012.26 987.764 1013.07 987.977 1013.95C988.189 1014.82 988.254 1015.67 988.171 1016.49L988.393 1016.57L990.684 1012.65L998.434 1015.62L984.941 1038.6C983.814 1040.55 982.341 1042 980.522 1042.93C978.703 1043.86 976.661 1044.31 974.397 1044.28C972.132 1044.25 969.779 1043.77 967.339 1042.83ZM976.093 1028.21C977.037 1028.57 977.987 1028.65 978.942 1028.45C979.898 1028.24 980.814 1027.77 981.693 1027.04C982.571 1026.3 983.366 1025.32 984.079 1024.1C984.801 1022.86 985.238 1021.71 985.393 1020.68C985.562 1019.64 985.454 1018.74 985.07 1018C984.686 1017.25 984.017 1016.7 983.062 1016.33C982.097 1015.96 981.136 1015.9 980.179 1016.14C979.233 1016.38 978.32 1016.89 977.44 1017.66C976.575 1018.43 975.791 1019.42 975.088 1020.65C974.375 1021.87 973.93 1022.99 973.752 1023.99C973.584 1024.99 973.691 1025.86 974.073 1026.58C974.465 1027.3 975.138 1027.84 976.093 1028.21ZM1005.44 1030.37L997.768 1043.41L989.986 1040.43L1003.44 1017.55L1010.84 1020.39L1008.39 1024.59L1008.66 1024.7C1010 1023.5 1011.55 1022.75 1013.33 1022.46C1015.12 1022.16 1016.92 1022.35 1018.73 1023.05C1020.44 1023.71 1021.72 1024.64 1022.57 1025.84C1023.42 1027.04 1023.82 1028.43 1023.77 1029.99C1023.72 1031.54 1023.19 1033.18 1022.16 1034.9L1013.57 1049.48L1005.79 1046.49L1013.52 1033.34C1014.27 1032.08 1014.51 1030.96 1014.24 1029.98C1013.99 1029 1013.24 1028.26 1011.98 1027.78C1011.17 1027.47 1010.35 1027.36 1009.53 1027.46C1008.73 1027.56 1007.97 1027.84 1007.27 1028.33C1006.57 1028.81 1005.96 1029.49 1005.44 1030.37ZM1018.34 1051.31L1031.8 1028.43L1039.58 1031.42L1026.12 1054.3L1018.34 1051.31ZM1037.34 1027.27C1036.23 1026.85 1035.48 1026.14 1035.07 1025.14C1034.66 1024.14 1034.72 1023.16 1035.26 1022.2C1035.81 1021.23 1036.66 1020.56 1037.83 1020.18C1039 1019.8 1040.13 1019.82 1041.22 1020.24C1042.33 1020.66 1043.07 1021.36 1043.46 1022.34C1043.87 1023.32 1043.8 1024.3 1043.25 1025.27C1042.73 1026.24 1041.89 1026.92 1040.72 1027.31C1039.56 1027.7 1038.43 1027.69 1037.34 1027.27ZM1058.33 1038.62L1055.16 1043.97L1039.74 1038.05L1042.91 1032.7L1058.33 1038.62ZM1049.34 1028.45L1057.12 1031.43L1044.69 1052.61C1044.43 1053.05 1044.29 1053.45 1044.27 1053.78C1044.27 1054.11 1044.38 1054.39 1044.61 1054.62C1044.85 1054.85 1045.18 1055.04 1045.59 1055.2C1045.88 1055.31 1046.21 1055.4 1046.58 1055.47C1046.96 1055.54 1047.24 1055.59 1047.43 1055.63L1045.53 1061.35C1045.07 1061.3 1044.46 1061.22 1043.71 1061.1C1042.96 1061 1042.11 1060.79 1041.17 1060.48C1039.28 1059.83 1037.82 1059.02 1036.79 1058.05C1035.78 1057.06 1035.24 1055.93 1035.16 1054.64C1035.09 1053.36 1035.52 1051.96 1036.45 1050.43L1049.34 1028.45ZM1059.8 1067.75C1057.22 1066.76 1055.29 1065.42 1054.03 1063.71C1052.77 1062.01 1052.16 1060.08 1052.21 1057.92C1052.26 1055.76 1052.98 1053.51 1054.36 1051.15C1055.73 1048.8 1057.43 1046.94 1059.45 1045.55C1061.47 1044.15 1063.69 1043.32 1066.1 1043.04C1068.52 1042.77 1071.01 1043.12 1073.57 1044.1C1076.13 1045.09 1078.05 1046.43 1079.31 1048.13C1080.57 1049.83 1081.18 1051.77 1081.13 1053.92C1081.1 1056.09 1080.38 1058.35 1079 1060.72C1077.63 1063.06 1075.92 1064.93 1073.89 1066.32C1071.87 1067.69 1069.65 1068.52 1067.24 1068.8C1064.83 1069.08 1062.35 1068.73 1059.8 1067.75ZM1062.92 1062.22C1063.88 1062.58 1064.84 1062.62 1065.82 1062.34C1066.8 1062.06 1067.75 1061.51 1068.66 1060.68C1069.58 1059.85 1070.41 1058.8 1071.15 1057.52C1071.89 1056.27 1072.36 1055.11 1072.57 1054.03C1072.79 1052.95 1072.73 1052.02 1072.39 1051.25C1072.06 1050.46 1071.43 1049.89 1070.48 1049.52C1069.53 1049.16 1068.55 1049.12 1067.57 1049.41C1066.58 1049.69 1065.63 1050.24 1064.72 1051.07C1063.82 1051.9 1062.99 1052.95 1062.25 1054.23C1061.51 1055.48 1061.03 1056.65 1060.82 1057.72C1060.6 1058.79 1060.66 1059.72 1061 1060.51C1061.35 1061.29 1061.99 1061.86 1062.92 1062.22Z" fill="black"/>
<path d="M-119.73 387.314L-107.294 420.444L-114.601 424.662L-127.037 391.533L-119.73 387.314ZM-100.755 399.426L-95.4443 413.602L-102.663 417.77L-111.975 392.914L-105.11 388.951L-103.386 393.506L-103.135 393.361C-103.228 391.564 -102.827 389.883 -101.933 388.317C-101.045 386.742 -99.76 385.468 -98.0772 384.496C-96.4927 383.582 -94.9646 383.172 -93.4926 383.267C-92.0207 383.362 -90.694 383.921 -89.5125 384.944C-88.3367 385.958 -87.4021 387.407 -86.7087 389.289L-80.7858 405.139L-88.0044 409.307L-93.3599 395.019C-93.865 393.644 -94.5829 392.753 -95.5136 392.346C-96.4401 391.923 -97.484 392.047 -98.6453 392.717C-99.403 393.154 -100 393.722 -100.437 394.421C-100.869 395.103 -101.121 395.872 -101.192 396.726C-101.253 397.575 -101.107 398.475 -100.755 399.426ZM-65.5887 396.936C-67.9801 398.316 -70.2373 398.964 -72.3604 398.877C-74.4737 398.785 -76.346 398.042 -77.9773 396.648C-79.6144 395.245 -80.9037 393.273 -81.8453 390.733C-82.8122 388.195 -83.1961 385.7 -82.997 383.249C-82.8036 380.789 -82.0512 378.524 -80.7397 376.455C-79.4282 374.385 -77.5866 372.666 -75.2148 371.297C-73.1187 370.087 -71.1383 369.448 -69.2739 369.382C-67.3996 369.311 -65.742 369.784 -64.3012 370.802C-62.8562 371.805 -61.7296 373.313 -60.9215 375.326L-67.6676 379.221C-68.2734 378.036 -69.0323 377.267 -69.9444 376.914C-70.8622 376.552 -71.8279 376.663 -72.8415 377.248C-73.6977 377.743 -74.3486 378.433 -74.7943 379.321C-75.2358 380.192 -75.4434 381.231 -75.4168 382.436C-75.3862 383.625 -75.0927 384.951 -74.5365 386.415C-73.9803 387.878 -73.3416 389.019 -72.6206 389.836C-71.8953 390.637 -71.1257 391.118 -70.3117 391.278C-69.4936 391.422 -68.6613 391.25 -67.815 390.761C-67.1458 390.375 -66.6082 389.874 -66.2022 389.259C-65.7961 388.645 -65.5406 387.939 -65.4357 387.144C-65.3363 386.339 -65.3987 385.469 -65.6227 384.536L-58.8914 380.649C-58.1899 382.751 -57.9869 384.818 -58.2823 386.852C-58.5736 388.87 -59.3313 390.751 -60.5554 392.495C-61.7852 394.228 -63.463 395.708 -65.5887 396.936ZM-40.7409 382.59C-43.1323 383.971 -45.3895 384.618 -47.5126 384.531C-49.6259 384.439 -51.506 383.694 -53.1528 382.296C-54.7997 380.898 -56.1046 378.922 -57.0673 376.368C-58.0244 373.824 -58.4084 371.33 -58.2191 368.885C-58.0298 366.44 -57.2815 364.191 -55.9742 362.137C-54.6669 360.083 -52.8274 358.371 -50.4556 357.002C-48.0741 355.627 -45.8266 354.986 -43.7134 355.078C-41.5903 355.164 -39.7053 355.906 -38.0584 357.304C-36.4017 358.696 -35.0891 360.674 -34.1207 363.238C-33.1635 365.782 -32.7846 368.28 -32.9837 370.73C-33.1884 373.171 -33.9396 375.415 -35.2371 377.464C-36.5345 379.512 -38.3692 381.221 -40.7409 382.59ZM-43.0739 376.674C-42.1882 376.163 -41.5494 375.44 -41.1575 374.505C-40.7557 373.564 -40.5893 372.477 -40.6582 371.244C-40.7271 370.011 -41.0219 368.705 -41.5425 367.326C-42.0517 365.967 -42.6599 364.868 -43.367 364.03C-44.0699 363.176 -44.8278 362.636 -45.6407 362.41C-46.4592 362.174 -47.3064 362.309 -48.1823 362.815C-49.068 363.326 -49.7089 364.057 -50.105 365.007C-50.5067 365.948 -50.6731 367.034 -50.6042 368.267C-50.5311 369.485 -50.2314 370.788 -49.7052 372.177C-49.1959 373.536 -48.5927 374.638 -47.8954 375.482C-47.1982 376.326 -46.4354 376.863 -45.607 377.093C-44.7843 377.314 -43.9399 377.174 -43.0739 376.674ZM-11.4862 377.096C-13.6512 378.346 -15.6255 379.085 -17.4089 379.315C-19.1923 379.544 -20.7394 379.341 -22.0502 378.707C-23.3611 378.073 -24.3824 377.088 -25.1143 375.753L-18.4273 371.38C-18.0956 371.818 -17.6875 372.127 -17.2033 372.307C-16.719 372.487 -16.16 372.512 -15.5263 372.382C-14.887 372.262 -14.1736 371.975 -13.3863 371.52C-12.1759 370.822 -11.2933 369.918 -10.7387 368.811C-10.184 367.703 -10.221 366.367 -10.8496 364.801L-12.4864 360.431L-12.7374 360.576C-12.7276 361.502 -12.8982 362.434 -13.2492 363.372C-13.6003 364.309 -14.1425 365.199 -14.8759 366.043C-15.6093 366.886 -16.532 367.629 -17.6441 368.271C-19.3073 369.231 -20.9804 369.685 -22.6636 369.634C-24.3525 369.572 -25.9412 368.888 -27.4298 367.583C-28.9241 366.267 -30.2011 364.203 -31.2609 361.39C-32.3465 358.487 -32.8177 355.853 -32.6746 353.487C-32.5372 351.112 -31.9542 349.076 -30.9258 347.38C-29.8875 345.678 -28.5762 344.37 -26.9917 343.455C-25.801 342.768 -24.6975 342.406 -23.6814 342.371C-22.671 342.325 -21.7597 342.495 -20.9476 342.879C-20.1354 343.263 -19.437 343.745 -18.8522 344.326L-18.6456 344.207L-20.2523 339.958L-13.0633 335.807L-3.70028 360.752C-2.89172 362.857 -2.69723 364.91 -3.11681 366.91C-3.53639 368.911 -4.47031 370.782 -5.91857 372.523C-7.36682 374.265 -9.22269 375.789 -11.4862 377.096ZM-17.342 361.089C-16.4662 360.584 -15.8075 359.895 -15.3659 359.023C-14.9244 358.152 -14.7126 357.144 -14.7303 355.999C-14.7481 354.855 -15.008 353.621 -15.5101 352.297C-16.0235 350.953 -16.6343 349.895 -17.3425 349.123C-18.0465 348.335 -18.8083 347.857 -19.628 347.687C-20.4477 347.517 -21.3004 347.688 -22.1861 348.199C-23.0816 348.716 -23.7367 349.423 -24.1514 350.318C-24.5561 351.208 -24.7362 352.237 -24.6915 353.405C-24.6427 354.558 -24.3624 355.793 -23.8505 357.112C-23.3484 358.436 -22.7638 359.483 -22.0965 360.252C-21.4193 361.016 -20.6815 361.476 -19.8831 361.631C-19.0747 361.781 -18.2277 361.601 -17.342 361.089ZM2.80269 339.637L8.11338 353.813L0.894862 357.981L-8.41703 333.125L-1.55279 329.162L0.171576 333.716L0.422527 333.572C0.329956 331.775 0.730521 330.094 1.62422 328.528C2.51224 326.952 3.79767 325.679 5.48051 324.707C7.06494 323.793 8.59313 323.383 10.0651 323.478C11.537 323.572 12.8637 324.132 14.0452 325.155C15.221 326.169 16.1556 327.618 16.849 329.5L22.7718 345.35L15.5533 349.518L10.1977 335.23C9.69266 333.855 8.97478 332.964 8.0441 332.557C7.11759 332.134 6.0737 332.257 4.91244 332.928C4.15467 333.365 3.55745 333.933 3.1208 334.632C2.6883 335.314 2.43661 336.083 2.36571 336.937C2.30465 337.786 2.45031 338.686 2.80269 339.637ZM27.1967 342.795L17.8848 317.939L25.1033 313.772L34.4152 338.628L27.1967 342.795ZM20.4693 312.904C19.4458 313.495 18.4182 313.636 17.3864 313.326C16.3547 313.016 15.635 312.349 15.2273 311.325C14.814 310.291 14.8275 309.201 15.2677 308.054C15.708 306.908 16.435 306.042 17.4487 305.457C18.4721 304.866 19.4871 304.726 20.4934 305.037C21.5096 305.343 22.2244 306.013 22.6378 307.047C23.0651 308.06 23.0615 309.144 22.6269 310.301C22.2021 311.451 21.4829 312.319 20.4693 312.904ZM42.4964 303.73L44.6641 309.564L30.3599 317.822L28.1922 311.988L42.4964 303.73ZM28.9382 304.315L36.1567 300.147L44.7837 323.135C44.9705 323.617 45.1878 323.971 45.4354 324.195C45.6873 324.404 45.9752 324.494 46.2992 324.464C46.6275 324.419 46.9835 324.286 47.3673 324.064C47.633 323.911 47.9112 323.711 48.2018 323.464C48.4925 323.218 48.713 323.031 48.8632 322.905L52.1079 327.98C51.7866 328.31 51.341 328.731 50.771 329.244C50.2166 329.761 49.5226 330.286 48.6892 330.82C46.9969 331.888 45.4485 332.513 44.044 332.694C42.6437 332.86 41.4197 332.569 40.3719 331.823C39.334 331.071 38.5125 329.852 37.9074 328.168L28.9382 304.315ZM66.0644 320.926C63.673 322.306 61.4157 322.954 59.2926 322.867C57.1794 322.775 55.2993 322.03 53.6525 320.632C52.0056 319.234 50.7007 317.258 49.738 314.704C48.7808 312.16 48.3969 309.666 48.5862 307.221C48.7755 304.776 49.5237 302.527 50.8311 300.473C52.1384 298.419 53.9779 296.707 56.3497 295.338C58.7312 293.963 60.9786 293.322 63.0919 293.414C65.215 293.5 67.1 294.242 68.7469 295.64C70.4036 297.032 71.7162 299.01 72.6846 301.574C73.6417 304.118 74.0207 306.616 73.8216 309.066C73.6168 311.507 72.8657 313.751 71.5682 315.8C70.2707 317.848 68.4361 319.556 66.0644 320.926ZM63.7314 315.01C64.6171 314.499 65.2559 313.775 65.6478 312.841C66.0496 311.9 66.216 310.813 66.1471 309.58C66.0782 308.347 65.7834 307.041 65.2628 305.662C64.7536 304.303 64.1454 303.204 63.4383 302.366C62.7354 301.512 61.9775 300.972 61.1646 300.746C60.3461 300.51 59.4989 300.645 58.623 301.151C57.7373 301.662 57.0964 302.393 56.7003 303.343C56.2986 304.284 56.1322 305.37 56.2011 306.603C56.2742 307.821 56.5738 309.124 57.1001 310.513C57.6094 311.872 58.2126 312.974 58.9098 313.818C59.6071 314.662 60.3699 315.199 61.1983 315.429C62.021 315.65 62.8654 315.51 63.7314 315.01ZM84.7874 269.236L97.223 302.366L89.9159 306.584L77.4803 273.454L84.7874 269.236ZM103.762 281.348L109.073 295.524L101.854 299.692L92.5426 274.836L99.4068 270.873L101.131 275.427L101.382 275.283C101.29 273.486 101.69 271.805 102.584 270.239C103.472 268.663 104.757 267.39 106.44 266.418C108.025 265.503 109.553 265.094 111.025 265.188C112.497 265.283 113.823 265.843 115.005 266.866C116.181 267.88 117.115 269.329 117.809 271.211L123.731 287.061L116.513 291.229L111.157 276.941C110.652 275.566 109.934 274.675 109.004 274.268C108.077 273.845 107.033 273.968 105.872 274.639C105.114 275.076 104.517 275.644 104.08 276.342C103.648 277.025 103.396 277.794 103.325 278.648C103.264 279.497 103.41 280.397 103.762 281.348ZM138.929 278.858C136.537 280.238 134.28 280.885 132.157 280.799C130.044 280.707 128.171 279.964 126.54 278.57C124.903 277.167 123.614 275.195 122.672 272.655C121.705 270.116 121.321 267.622 121.52 265.171C121.714 262.711 122.466 260.446 123.778 258.377C125.089 256.307 126.931 254.588 129.302 253.219C131.399 252.008 133.379 251.37 135.243 251.304C137.118 251.232 138.775 251.706 140.216 252.724C141.661 253.727 142.788 255.235 143.596 257.248L136.85 261.143C136.244 259.958 135.485 259.189 134.573 258.836C133.655 258.474 132.689 258.585 131.676 259.17C130.82 259.665 130.169 260.355 129.723 261.242C129.281 262.114 129.074 263.152 129.1 264.357C129.131 265.547 129.425 266.873 129.981 268.337C130.537 269.8 131.176 270.94 131.897 271.758C132.622 272.559 133.392 273.04 134.206 273.2C135.024 273.344 135.856 273.172 136.702 272.683C137.372 272.297 137.909 271.796 138.315 271.181C138.721 270.566 138.977 269.861 139.082 269.066C139.181 268.261 139.119 267.391 138.895 266.458L145.626 262.571C146.327 264.673 146.53 266.74 146.235 268.774C145.944 270.792 145.186 272.673 143.962 274.416C142.732 276.15 141.054 277.63 138.929 278.858ZM163.776 264.512C161.385 265.892 159.128 266.54 157.005 266.453C154.891 266.361 153.011 265.616 151.364 264.218C149.718 262.82 148.413 260.844 147.45 258.29C146.493 255.746 146.109 253.252 146.298 250.807C146.487 248.362 147.236 246.112 148.543 244.059C149.85 242.005 151.69 240.293 154.062 238.924C156.443 237.549 158.691 236.907 160.804 237C162.927 237.086 164.812 237.828 166.459 239.226C168.116 240.618 169.428 242.596 170.397 245.16C171.354 247.704 171.733 250.202 171.534 252.652C171.329 255.093 170.578 257.337 169.28 259.386C167.983 261.434 166.148 263.142 163.776 264.512ZM161.443 258.596C162.329 258.084 162.968 257.361 163.36 256.427C163.762 255.486 163.928 254.399 163.859 253.166C163.79 251.933 163.495 250.627 162.975 249.248C162.466 247.889 161.857 246.79 161.15 245.952C160.447 245.098 159.69 244.558 158.877 244.332C158.058 244.096 157.211 244.231 156.335 244.736C155.449 245.248 154.808 245.979 154.412 246.929C154.011 247.87 153.844 248.956 153.913 250.189C153.986 251.407 154.286 252.71 154.812 254.099C155.321 255.458 155.925 256.56 156.622 257.404C157.319 258.248 158.082 258.785 158.91 259.015C159.733 259.236 160.577 259.096 161.443 258.596ZM193.031 259.018C190.866 260.268 188.892 261.007 187.108 261.236C185.325 261.466 183.778 261.263 182.467 260.629C181.156 259.995 180.135 259.01 179.403 257.674L186.09 253.302C186.422 253.74 186.83 254.049 187.314 254.229C187.798 254.409 188.357 254.434 188.991 254.304C189.63 254.184 190.344 253.897 191.131 253.442C192.341 252.743 193.224 251.84 193.779 250.733C194.333 249.625 194.296 248.288 193.668 246.723L192.031 242.353L191.78 242.498C191.79 243.424 191.619 244.356 191.268 245.293C190.917 246.231 190.375 247.121 189.641 247.965C188.908 248.808 187.985 249.551 186.873 250.193C185.21 251.153 183.537 251.607 181.854 251.555C180.165 251.494 178.576 250.81 177.088 249.505C175.593 248.189 174.316 246.125 173.256 243.312C172.171 240.409 171.7 237.775 171.843 235.409C171.98 233.033 172.563 230.998 173.591 229.302C174.63 227.6 175.941 226.292 177.526 225.377C178.716 224.69 179.82 224.328 180.836 224.292C181.846 224.247 182.758 224.416 183.57 224.8C184.382 225.184 185.08 225.667 185.665 226.248L185.872 226.128L184.265 221.88L191.454 217.729L200.817 242.674C201.626 244.779 201.82 246.831 201.401 248.832C200.981 250.832 200.047 252.704 198.599 254.445C197.15 256.187 195.295 257.711 193.031 259.018ZM187.175 243.011C188.051 242.506 188.71 241.817 189.151 240.945C189.593 240.074 189.805 239.066 189.787 237.921C189.769 236.777 189.509 235.543 189.007 234.218C188.494 232.875 187.883 231.817 187.175 231.045C186.471 230.257 185.709 229.778 184.889 229.609C184.07 229.439 183.217 229.61 182.331 230.121C181.436 230.638 180.781 231.344 180.366 232.24C179.961 233.13 179.781 234.159 179.826 235.327C179.875 236.48 180.155 237.715 180.667 239.034C181.169 240.358 181.754 241.405 182.421 242.174C183.098 242.938 183.836 243.398 184.634 243.553C185.443 243.703 186.29 243.523 187.175 243.011ZM207.32 221.559L212.631 235.735L205.412 239.903L196.1 215.047L202.965 211.084L204.689 215.638L204.94 215.493C204.847 213.697 205.248 212.016 206.142 210.45C207.03 208.874 208.315 207.601 209.998 206.629C211.582 205.714 213.11 205.304 214.582 205.399C216.054 205.494 217.381 206.054 218.563 207.077C219.738 208.091 220.673 209.539 221.366 211.422L227.289 227.272L220.071 231.439L214.715 217.152C214.21 215.777 213.492 214.886 212.561 214.479C211.635 214.056 210.591 214.179 209.43 214.85C208.672 215.287 208.075 215.855 207.638 216.553C207.206 217.236 206.954 218.005 206.883 218.859C206.822 219.708 206.968 220.608 207.32 221.559ZM231.714 224.717L222.402 199.861L229.621 195.694L238.933 220.55L231.714 224.717ZM224.987 194.826C223.963 195.417 222.935 195.558 221.904 195.248C220.872 194.938 220.152 194.271 219.745 193.247C219.331 192.213 219.345 191.123 219.785 189.976C220.225 188.83 220.952 187.964 221.966 187.379C222.989 186.788 224.004 186.648 225.011 186.959C226.027 187.265 226.742 187.934 227.155 188.969C227.582 189.982 227.579 191.066 227.144 192.222C226.719 193.373 226 194.241 224.987 194.826ZM247.014 185.652L249.181 191.486L234.877 199.744L232.71 193.91L247.014 185.652ZM233.456 186.236L240.674 182.069L249.301 205.057C249.488 205.539 249.705 205.893 249.953 206.117C250.205 206.326 250.492 206.416 250.817 206.386C251.145 206.341 251.501 206.208 251.885 205.986C252.15 205.833 252.428 205.633 252.719 205.386C253.01 205.14 253.23 204.953 253.381 204.827L256.625 209.902C256.304 210.231 255.858 210.653 255.288 211.166C254.734 211.682 254.04 212.208 253.206 212.741C251.514 213.81 249.966 214.435 248.561 214.616C247.161 214.782 245.937 214.491 244.889 213.745C243.851 212.992 243.03 211.774 242.425 210.09L233.456 186.236ZM270.582 202.848C268.19 204.228 265.933 204.875 263.81 204.789C261.697 204.697 259.817 203.952 258.17 202.554C256.523 201.156 255.218 199.18 254.255 196.626C253.298 194.082 252.914 191.588 253.104 189.143C253.293 186.698 254.041 184.448 255.348 182.395C256.656 180.341 258.495 178.629 260.867 177.26C263.249 175.885 265.496 175.243 267.609 175.335C269.732 175.422 271.617 176.164 273.264 177.562C274.921 178.954 276.233 180.932 277.202 183.496C278.159 186.04 278.538 188.538 278.339 190.988C278.134 193.429 277.383 195.673 276.086 197.721C274.788 199.77 272.953 201.478 270.582 202.848ZM268.249 196.932C269.134 196.42 269.773 195.697 270.165 194.763C270.567 193.822 270.733 192.735 270.664 191.502C270.595 190.269 270.301 188.963 269.78 187.584C269.271 186.225 268.663 185.126 267.956 184.288C267.253 183.434 266.495 182.894 265.682 182.668C264.863 182.432 264.016 182.567 263.14 183.072C262.255 183.584 261.614 184.315 261.218 185.265C260.816 186.205 260.649 187.292 260.718 188.525C260.791 189.743 261.091 191.046 261.617 192.435C262.127 193.794 262.73 194.896 263.427 195.74C264.124 196.584 264.887 197.121 265.716 197.351C266.538 197.572 267.383 197.432 268.249 196.932ZM289.305 151.158L301.74 184.287L294.433 188.506L281.998 155.376L289.305 151.158ZM308.28 163.27L313.59 177.446L306.372 181.613L297.06 156.758L303.924 152.794L305.648 157.349L305.899 157.204C305.807 155.408 306.207 153.727 307.101 152.161C307.989 150.585 309.275 149.312 310.957 148.34C312.542 147.425 314.07 147.015 315.542 147.11C317.014 147.205 318.341 147.765 319.522 148.788C320.698 149.802 321.633 151.25 322.326 153.133L328.249 168.983L321.03 173.15L315.675 158.863C315.17 157.488 314.452 156.597 313.521 156.189C312.595 155.767 311.551 155.89 310.389 156.561C309.632 156.998 309.034 157.566 308.598 158.264C308.165 158.947 307.914 159.716 307.843 160.57C307.782 161.419 307.927 162.319 308.28 163.27ZM343.446 160.779C341.055 162.16 338.797 162.807 336.674 162.721C334.561 162.629 332.689 161.886 331.057 160.492C329.42 159.089 328.131 157.117 327.189 154.577C326.222 152.038 325.838 149.544 326.038 147.093C326.231 144.633 326.983 142.368 328.295 140.299C329.606 138.229 331.448 136.51 333.82 135.141C335.916 133.93 337.896 133.292 339.761 133.226C341.635 133.154 343.293 133.628 344.733 134.646C346.178 135.649 347.305 137.157 348.113 139.17L341.367 143.065C340.761 141.879 340.002 141.11 339.09 140.758C338.172 140.396 337.207 140.507 336.193 141.092C335.337 141.586 334.686 142.277 334.24 143.164C333.799 144.036 333.591 145.074 333.618 146.279C333.648 147.469 333.942 148.795 334.498 150.259C335.054 151.722 335.693 152.862 336.414 153.679C337.139 154.481 337.909 154.962 338.723 155.122C339.541 155.266 340.373 155.094 341.22 154.605C341.889 154.219 342.426 153.718 342.832 153.103C343.238 152.488 343.494 151.783 343.599 150.988C343.698 150.182 343.636 149.313 343.412 148.38L350.143 144.493C350.845 146.594 351.048 148.662 350.752 150.696C350.461 152.714 349.703 154.595 348.479 156.338C347.249 158.072 345.572 159.552 343.446 160.779ZM368.294 146.434C365.902 147.814 363.645 148.461 361.522 148.375C359.409 148.283 357.529 147.538 355.882 146.14C354.235 144.742 352.93 142.766 351.967 140.212C351.01 137.668 350.626 135.174 350.816 132.729C351.005 130.284 351.753 128.034 353.06 125.981C354.368 123.927 356.207 122.215 358.579 120.846C360.961 119.471 363.208 118.829 365.321 118.921C367.444 119.008 369.329 119.75 370.976 121.148C372.633 122.54 373.945 124.518 374.914 127.082C375.871 129.626 376.25 132.123 376.051 134.574C375.846 137.015 375.095 139.259 373.798 141.307C372.5 143.356 370.665 145.064 368.294 146.434ZM365.961 140.518C366.846 140.006 367.485 139.283 367.877 138.348C368.279 137.408 368.445 136.321 368.376 135.088C368.307 133.855 368.013 132.549 367.492 131.17C366.983 129.811 366.375 128.712 365.668 127.874C364.965 127.02 364.207 126.48 363.394 126.254C362.575 126.018 361.728 126.153 360.852 126.658C359.967 127.17 359.326 127.901 358.93 128.851C358.528 129.791 358.361 130.878 358.43 132.111C358.503 133.329 358.803 134.632 359.329 136.021C359.839 137.38 360.442 138.482 361.139 139.326C361.836 140.17 362.599 140.707 363.428 140.937C364.25 141.158 365.095 141.018 365.961 140.518ZM397.548 140.939C395.383 142.189 393.409 142.929 391.626 143.158C389.842 143.388 388.295 143.185 386.984 142.551C385.674 141.917 384.652 140.932 383.92 139.596L390.607 135.224C390.939 135.662 391.347 135.971 391.831 136.151C392.316 136.33 392.875 136.355 393.508 136.226C394.148 136.106 394.861 135.819 395.648 135.364C396.859 134.665 397.741 133.762 398.296 132.655C398.851 131.547 398.814 130.21 398.185 128.644L396.548 124.275L396.297 124.42C396.307 125.346 396.136 126.278 395.785 127.215C395.434 128.153 394.892 129.043 394.159 129.886C393.425 130.73 392.503 131.472 391.391 132.115C389.727 133.075 388.054 133.529 386.371 133.477C384.682 133.416 383.093 132.732 381.605 131.427C380.111 130.111 378.833 128.047 377.774 125.234C376.688 122.331 376.217 119.697 376.36 117.331C376.497 114.955 377.08 112.92 378.109 111.224C379.147 109.522 380.458 108.214 382.043 107.299C383.234 106.611 384.337 106.25 385.353 106.214C386.364 106.169 387.275 106.338 388.087 106.722C388.899 107.106 389.598 107.589 390.182 108.17L390.389 108.05L388.782 103.802L395.971 99.651L405.334 124.595C406.143 126.701 406.337 128.753 405.918 130.754C405.498 132.754 404.564 134.625 403.116 136.367C401.668 138.108 399.812 139.633 397.548 140.939ZM391.693 124.933C392.568 124.428 393.227 123.739 393.669 122.867C394.11 121.996 394.322 120.988 394.304 119.843C394.287 118.699 394.027 117.464 393.525 116.14C393.011 114.797 392.4 113.739 391.692 112.967C390.988 112.179 390.226 111.7 389.407 111.531C388.587 111.361 387.734 111.532 386.849 112.043C385.953 112.56 385.298 113.266 384.883 114.162C384.478 115.052 384.298 116.081 384.343 117.249C384.392 118.402 384.672 119.637 385.184 120.956C385.686 122.28 386.271 123.327 386.938 124.096C387.615 124.86 388.353 125.319 389.152 125.475C389.96 125.625 390.807 125.445 391.693 124.933ZM411.837 103.481L417.148 117.657L409.929 121.824L400.618 96.9685L407.482 93.0054L409.206 97.5603L409.457 97.4154C409.365 95.6187 409.765 93.9375 410.659 92.3718C411.547 90.7962 412.832 89.5227 414.515 88.5511C416.1 87.6363 417.628 87.2264 419.1 87.3213C420.572 87.4162 421.898 87.9755 423.08 88.9992C424.256 90.013 425.19 91.4614 425.884 93.3442L431.806 109.194L424.588 113.361L419.232 99.0738C418.727 97.699 418.009 96.8079 417.079 96.4004C416.152 95.9775 415.108 96.1012 413.947 96.7717C413.189 97.2092 412.592 97.777 412.155 98.4753C411.723 99.158 411.471 99.9266 411.4 100.781C411.339 101.63 411.485 102.53 411.837 103.481ZM436.231 106.639L426.919 81.7831L434.138 77.6155L443.45 102.471L436.231 106.639ZM429.504 76.7481C428.48 77.339 427.453 77.4796 426.421 77.1699C425.389 76.8602 424.67 76.1932 424.262 75.1689C423.849 74.1347 423.862 73.0444 424.302 71.8979C424.743 70.7515 425.47 69.8856 426.483 69.3004C427.507 68.7095 428.522 68.5696 429.528 68.8809C430.544 69.1865 431.259 69.8563 431.672 70.8905C432.1 71.9034 432.096 72.988 431.661 74.1443C431.237 75.295 430.518 76.1629 429.504 76.7481ZM451.531 67.5736L453.699 73.4077L439.395 81.6662L437.227 75.8321L451.531 67.5736ZM437.973 68.1583L445.191 63.9907L453.818 86.9785C454.005 87.4612 454.222 87.8147 454.47 88.0391C454.722 88.248 455.01 88.3376 455.334 88.308C455.662 88.2628 456.018 88.1295 456.402 87.9079C456.668 87.7545 456.946 87.5545 457.236 87.3079C457.527 87.0614 457.748 86.8751 457.898 86.7489L461.143 91.8235C460.821 92.1533 460.376 92.5747 459.806 93.0874C459.251 93.6044 458.557 94.1297 457.724 94.6634C456.031 95.7322 454.483 96.3572 453.079 96.5382C451.678 96.7037 450.454 96.4132 449.407 95.6666C448.369 94.9143 447.547 93.6959 446.942 92.0115L437.973 68.1583ZM475.099 84.7695C472.708 86.1502 470.45 86.7974 468.327 86.711C466.214 86.6189 464.334 85.8739 462.687 84.4759C461.04 83.078 459.735 81.1021 458.773 78.5481C457.815 76.004 457.432 73.5095 457.621 71.0646C457.81 68.6197 458.558 66.3703 459.866 64.3165C461.173 62.2626 463.013 60.5511 465.384 59.1817C467.766 57.8067 470.013 57.1653 472.127 57.2574C474.25 57.3437 476.135 58.0859 477.781 59.4839C479.438 60.8761 480.751 62.8541 481.719 65.4179C482.676 67.962 483.055 70.4594 482.856 72.91C482.651 75.3508 481.9 77.5952 480.603 79.6433C479.305 81.6915 477.471 83.4002 475.099 84.7695ZM472.766 78.8537C473.652 78.3423 474.291 77.6192 474.682 76.6844C475.084 75.7439 475.251 74.6571 475.182 73.4241C475.113 72.1911 474.818 70.8851 474.297 69.5061C473.788 68.1468 473.18 67.048 472.473 66.2097C471.77 65.3558 471.012 64.8158 470.199 64.5897C469.381 64.3537 468.533 64.4886 467.658 64.9943C466.772 65.5056 466.131 66.2365 465.735 67.1868C465.333 68.1274 465.167 69.2141 465.236 70.4471C465.309 71.6646 465.608 72.9678 466.135 74.3566C466.644 75.7159 467.247 76.8176 467.944 77.6616C468.642 78.5056 469.405 79.0427 470.233 79.273C471.056 79.4935 471.9 79.3537 472.766 78.8537ZM493.822 33.0795L506.258 66.2093L498.95 70.4281L486.515 37.2982L493.822 33.0795ZM512.797 45.1921L518.108 59.3677L510.889 63.5353L501.577 38.6794L508.441 34.7163L510.166 39.2712L510.417 39.1263C510.324 37.3296 510.725 35.6484 511.618 34.0827C512.506 32.5072 513.792 31.2336 515.475 30.262C517.059 29.3472 518.587 28.9373 520.059 29.0322C521.531 29.1272 522.858 29.6865 524.039 30.7101C525.215 31.724 526.15 33.1723 526.843 35.0551L532.766 50.9047L525.548 55.0723L520.192 40.7848C519.687 39.4099 518.969 38.5188 518.038 38.1114C517.112 37.6884 516.068 37.8122 514.907 38.4826C514.149 38.9201 513.552 39.488 513.115 40.1862C512.683 40.8689 512.431 41.6375 512.36 42.492C512.299 43.3408 512.445 44.2408 512.797 45.1921ZM547.963 42.7014C545.572 44.082 543.315 44.7292 541.191 44.6428C539.078 44.5507 537.206 43.8078 535.575 42.414C533.938 41.0104 532.648 39.0386 531.707 36.4986C530.74 33.9602 530.356 31.4657 530.555 29.0151C530.748 26.5547 531.501 24.2898 532.812 22.2204C534.124 20.1511 535.965 18.4317 538.337 17.0624C540.433 15.8522 542.414 15.214 544.278 15.148C546.152 15.0762 547.81 15.5494 549.251 16.5677C550.696 17.5705 551.822 19.0786 552.63 21.092L545.884 24.9869C545.279 23.8013 544.52 23.0323 543.608 22.6798C542.69 22.3174 541.724 22.4288 540.71 23.014C539.854 23.5084 539.203 24.1991 538.758 25.0862C538.316 25.9579 538.109 26.9962 538.135 28.2012C538.166 29.3907 538.459 30.7171 539.015 32.1805C539.572 33.6439 540.21 34.7842 540.931 35.6013C541.657 36.4029 542.426 36.8836 543.24 37.0435C544.058 37.1879 544.891 37.0157 545.737 36.5271C546.406 36.1407 546.944 35.6401 547.35 35.0251C547.756 34.4102 548.011 33.705 548.116 32.9096C548.216 32.1043 548.153 31.2349 547.929 30.3014L554.661 26.4151C555.362 28.5163 555.565 30.5839 555.27 32.6177C554.978 34.636 554.221 36.5168 552.997 38.2602C551.767 39.9937 550.089 41.4741 547.963 42.7014ZM572.811 28.3555C570.42 29.7362 568.162 30.3833 566.039 30.2969C563.926 30.2048 562.046 29.4598 560.399 28.0619C558.752 26.664 557.447 24.688 556.485 22.134C555.527 19.5899 555.144 17.0954 555.333 14.6505C555.522 12.2056 556.27 9.95622 557.578 7.9024C558.885 5.84858 560.725 4.137 563.096 2.76769C565.478 1.39269 567.725 0.751222 569.839 0.843295C571.962 0.929689 573.847 1.67186 575.493 3.06979C577.15 4.46205 578.463 6.44008 579.431 9.00387C580.388 11.548 580.767 14.0453 580.568 16.4959C580.363 18.9367 579.612 21.1811 578.315 23.2293C577.017 25.2774 575.183 26.9862 572.811 28.3555ZM570.478 22.4396C571.364 21.9283 572.003 21.2052 572.394 20.2703C572.796 19.3298 572.963 18.243 572.894 17.01C572.825 15.777 572.53 14.471 572.009 13.092C571.5 11.7327 570.892 10.6339 570.185 9.7956C569.482 8.94175 568.724 8.40177 567.911 8.17564C567.093 7.93967 566.245 8.07452 565.37 8.58021C564.484 9.09157 563.843 9.82243 563.447 10.7728C563.045 11.7133 562.879 12.8001 562.948 14.0331C563.021 15.2505 563.32 16.5537 563.847 17.9425C564.356 19.3018 564.959 20.4035 565.656 21.2475C566.354 22.0915 567.117 22.6287 567.945 22.859C568.768 23.0794 569.612 22.9396 570.478 22.4396ZM602.066 22.8614C599.901 24.1114 597.926 24.851 596.143 25.0802C594.36 25.3094 592.813 25.107 591.502 24.4729C590.191 23.8389 589.17 22.8539 588.438 21.5182L595.125 17.1457C595.456 17.584 595.864 17.893 596.349 18.0727C596.833 18.2523 597.392 18.2773 598.026 18.1477C598.665 18.0278 599.378 17.7406 600.166 17.2861C601.376 16.5872 602.259 15.684 602.813 14.5765C603.368 13.469 603.331 12.1323 602.702 10.5663L601.066 6.19707L600.815 6.34196C600.824 7.26796 600.654 8.19969 600.303 9.13716C599.952 10.0746 599.409 10.965 598.676 11.8084C597.943 12.6517 597.02 13.3944 595.908 14.0364C594.245 14.9966 592.571 15.4509 590.888 15.3992C589.199 15.3377 587.611 14.6541 586.122 13.3485C584.628 12.033 583.351 9.96884 582.291 7.15597C581.205 4.25301 580.734 1.61863 580.877 -0.747142C581.015 -3.12276 581.598 -5.15856 582.626 -6.85454C583.664 -8.5562 584.976 -9.86442 586.56 -10.7792C587.751 -11.4667 588.854 -11.8282 589.87 -11.8637C590.881 -11.9091 591.792 -11.7398 592.604 -11.3558C593.417 -10.9718 594.115 -10.4893 594.7 -9.90842L594.906 -10.0277L593.3 -14.2766L600.489 -18.4271L609.852 6.51737C610.66 8.62239 610.855 10.6752 610.435 12.6757C610.016 14.6762 609.082 16.5473 607.633 18.2888C606.185 20.0304 604.329 21.5545 602.066 22.8614ZM596.21 6.85508C597.086 6.3494 597.744 5.66075 598.186 4.78912C598.628 3.91749 598.839 2.90946 598.822 1.76503C598.804 0.620593 598.544 -0.613676 598.042 -1.93778C597.528 -3.28157 596.918 -4.3395 596.209 -5.11157C595.505 -5.89916 594.744 -6.37782 593.924 -6.54754C593.104 -6.71726 592.252 -6.54643 591.366 -6.03507C590.47 -5.51802 589.815 -4.81177 589.401 -3.9163C588.996 -3.02651 588.816 -1.99748 588.86 -0.829202C588.909 0.323551 589.19 1.55914 589.701 2.87756C590.203 4.20166 590.788 5.24843 591.455 6.01787C592.133 6.78162 592.87 7.24136 593.669 7.39707C594.477 7.54711 595.324 7.36645 596.21 6.85508ZM616.355 -14.597L621.665 -0.421338L614.447 3.74628L605.135 -21.1097L611.999 -25.0727L613.724 -20.5179L613.974 -20.6627C613.882 -22.4594 614.282 -24.1406 615.176 -25.7064C616.064 -27.2819 617.35 -28.5555 619.032 -29.5271C620.617 -30.4418 622.145 -30.8518 623.617 -30.7568C625.089 -30.6619 626.416 -30.1026 627.597 -29.0789C628.773 -28.0651 629.708 -26.6168 630.401 -24.7339L636.324 -8.88441L629.105 -4.71679L623.75 -19.0043C623.245 -20.3791 622.527 -21.2703 621.596 -21.6777C620.67 -22.1006 619.626 -21.9769 618.464 -21.3064C617.707 -20.8689 617.109 -20.3011 616.673 -19.6028C616.24 -18.9201 615.989 -18.1515 615.918 -17.2971C615.857 -16.4483 616.002 -15.5482 616.355 -14.597ZM640.749 -11.4391L631.437 -36.295L638.655 -40.4626L647.967 -15.6067L640.749 -11.4391ZM634.021 -41.33C632.998 -40.7391 631.97 -40.5985 630.938 -40.9082C629.907 -41.2179 629.187 -41.885 628.779 -42.9093C628.366 -43.9434 628.379 -45.0337 628.82 -46.1802C629.26 -47.3267 629.987 -48.1925 631.001 -48.7777C632.024 -49.3686 633.039 -49.5085 634.045 -49.1972C635.062 -48.8917 635.776 -48.2218 636.19 -47.1877C636.617 -46.1747 636.613 -45.0901 636.179 -43.9338C635.754 -42.7832 635.035 -41.9152 634.021 -41.33ZM656.048 -50.5045L658.216 -44.6704L643.912 -36.4119L641.744 -42.246L656.048 -50.5045ZM642.49 -49.9198L649.709 -54.0875L658.336 -31.0996C658.522 -30.617 658.74 -30.2634 658.987 -30.039C659.239 -29.8301 659.527 -29.7405 659.851 -29.7701C660.179 -29.8153 660.535 -29.9487 660.919 -30.1702C661.185 -30.3237 661.463 -30.5236 661.754 -30.7702C662.044 -31.0167 662.265 -31.2031 662.415 -31.3292L665.66 -26.2546C665.339 -25.9248 664.893 -25.5035 664.323 -24.9907C663.768 -24.4738 663.075 -23.9484 662.241 -23.4148C660.549 -22.3459 659 -21.7209 657.596 -21.5399C656.196 -21.3744 654.972 -21.6649 653.924 -22.4115C652.886 -23.1638 652.064 -24.3822 651.459 -26.0666L642.49 -49.9198ZM679.616 -33.3086C677.225 -31.9279 674.968 -31.2808 672.845 -31.3672C670.731 -31.4592 668.851 -32.2042 667.204 -33.6022C665.557 -35.0001 664.253 -36.9761 663.29 -39.53C662.333 -42.0741 661.949 -44.5686 662.138 -47.0136C662.327 -49.4585 663.076 -51.7078 664.383 -53.7617C665.69 -55.8155 667.53 -57.5271 669.902 -58.8964C672.283 -60.2714 674.531 -60.9128 676.644 -60.8208C678.767 -60.7344 680.652 -59.9922 682.299 -58.5943C683.955 -57.202 685.268 -55.224 686.237 -52.6602C687.194 -50.1161 687.573 -47.6187 687.374 -45.1681C687.169 -42.7274 686.418 -40.4829 685.12 -38.4348C683.823 -36.3866 681.988 -34.6779 679.616 -33.3086ZM677.283 -39.2244C678.169 -39.7358 678.808 -40.4589 679.2 -41.3937C679.602 -42.3342 679.768 -43.421 679.699 -44.654C679.63 -45.887 679.335 -47.193 678.815 -48.572C678.305 -49.9313 677.697 -51.0301 676.99 -51.8685C676.287 -52.7223 675.529 -53.2623 674.717 -53.4884C673.898 -53.7244 673.051 -53.5895 672.175 -53.0839C671.289 -52.5725 670.648 -51.8416 670.252 -50.8913C669.851 -49.9508 669.684 -48.864 669.753 -47.631C669.826 -46.4135 670.126 -45.1104 670.652 -43.7215C671.161 -42.3622 671.765 -41.2606 672.462 -40.4165C673.159 -39.5725 673.922 -39.0354 674.75 -38.8051C675.573 -38.5847 676.417 -38.7244 677.283 -39.2244ZM698.339 -84.9987L710.775 -51.8688L703.468 -47.65L691.032 -80.7799L698.339 -84.9987ZM717.314 -72.886L722.625 -58.7104L715.406 -54.5428L706.095 -79.3987L712.959 -83.3618L714.683 -78.8069L714.934 -78.9518C714.841 -80.7485 715.242 -82.4297 716.136 -83.9954C717.024 -85.571 718.309 -86.8445 719.992 -87.8161C721.576 -88.7309 723.105 -89.1408 724.577 -89.0459C726.049 -88.951 727.375 -88.3916 728.557 -87.368C729.733 -86.3541 730.667 -84.9058 731.361 -83.023L737.283 -67.1735L730.065 -63.0059L724.709 -77.2934C724.204 -78.6682 723.486 -79.5593 722.556 -79.9668C721.629 -80.3897 720.585 -80.266 719.424 -79.5955C718.666 -79.158 718.069 -78.5901 717.632 -77.8919C717.2 -77.2092 716.948 -76.4406 716.877 -75.5861C716.816 -74.7373 716.962 -73.8373 717.314 -72.886ZM752.481 -75.3768C750.089 -73.9961 747.832 -73.3489 745.709 -73.4353C743.596 -73.5274 741.723 -74.2703 740.092 -75.6641C738.455 -77.0677 737.166 -79.0395 736.224 -81.5795C735.257 -84.1179 734.873 -86.6124 735.072 -89.063C735.266 -91.5235 736.018 -93.7883 737.33 -95.8577C738.641 -97.927 740.483 -99.6464 742.854 -101.016C744.951 -102.226 746.931 -102.864 748.795 -102.93C750.67 -103.002 752.327 -102.529 753.768 -101.51C755.213 -100.508 756.34 -98.9995 757.148 -96.9861L750.402 -93.0913C749.796 -94.2768 749.037 -95.0458 748.125 -95.3983C747.207 -95.7607 746.241 -95.6493 745.228 -95.0641C744.372 -94.5698 743.721 -93.879 743.275 -92.9919C742.833 -92.1202 742.626 -91.0819 742.652 -89.8769C742.683 -88.6874 742.976 -87.361 743.533 -85.8976C744.089 -84.4342 744.728 -83.2939 745.449 -82.4768C746.174 -81.6752 746.944 -81.1945 747.757 -81.0346C748.576 -80.8903 749.408 -81.0624 750.254 -81.551C750.923 -81.9374 751.461 -82.438 751.867 -83.053C752.273 -83.6679 752.529 -84.3731 752.634 -85.1685C752.733 -85.9738 752.671 -86.8432 752.446 -87.7767L759.178 -91.663C759.879 -89.5618 760.082 -87.4943 759.787 -85.4604C759.496 -83.4421 758.738 -81.5613 757.514 -79.818C756.284 -78.0844 754.606 -76.604 752.481 -75.3768ZM777.328 -89.7226C774.937 -88.342 772.68 -87.6948 770.557 -87.7812C768.443 -87.8733 766.563 -88.6183 764.916 -90.0162C763.27 -91.4142 761.965 -93.3901 761.002 -95.9441C760.045 -98.4882 759.661 -100.983 759.85 -103.428C760.039 -105.873 760.788 -108.122 762.095 -110.176C763.402 -112.23 765.242 -113.941 767.614 -115.31C769.995 -116.685 772.243 -117.327 774.356 -117.235C776.479 -117.148 778.364 -116.406 780.011 -115.008C781.668 -113.616 782.98 -111.638 783.949 -109.074C784.906 -106.53 785.285 -104.033 785.086 -101.582C784.881 -99.1414 784.13 -96.897 782.832 -94.8488C781.535 -92.8007 779.7 -91.092 777.328 -89.7226ZM774.995 -95.6385C775.881 -96.1499 776.52 -96.873 776.912 -97.8078C777.314 -98.7483 777.48 -99.8351 777.411 -101.068C777.342 -102.301 777.047 -103.607 776.527 -104.986C776.017 -106.345 775.409 -107.444 774.702 -108.283C773.999 -109.136 773.241 -109.676 772.429 -109.902C771.61 -110.138 770.763 -110.004 769.887 -109.498C769.001 -108.987 768.36 -108.256 767.964 -107.305C767.563 -106.365 767.396 -105.278 767.465 -104.045C767.538 -102.828 767.838 -101.524 768.364 -100.136C768.873 -98.7763 769.477 -97.6746 770.174 -96.8306C770.871 -95.9866 771.634 -95.4495 772.462 -95.2192C773.285 -94.9987 774.129 -95.1385 774.995 -95.6385ZM806.583 -95.2168C804.418 -93.9668 802.444 -93.2271 800.66 -92.9979C798.877 -92.7687 797.33 -92.9711 796.019 -93.6052C794.708 -94.2392 793.687 -95.2242 792.955 -96.5599L799.642 -100.932C799.974 -100.494 800.382 -100.185 800.866 -100.005C801.35 -99.8258 801.909 -99.8008 802.543 -99.9305C803.182 -100.05 803.896 -100.337 804.683 -100.792C805.893 -101.491 806.776 -102.394 807.331 -103.502C807.885 -104.609 807.848 -105.946 807.22 -107.512L805.583 -111.881L805.332 -111.736C805.342 -110.81 805.171 -109.878 804.82 -108.941C804.469 -108.003 803.927 -107.113 803.193 -106.27C802.46 -105.426 801.537 -104.684 800.425 -104.042C798.762 -103.081 797.089 -102.627 795.406 -102.679C793.717 -102.74 792.128 -103.424 790.639 -104.73C789.145 -106.045 787.868 -108.109 786.808 -110.922C785.723 -113.825 785.252 -116.459 785.395 -118.825C785.532 -121.201 786.115 -123.237 787.143 -124.933C788.182 -126.634 789.493 -127.943 791.077 -128.857C792.268 -129.545 793.372 -129.906 794.388 -129.942C795.398 -129.987 796.309 -129.818 797.122 -129.434C797.934 -129.05 798.632 -128.567 799.217 -127.987L799.424 -128.106L797.817 -132.355L805.006 -136.505L814.369 -111.561C815.178 -109.456 815.372 -107.403 814.952 -105.402C814.533 -103.402 813.599 -101.531 812.151 -99.7893C810.702 -98.0478 808.847 -96.5236 806.583 -95.2168ZM800.727 -111.223C801.603 -111.729 802.262 -112.417 802.703 -113.289C803.145 -114.161 803.357 -115.169 803.339 -116.313C803.321 -117.458 803.061 -118.692 802.559 -120.016C802.046 -121.36 801.435 -122.418 800.727 -123.19C800.023 -123.977 799.261 -124.456 798.441 -124.626C797.622 -124.795 796.769 -124.625 795.883 -124.113C794.988 -123.596 794.333 -122.89 793.918 -121.994C793.513 -121.105 793.333 -120.076 793.378 -118.907C793.427 -117.755 793.707 -116.519 794.219 -115.201C794.721 -113.876 795.305 -112.83 795.973 -112.06C796.65 -111.296 797.388 -110.837 798.186 -110.681C798.994 -110.531 799.842 -110.712 800.727 -111.223ZM820.872 -132.675L826.183 -118.499L818.964 -114.332L809.652 -139.188L816.516 -143.151L818.241 -138.596L818.492 -138.741C818.399 -140.538 818.8 -142.219 819.693 -143.784C820.581 -145.36 821.867 -146.634 823.55 -147.605C825.134 -148.52 826.662 -148.93 828.134 -148.835C829.606 -148.74 830.933 -148.181 832.114 -147.157C833.29 -146.143 834.225 -144.695 834.918 -142.812L840.841 -126.963L833.623 -122.795L828.267 -137.082C827.762 -138.457 827.044 -139.348 826.113 -139.756C825.187 -140.179 824.143 -140.055 822.982 -139.385C822.224 -138.947 821.627 -138.379 821.19 -137.681C820.758 -136.998 820.506 -136.23 820.435 -135.375C820.374 -134.526 820.52 -133.626 820.872 -132.675ZM845.266 -129.517L835.954 -154.373L843.173 -158.541L852.484 -133.685L845.266 -129.517ZM838.538 -159.408C837.515 -158.817 836.487 -158.677 835.456 -158.986C834.424 -159.296 833.704 -159.963 833.297 -160.987C832.883 -162.022 832.897 -163.112 833.337 -164.258C833.777 -165.405 834.504 -166.271 835.518 -166.856C836.541 -167.447 837.556 -167.587 838.563 -167.275C839.579 -166.97 840.294 -166.3 840.707 -165.266C841.134 -164.253 841.131 -163.168 840.696 -162.012C840.271 -160.861 839.552 -159.993 838.538 -159.408ZM860.566 -168.583L862.733 -162.749L848.429 -154.49L846.261 -160.324L860.566 -168.583ZM847.007 -167.998L854.226 -172.166L862.853 -149.178C863.04 -148.695 863.257 -148.342 863.505 -148.117C863.756 -147.908 864.044 -147.819 864.368 -147.848C864.697 -147.893 865.053 -148.027 865.437 -148.248C865.702 -148.402 865.98 -148.602 866.271 -148.848C866.562 -149.095 866.782 -149.281 866.932 -149.407L870.177 -144.333C869.856 -144.003 869.41 -143.582 868.84 -143.069C868.286 -142.552 867.592 -142.027 866.758 -141.493C865.066 -140.424 863.518 -139.799 862.113 -139.618C860.713 -139.452 859.489 -139.743 858.441 -140.49C857.403 -141.242 856.582 -142.46 855.977 -144.145L847.007 -167.998ZM884.134 -151.387C881.742 -150.006 879.485 -149.359 877.362 -149.445C875.249 -149.537 873.369 -150.282 871.722 -151.68C870.075 -153.078 868.77 -155.054 867.807 -157.608C866.85 -160.152 866.466 -162.647 866.655 -165.092C866.845 -167.537 867.593 -169.786 868.9 -171.84C870.208 -173.894 872.047 -175.605 874.419 -176.974C876.8 -178.349 879.048 -178.991 881.161 -178.899C883.284 -178.812 885.169 -178.07 886.816 -176.672C888.473 -175.28 889.785 -173.302 890.754 -170.738C891.711 -168.194 892.09 -165.697 891.891 -163.246C891.686 -160.805 890.935 -158.561 889.637 -156.513C888.34 -154.465 886.505 -152.756 884.134 -151.387ZM881.801 -157.303C882.686 -157.814 883.325 -158.537 883.717 -159.472C884.119 -160.412 884.285 -161.499 884.216 -162.732C884.147 -163.965 883.853 -165.271 883.332 -166.65C882.823 -168.009 882.215 -169.108 881.508 -169.947C880.805 -170.8 880.047 -171.34 879.234 -171.567C878.415 -171.803 877.568 -171.668 876.692 -171.162C875.807 -170.651 875.166 -169.92 874.77 -168.969C874.368 -168.029 874.201 -166.942 874.27 -165.709C874.343 -164.492 874.643 -163.188 875.169 -161.8C875.679 -160.44 876.282 -159.339 876.979 -158.495C877.676 -157.651 878.439 -157.114 879.268 -156.883C880.09 -156.663 880.935 -156.803 881.801 -157.303Z" fill="black"/>
</g>
</svg>
