<svg width="1440" height="447" viewBox="0 0 1440 447" fill="none" xmlns="http://www.w3.org/2000/svg">
<mask id="mask0_1_10" style="mask-type:alpha" maskUnits="userSpaceOnUse" x="0" y="0" width="1440" height="447">
<rect width="1440" height="447" fill="#221B82"/>
</mask>
<g mask="url(#mask0_1_10)">
<path d="M-151.463 122.407L1169.71 -86.8464L1215.57 -23.8391L-105.602 185.414L-151.463 122.407Z" fill="#FFBC12"/>
<path d="M-108.967 247.363L1431.69 463.888L1380.24 529.104L-160.417 312.578L-108.967 247.363Z" fill="#FFBC12"/>
<path d="M-162.961 140.828L-148.141 169.959L-156.475 171.279L-171.294 142.148L-162.961 140.828ZM-140.956 155.356L-134.627 167.818L-142.859 169.122L-153.957 147.271L-146.128 146.031L-144.074 150.04L-143.788 149.995C-143.923 148.572 -143.489 147.371 -142.486 146.392C-141.49 145.404 -140.033 144.758 -138.113 144.454C-136.306 144.168 -134.556 144.26 -132.862 144.729C-131.169 145.199 -129.635 145.991 -128.26 147.105C-126.892 148.211 -125.795 149.589 -124.968 151.241L-117.909 165.17L-126.141 166.474L-132.524 153.913C-133.126 152.707 -133.966 151.821 -135.042 151.254C-136.114 150.675 -137.312 150.491 -138.636 150.701C-139.501 150.838 -140.178 151.119 -140.669 151.545C-141.156 151.96 -141.433 152.491 -141.501 153.137C-141.558 153.781 -141.376 154.521 -140.956 155.356ZM-100.568 162.87C-103.295 163.301 -105.88 163.199 -108.322 162.561C-110.753 161.921 -112.917 160.839 -114.814 159.316C-116.719 157.783 -118.232 155.902 -119.354 153.672C-120.506 151.436 -120.987 149.391 -120.797 147.537C-120.613 145.674 -119.784 144.113 -118.309 142.855C-116.834 141.597 -114.744 140.753 -112.039 140.325C-109.649 139.946 -107.382 139.982 -105.24 140.431C-103.086 140.879 -101.173 141.693 -99.5005 142.873C-97.8236 144.042 -96.5046 145.519 -95.5438 147.303L-103.238 148.522C-103.953 147.436 -104.837 146.633 -105.891 146.114C-106.952 145.585 -108.061 145.412 -109.217 145.595C-110.193 145.75 -110.931 146.113 -111.429 146.684C-111.923 147.243 -112.145 147.996 -112.095 148.941C-112.041 149.875 -111.683 150.986 -111.02 152.275C-110.358 153.564 -109.606 154.623 -108.764 155.453C-107.917 156.272 -107.025 156.853 -106.087 157.196C-105.144 157.528 -104.19 157.618 -103.225 157.465C-102.461 157.344 -101.851 157.099 -101.394 156.729C-100.937 156.36 -100.655 155.88 -100.547 155.289C-100.445 154.689 -100.531 153.995 -100.803 153.208L-93.1258 151.992C-92.2862 153.816 -92.0202 155.48 -92.3276 156.984C-92.6306 158.477 -93.4719 159.737 -94.8516 160.765C-96.238 161.784 -98.1434 162.486 -100.568 162.87ZM-72.2292 158.381C-74.9566 158.813 -77.5413 158.71 -79.9834 158.072C-82.4143 157.433 -84.5874 156.347 -86.5027 154.817C-88.4181 153.286 -89.9493 151.397 -91.0965 149.15C-92.237 146.913 -92.7178 144.868 -92.5388 143.015C-92.3599 141.163 -91.5352 139.613 -90.0647 138.366C-88.5943 137.119 -86.5066 136.281 -83.8016 135.852C-81.0855 135.422 -78.512 135.527 -76.0811 136.167C-73.6391 136.804 -71.4603 137.889 -69.545 139.42C-67.6184 140.949 -66.0782 142.841 -64.9243 145.097C-63.7838 147.335 -63.3087 149.381 -63.4988 151.235C-63.6957 153.079 -64.5237 154.625 -65.983 155.87C-67.4422 157.116 -69.5243 157.953 -72.2292 158.381ZM-75.0047 153.149C-73.9946 152.989 -73.2716 152.598 -72.8359 151.976C-72.3889 151.352 -72.2147 150.55 -72.3134 149.572C-72.4121 148.594 -72.7716 147.498 -73.3919 146.285C-73.9988 145.09 -74.7153 144.071 -75.5414 143.228C-76.363 142.375 -77.2428 141.751 -78.1809 141.356C-79.1256 140.952 -80.0975 140.83 -81.0964 140.988C-82.1065 141.148 -82.8317 141.545 -83.272 142.178C-83.719 142.802 -83.8932 143.603 -83.7945 144.581C-83.6912 145.549 -83.3261 146.644 -82.6991 147.866C-82.0922 149.061 -81.3813 150.081 -80.5665 150.925C-79.7516 151.77 -78.8661 152.393 -77.9102 152.795C-76.9609 153.187 -75.9924 153.306 -75.0047 153.149ZM-38.6846 161.967C-41.1538 162.359 -43.4117 162.404 -45.4583 162.103C-47.5049 161.802 -49.2867 161.228 -50.8037 160.383C-52.3206 159.537 -53.5103 158.495 -54.3728 157.259L-46.7545 155.653C-46.3662 156.083 -45.8922 156.433 -45.3327 156.703C-44.7732 156.973 -44.1302 157.143 -43.4037 157.212C-42.6706 157.291 -41.855 157.259 -40.9571 157.117C-39.5766 156.898 -38.5763 156.432 -37.9562 155.719C-37.3361 155.006 -37.3997 153.956 -38.147 152.568L-40.0978 148.727L-40.384 148.772C-40.3581 149.496 -40.5396 150.175 -40.9283 150.811C-41.317 151.446 -41.9263 151.993 -42.7561 152.453C-43.5859 152.912 -44.635 153.242 -45.9032 153.443C-47.8001 153.743 -49.7164 153.647 -51.6522 153.155C-53.5947 152.653 -55.4319 151.694 -57.1638 150.277C-58.9024 148.852 -60.4032 146.902 -61.6659 144.427C-62.9598 141.876 -63.5431 139.699 -63.416 137.896C-63.2955 136.083 -62.6576 134.655 -61.5021 133.612C-60.3354 132.566 -58.8485 131.9 -57.0415 131.614C-55.6834 131.399 -54.4206 131.414 -53.253 131.659C-52.0922 131.896 -51.0419 132.272 -50.1021 132.79C-49.1624 133.307 -48.3518 133.87 -47.6705 134.479L-47.4348 134.442L-49.349 130.703L-41.1501 129.404L-29.9921 151.338C-29.0294 153.194 -28.7733 154.844 -29.2241 156.288C-29.6748 157.733 -30.7189 158.938 -32.3563 159.905C-33.9937 160.871 -36.1031 161.559 -38.6846 161.967ZM-45.6694 147.934C-44.6705 147.776 -43.9242 147.417 -43.4304 146.857C-42.9366 146.297 -42.7089 145.57 -42.7475 144.674C-42.786 143.778 -43.1043 142.748 -43.7023 141.582C-44.3138 140.398 -45.0327 139.411 -45.859 138.619C-46.6808 137.817 -47.5642 137.24 -48.5092 136.887C-49.4542 136.535 -50.4317 136.438 -51.4419 136.598C-52.4632 136.76 -53.2052 137.134 -53.6677 137.72C-54.119 138.303 -54.3097 139.056 -54.2399 139.977C-54.1656 140.888 -53.8238 141.925 -53.2145 143.089C-52.6164 144.254 -51.9277 145.226 -51.1484 146.005C-50.3579 146.781 -49.5025 147.337 -48.5821 147.673C-47.6505 148.007 -46.6796 148.094 -45.6694 147.934ZM-22.8499 136.65L-16.5207 149.112L-24.7533 150.416L-35.8511 128.565L-28.0225 127.325L-25.9682 131.334L-25.682 131.289C-25.8168 129.865 -25.3829 128.664 -24.3802 127.686C-23.3842 126.698 -21.9266 126.052 -20.0074 125.748C-18.2003 125.462 -16.45 125.554 -14.7563 126.023C-13.0627 126.493 -11.5287 127.285 -10.1542 128.399C-8.7865 129.504 -7.68919 130.883 -6.8623 132.535L0.197037 146.464L-8.03557 147.768L-14.4181 135.207C-15.0205 134.001 -15.8599 133.115 -16.9362 132.547C-18.008 131.969 -19.2061 131.785 -20.5305 131.995C-21.3948 132.132 -22.0723 132.413 -22.5633 132.839C-23.0497 133.254 -23.3269 133.785 -23.3949 134.431C-23.4517 135.075 -23.27 135.815 -22.8499 136.65ZM5.24351 145.665L-5.85424 123.814L2.37837 122.51L13.4761 144.361L5.24351 145.665ZM-2.96269 120.59C-4.12996 120.774 -5.30908 120.608 -6.50005 120.089C-7.69102 119.571 -8.52893 118.858 -9.01378 117.951C-9.50532 117.035 -9.50707 116.19 -9.01901 115.416C-8.53096 114.642 -7.70891 114.163 -6.55287 113.98C-5.3856 113.795 -4.22105 113.959 -3.05921 114.472C-1.88615 114.983 -1.05385 115.697 -0.562314 116.613C-0.0550114 117.516 -0.042044 118.359 -0.523411 119.143C-0.993553 119.924 -1.80665 120.406 -2.96269 120.59ZM22.2149 119.368L24.7991 124.492L8.48542 127.076L5.90122 121.952L22.2149 119.368ZM6.63756 116.179L14.8702 114.875L25.1511 135.088C25.3734 135.514 25.6287 135.848 25.917 136.089C26.2098 136.319 26.5422 136.466 26.9143 136.53C27.2909 136.583 27.6981 136.575 28.1358 136.506C28.4388 136.458 28.7555 136.377 29.0857 136.263C29.416 136.149 29.6665 136.064 29.8372 136.006L33.6476 140.828C33.2834 140.998 32.7777 141.207 32.1306 141.453C31.5014 141.706 30.7119 141.928 29.7622 142.12C27.8336 142.497 26.0635 142.567 24.4517 142.331C22.8446 142.083 21.4328 141.528 20.2165 140.665C19.0114 139.801 18.0477 138.631 17.3254 137.158L6.63756 116.179ZM49.5805 139.088C46.8532 139.52 44.2684 139.417 41.8264 138.779C39.3955 138.14 37.2224 137.055 35.307 135.524C33.3917 133.993 31.8604 132.104 30.7132 129.857C29.5728 127.62 29.092 125.575 29.2709 123.723C29.4499 121.87 30.2746 120.321 31.745 119.073C33.2155 117.826 35.3032 116.988 38.0081 116.56C40.7243 116.129 43.2978 116.234 45.7286 116.874C48.1707 117.512 50.3494 118.596 52.2648 120.127C54.1914 121.656 55.7316 123.548 56.8854 125.804C58.0259 128.042 58.5011 130.088 58.3109 131.942C58.1141 133.787 57.286 135.332 55.8268 136.577C54.3675 137.823 52.2855 138.66 49.5805 139.088ZM46.8051 133.856C47.8152 133.696 48.5381 133.305 48.9739 132.683C49.4209 132.059 49.595 131.258 49.4963 130.279C49.3976 129.301 49.0381 128.205 48.4178 126.992C47.8109 125.797 47.0944 124.778 46.2683 123.935C45.4468 123.082 44.5669 122.458 43.6289 122.063C42.6841 121.66 41.7123 121.537 40.7134 121.695C39.7032 121.855 38.978 122.252 38.5377 122.885C38.0907 123.509 37.9166 124.31 38.0153 125.289C38.1185 126.256 38.4837 127.351 39.1106 128.573C39.7175 129.768 40.4284 130.788 41.2433 131.633C42.0582 132.477 42.9436 133.1 43.8996 133.502C44.8489 133.895 45.8174 134.013 46.8051 133.856ZM70.2879 103.885L85.1074 133.016L76.7738 134.336L61.9543 105.205L70.2879 103.885ZM92.293 118.413L98.6222 130.875L90.3895 132.179L79.2918 110.328L87.1204 109.088L89.1747 113.097L89.4609 113.052C89.3261 111.629 89.76 110.428 90.7627 109.449C91.7586 108.461 93.2162 107.815 95.1355 107.512C96.9425 107.225 98.6929 107.317 100.387 107.786C102.08 108.256 103.614 109.048 104.989 110.162C106.356 111.268 107.454 112.646 108.281 114.298L115.34 128.227L107.107 129.531L100.725 116.97C100.122 115.764 99.283 114.878 98.2067 114.311C97.1348 113.732 95.9367 113.548 94.6123 113.758C93.7481 113.895 93.0705 114.176 92.5796 114.602C92.0932 115.018 91.8159 115.548 91.7479 116.194C91.6912 116.839 91.8728 117.578 92.293 118.413ZM132.681 125.927C129.954 126.358 127.369 126.256 124.927 125.618C122.496 124.978 120.332 123.896 118.434 122.373C116.53 120.84 115.017 118.959 113.894 116.729C112.743 114.493 112.262 112.448 112.452 110.594C112.636 108.731 113.465 107.17 114.94 105.912C116.415 104.654 118.505 103.81 121.21 103.382C123.6 103.003 125.867 103.039 128.009 103.488C130.163 103.936 132.076 104.75 133.748 105.93C135.425 107.099 136.744 108.576 137.705 110.36L130.011 111.579C129.296 110.493 128.411 109.69 127.357 109.171C126.297 108.642 125.188 108.469 124.032 108.652C123.056 108.807 122.318 109.17 121.82 109.741C121.326 110.3 121.104 111.053 121.153 111.998C121.207 112.932 121.566 114.043 122.228 115.332C122.891 116.621 123.643 117.68 124.485 118.51C125.331 119.329 126.224 119.91 127.162 120.253C128.105 120.585 129.059 120.675 130.024 120.522C130.787 120.401 131.397 120.156 131.855 119.786C132.312 119.417 132.594 118.937 132.702 118.346C132.804 117.746 132.718 117.052 132.446 116.265L140.123 115.049C140.963 116.873 141.229 118.537 140.921 120.041C140.618 121.534 139.777 122.794 138.397 123.822C137.011 124.841 135.105 125.543 132.681 125.927ZM161.02 121.438C158.292 121.87 155.707 121.767 153.265 121.129C150.835 120.49 148.661 119.404 146.746 117.874C144.831 116.343 143.299 114.454 142.152 112.207C141.012 109.97 140.531 107.925 140.71 106.072C140.889 104.22 141.714 102.67 143.184 101.423C144.655 100.176 146.742 99.3378 149.447 98.9094C152.163 98.4792 154.737 98.5839 157.168 99.2236C159.61 99.8615 161.788 100.946 163.704 102.477C165.63 104.006 167.171 105.898 168.324 108.154C169.465 110.392 169.94 112.438 169.75 114.292C169.553 116.136 168.725 117.682 167.266 118.927C165.807 120.173 163.724 121.01 161.02 121.438ZM158.244 116.206C159.254 116.046 159.977 115.655 160.413 115.033C160.86 114.409 161.034 113.607 160.935 112.629C160.837 111.651 160.477 110.555 159.857 109.342C159.25 108.147 158.533 107.128 157.707 106.285C156.886 105.432 156.006 104.808 155.068 104.413C154.123 104.009 153.151 103.887 152.152 104.045C151.142 104.205 150.417 104.602 149.977 105.235C149.53 105.859 149.356 106.66 149.454 107.638C149.558 108.606 149.923 109.701 150.55 110.923C151.157 112.118 151.867 113.138 152.682 113.982C153.497 114.827 154.383 115.45 155.339 115.852C156.288 116.244 157.256 116.363 158.244 116.206ZM194.564 125.025C192.095 125.416 189.837 125.461 187.79 125.16C185.744 124.859 183.962 124.285 182.445 123.44C180.928 122.594 179.738 121.553 178.876 120.316L186.494 118.71C186.883 119.14 187.357 119.49 187.916 119.76C188.476 120.03 189.119 120.2 189.845 120.269C190.578 120.348 191.394 120.316 192.292 120.174C193.672 119.955 194.672 119.489 195.293 118.776C195.913 118.063 195.849 117.013 195.102 115.625L193.151 111.784L192.865 111.829C192.891 112.553 192.709 113.232 192.32 113.868C191.932 114.503 191.323 115.05 190.493 115.51C189.663 115.969 188.614 116.299 187.346 116.5C185.449 116.8 183.532 116.704 181.597 116.212C179.654 115.71 177.817 114.751 176.085 113.334C174.346 111.909 172.846 109.959 171.583 107.484C170.289 104.933 169.706 102.756 169.833 100.953C169.953 99.1403 170.591 97.7123 171.747 96.6686C172.913 95.6231 174.4 94.9572 176.207 94.671C177.565 94.4559 178.828 94.4711 179.996 94.7165C181.157 94.9528 182.207 95.3295 183.147 95.8467C184.086 96.3639 184.897 96.9272 185.578 97.5365L185.814 97.4992L183.9 93.76L192.099 92.4614L203.257 114.395C204.219 116.251 204.475 117.901 204.025 119.345C203.574 120.79 202.53 121.995 200.892 122.962C199.255 123.928 197.146 124.616 194.564 125.025ZM187.579 110.991C188.578 110.833 189.325 110.474 189.818 109.914C190.312 109.354 190.54 108.627 190.501 107.731C190.463 106.835 190.145 105.805 189.546 104.639C188.935 103.455 188.216 102.468 187.39 101.676C186.568 100.874 185.685 100.297 184.74 99.9441C183.795 99.5917 182.817 99.4955 181.807 99.6555C180.786 99.8173 180.044 100.191 179.581 100.777C179.13 101.36 178.939 102.113 179.009 103.034C179.083 103.945 179.425 104.982 180.034 106.146C180.632 107.311 181.321 108.283 182.1 109.062C182.891 109.838 183.746 110.394 184.667 110.73C185.598 111.064 186.569 111.151 187.579 110.991ZM210.399 99.7073L216.728 112.169L208.495 113.473L197.398 91.6222L205.226 90.3822L207.281 94.3913L207.567 94.3459C207.432 92.9225 207.866 91.7215 208.869 90.7429C209.865 89.7552 211.322 89.1093 213.241 88.8054C215.048 88.5192 216.799 88.6108 218.492 89.0803C220.186 89.5499 221.72 90.3418 223.095 91.4562C224.462 92.5614 225.56 93.94 226.386 95.592L233.446 109.521L225.213 110.825L218.831 98.2642C218.228 97.0583 217.389 96.1717 216.313 95.6044C215.241 95.0261 214.043 94.8419 212.718 95.0517C211.854 95.1885 211.176 95.47 210.685 95.8962C210.199 96.3114 209.922 96.842 209.854 97.4881C209.797 98.1324 209.979 98.8721 210.399 99.7073ZM238.492 108.722L227.395 86.8711L235.627 85.5672L246.725 107.418L238.492 108.722ZM230.286 83.6465C229.119 83.8314 227.94 83.6647 226.749 83.1463C225.558 82.6279 224.72 81.9152 224.235 81.0083C223.743 80.0922 223.742 79.2472 224.23 78.4731C224.718 77.699 225.54 77.2204 226.696 77.0373C227.863 76.8524 229.028 77.0164 230.19 77.5291C231.363 78.0401 232.195 78.7537 232.686 79.6697C233.194 80.5731 233.207 81.4164 232.725 82.1997C232.255 82.9811 231.442 83.4634 230.286 83.6465ZM255.464 82.4254L258.048 87.5494L241.734 90.1332L239.15 85.0093L255.464 82.4254ZM239.886 79.2364L248.119 77.9325L258.4 98.1451C258.622 98.571 258.878 98.9046 259.166 99.1458C259.459 99.3761 259.791 99.5233 260.163 99.5873C260.54 99.6404 260.947 99.6322 261.385 99.5629C261.688 99.5149 262.004 99.434 262.335 99.3202C262.665 99.2064 262.915 99.1207 263.086 99.0629L266.896 103.885C266.532 104.055 266.027 104.264 265.379 104.51C264.75 104.763 263.961 104.985 263.011 105.177C261.082 105.554 259.312 105.624 257.701 105.388C256.093 105.14 254.682 104.585 253.465 103.722C252.26 102.858 251.297 101.688 250.574 100.215L239.886 79.2364ZM282.829 102.145C280.102 102.577 277.517 102.474 275.075 101.837C272.644 101.197 270.471 100.112 268.556 98.5808C266.64 97.05 265.109 95.1612 263.962 92.9144C262.822 90.6768 262.341 88.6319 262.52 86.7796C262.699 84.9274 263.523 83.3776 264.994 82.1302C266.464 80.8829 268.552 80.045 271.257 79.6166C273.973 79.1864 276.547 79.2912 278.977 79.9308C281.419 80.5687 283.598 81.6531 285.514 83.1839C287.44 84.7129 288.98 86.6054 290.134 88.8614C291.275 91.099 291.75 93.1448 291.56 94.9988C291.363 96.8437 290.535 98.3889 289.076 99.6344C287.616 100.88 285.534 101.717 282.829 102.145ZM280.054 96.9134C281.064 96.7534 281.787 96.3622 282.223 95.7399C282.67 95.1158 282.844 94.3146 282.745 93.3363C282.646 92.358 282.287 91.2621 281.667 90.0488C281.06 88.8538 280.343 87.8351 279.517 86.9925C278.696 86.1389 277.816 85.5149 276.878 85.1203C275.933 84.7167 274.961 84.5939 273.962 84.7521C272.952 84.9121 272.227 85.3088 271.787 85.9421C271.34 86.5662 271.165 87.3674 271.264 88.3457C271.367 89.313 271.732 90.408 272.359 91.6305C272.966 92.8255 273.677 93.8451 274.492 94.6895C275.307 95.5339 276.192 96.157 277.148 96.559C278.098 96.9517 279.066 97.0698 280.054 96.9134ZM303.537 66.9419L318.356 96.0727L310.023 97.3927L295.203 68.2618L303.537 66.9419ZM325.542 81.4704L331.871 93.9322L323.638 95.2361L312.541 73.3853L320.369 72.1454L322.423 76.1544L322.71 76.1091C322.575 74.6856 323.009 73.4846 324.011 72.5061C325.007 71.5184 326.465 70.8725 328.384 70.5685C330.191 70.2823 331.942 70.374 333.635 70.8435C335.329 71.313 336.863 72.105 338.237 73.2194C339.605 74.3246 340.702 75.7032 341.529 77.3551L348.589 91.2844L340.356 92.5883L333.974 80.0274C333.371 78.8214 332.532 77.9348 331.455 77.3675C330.384 76.7893 329.186 76.605 327.861 76.8148C326.997 76.9517 326.319 77.2332 325.828 77.6594C325.342 78.0745 325.065 78.6052 324.997 79.2512C324.94 79.8955 325.122 80.6353 325.542 81.4704ZM365.93 88.9835C363.202 89.4155 360.618 89.3126 358.176 88.6747C355.745 88.035 353.581 86.9535 351.683 85.4301C349.779 83.8975 348.266 82.0161 347.143 79.7859C345.991 77.5501 345.511 75.5052 345.701 73.6511C345.884 71.7879 346.714 70.2271 348.189 68.9689C349.664 67.7106 351.754 66.8672 354.458 66.4388C356.849 66.0602 359.116 66.0957 361.258 66.5454C363.412 66.9933 365.325 67.8072 366.997 68.9871C368.674 70.156 369.993 71.6327 370.954 73.4171L363.26 74.6357C362.545 73.5501 361.66 72.7475 360.606 72.2279C359.545 71.6992 358.437 71.5264 357.281 71.7095C356.304 71.8641 355.567 72.2268 355.069 72.7976C354.575 73.3574 354.353 74.1099 354.402 75.055C354.456 75.9891 354.815 77.1005 355.477 78.3891C356.14 79.6777 356.892 80.737 357.734 81.5668C358.58 82.3857 359.472 82.9668 360.411 83.31C361.354 83.6423 362.308 83.732 363.273 83.5791C364.036 83.4582 364.646 83.213 365.103 82.8434C365.56 82.4739 365.843 81.9937 365.951 81.4027C366.052 80.8026 365.967 80.1091 365.695 79.3222L373.372 78.1063C374.211 79.9305 374.477 81.5944 374.17 83.0981C373.867 84.5909 373.026 85.8513 371.646 86.8793C370.26 87.8982 368.354 88.5996 365.93 88.9835ZM394.268 84.4952C391.541 84.9271 388.956 84.8242 386.514 84.1863C384.083 83.5466 381.91 82.4614 379.995 80.9306C378.08 79.3998 376.548 77.511 375.401 75.2642C374.261 73.0266 373.78 70.9817 373.959 69.1294C374.138 67.2771 374.962 65.7274 376.433 64.48C377.903 63.2327 379.991 62.3948 382.696 61.9664C385.412 61.5362 387.986 61.641 390.416 62.2806C392.859 62.9185 395.037 64.0028 396.953 65.5337C398.879 67.0627 400.419 68.9552 401.573 71.2112C402.714 73.4488 403.189 75.4946 402.999 77.3486C402.802 79.1935 401.974 80.7387 400.515 81.9842C399.055 83.2298 396.973 84.0667 394.268 84.4952ZM391.493 79.2632C392.503 79.1032 393.226 78.712 393.662 78.0897C394.109 77.4656 394.283 76.6644 394.184 75.6861C394.085 74.7078 393.726 73.6119 393.106 72.3986C392.499 71.2036 391.782 70.1848 390.956 69.3422C390.135 68.4887 389.255 67.8646 388.317 67.4701C387.372 67.0665 386.4 66.9437 385.401 67.1019C384.391 67.2619 383.666 67.6586 383.226 68.2919C382.779 68.916 382.604 69.7172 382.703 70.6955C382.806 71.6628 383.171 72.7578 383.798 73.9803C384.405 75.1753 385.116 76.1949 385.931 77.0393C386.746 77.8837 387.631 78.5068 388.587 78.9087C389.537 79.3015 390.505 79.4196 391.493 79.2632ZM427.813 88.0815C425.344 88.4726 423.086 88.5177 421.039 88.2168C418.993 87.9159 417.211 87.3425 415.694 86.4966C414.177 85.6507 412.987 84.6095 412.125 83.3731L419.743 81.7668C420.131 82.1972 420.605 82.5473 421.165 82.8174C421.724 83.0874 422.367 83.2571 423.094 83.3265C423.827 83.405 424.643 83.3732 425.54 83.231C426.921 83.0123 427.921 82.5465 428.541 81.8335C429.162 81.1205 429.098 80.07 428.351 78.6821L426.4 74.8411L426.114 74.8865C426.139 75.6099 425.958 76.2893 425.569 76.9247C425.181 77.5601 424.571 78.1074 423.741 78.5667C422.912 79.0261 421.863 79.3562 420.594 79.557C418.698 79.8575 416.781 79.7614 414.845 79.2687C412.903 78.7669 411.066 77.8078 409.334 76.3914C407.595 74.9658 406.094 73.0158 404.832 70.5414C403.538 67.9899 402.954 65.8127 403.082 64.0096C403.202 62.1973 403.84 60.7693 404.996 59.7256C406.162 58.6801 407.649 58.0142 409.456 57.728C410.814 57.5129 412.077 57.5281 413.245 57.7735C414.405 58.0098 415.456 58.3865 416.395 58.9037C417.335 59.4209 418.146 59.9842 418.827 60.5935L419.063 60.5562L417.149 56.8171L425.348 55.5185L436.505 77.452C437.468 79.3078 437.724 80.958 437.274 82.4024C436.823 83.8469 435.779 85.0523 434.141 86.0187C432.504 86.985 430.394 87.6727 427.813 88.0815ZM420.828 74.0482C421.827 73.89 422.573 73.531 423.067 72.9712C423.561 72.4114 423.789 71.6837 423.75 70.7881C423.712 69.8925 423.393 68.8618 422.795 67.6962C422.184 66.5122 421.465 65.5246 420.639 64.7332C419.817 63.9309 418.933 63.3536 417.988 63.0012C417.043 62.6487 416.066 62.5525 415.056 62.7125C414.034 62.8743 413.292 63.248 412.83 63.8336C412.379 64.4174 412.188 65.17 412.258 66.0914C412.332 67.0018 412.674 68.0389 413.283 69.2028C413.881 70.3684 414.57 71.3404 415.349 72.1187C416.14 72.8952 416.995 73.4513 417.916 73.7872C418.847 74.1212 419.818 74.2082 420.828 74.0482ZM443.648 62.7643L449.977 75.2261L441.744 76.53L430.647 54.6792L438.475 53.4393L440.529 57.4483L440.816 57.4029C440.681 55.9795 441.115 54.7785 442.117 53.8C443.113 52.8122 444.571 52.1664 446.49 51.8624C448.297 51.5762 450.048 51.6678 451.741 52.1374C453.435 52.6069 454.969 53.3988 456.343 54.5132C457.711 55.6184 458.808 56.997 459.635 58.649L466.695 72.5782L458.462 73.8822L452.079 61.3212C451.477 60.1153 450.638 59.2287 449.561 58.6614C448.49 58.0832 447.291 57.8989 445.967 58.1087C445.103 58.2456 444.425 58.5271 443.934 58.9532C443.448 59.3684 443.171 59.899 443.103 60.5451C443.046 61.1894 443.228 61.9291 443.648 62.7643ZM471.741 71.779L460.643 49.9282L468.876 48.6242L479.974 70.475L471.741 71.779ZM463.535 46.7036C462.368 46.8884 461.189 46.7217 459.998 46.2033C458.807 45.6849 457.969 44.9722 457.484 44.0653C456.992 43.1493 456.991 42.3042 457.479 41.5301C457.967 40.756 458.789 40.2774 459.945 40.0943C461.112 39.9095 462.277 40.0734 463.438 40.5862C464.611 41.0972 465.444 41.8107 465.935 42.7268C466.443 43.6301 466.456 44.4734 465.974 45.2567C465.504 46.0382 464.691 46.5205 463.535 46.7036ZM488.713 45.4824L491.297 50.6064L474.983 53.1902L472.399 48.0663L488.713 45.4824ZM473.135 42.2934L481.368 40.9895L491.649 61.2021C491.871 61.628 492.126 61.9616 492.415 62.2028C492.707 62.4331 493.04 62.5803 493.412 62.6443C493.788 62.6974 494.196 62.6893 494.633 62.6199C494.936 62.5719 495.253 62.491 495.583 62.3773C495.914 62.2635 496.164 62.1777 496.335 62.1199L500.145 66.9421C499.781 67.1124 499.275 67.3206 498.628 67.5666C497.999 67.8199 497.209 68.0423 496.26 68.2337C494.331 68.6109 492.561 68.6812 490.949 68.4446C489.342 68.1971 487.93 67.642 486.714 66.7792C485.509 65.9146 484.545 64.7454 483.823 63.2716L473.135 42.2934ZM516.078 65.2024C513.351 65.6344 510.766 65.5314 508.324 64.8935C505.893 64.2539 503.72 63.1686 501.805 61.6378C499.889 60.107 498.358 58.2182 497.211 55.9714C496.07 53.7338 495.59 51.6889 495.769 49.8366C495.947 47.9844 496.772 46.4346 498.243 45.1873C499.713 43.9399 501.801 43.1021 504.506 42.6736C507.222 42.2434 509.795 42.3482 512.226 42.9878C514.668 43.6257 516.847 44.7101 518.762 46.2409C520.689 47.7699 522.229 49.6624 523.383 51.9184C524.524 54.156 524.999 56.2018 524.809 58.0558C524.612 59.9007 523.784 61.4459 522.324 62.6914C520.865 63.937 518.783 64.774 516.078 65.2024ZM513.303 59.9704C514.313 59.8104 515.036 59.4193 515.471 58.7969C515.918 58.1728 516.093 57.3716 515.994 56.3933C515.895 55.415 515.536 54.3192 514.915 53.1058C514.309 51.9109 513.592 50.8921 512.766 50.0495C511.944 49.1959 511.065 48.5719 510.126 48.1774C509.182 47.7737 508.21 47.6509 507.211 47.8092C506.201 47.9691 505.476 48.3658 505.035 48.9991C504.588 49.6232 504.414 50.4244 504.513 51.4027C504.616 52.3701 504.981 53.465 505.608 54.6875C506.215 55.8825 506.926 56.9022 507.741 57.7465C508.556 58.5909 509.441 59.2141 510.397 59.616C511.346 60.0087 512.315 60.1268 513.303 59.9704ZM536.786 29.9989L551.605 59.1298L543.271 60.4497L528.452 31.3188L536.786 29.9989ZM558.791 44.5274L565.12 56.9892L556.887 58.2932L545.789 36.4423L553.618 35.2024L555.672 39.2114L555.958 39.1661C555.824 37.7427 556.258 36.5417 557.26 35.5631C558.256 34.5754 559.714 33.9295 561.633 33.6256C563.44 33.3393 565.19 33.431 566.884 33.9005C568.578 34.37 570.112 35.162 571.486 36.2764C572.854 37.3816 573.951 38.7602 574.778 40.4121L581.837 54.3414L573.605 55.6453L567.222 43.0844C566.62 41.8785 565.781 40.9919 564.704 40.4246C563.632 39.8463 562.434 39.6621 561.11 39.8718C560.246 40.0087 559.568 40.2902 559.077 40.7164C558.591 41.1316 558.314 41.6622 558.246 42.3083C558.189 42.9525 558.37 43.6923 558.791 44.5274ZM599.179 52.0406C596.451 52.4725 593.867 52.3696 591.424 51.7317C588.994 51.092 586.829 50.0105 584.932 48.4871C583.028 46.9545 581.515 45.0731 580.392 42.8429C579.24 40.6071 578.759 38.5622 578.95 36.7082C579.133 34.8449 579.962 33.2842 581.437 32.0259C582.912 30.7676 585.002 29.9242 587.707 29.4958C590.098 29.1172 592.364 29.1527 594.507 29.6024C596.66 30.0503 598.573 30.8642 600.246 32.0441C601.923 33.213 603.242 34.6897 604.203 36.4742L596.509 37.6927C595.794 36.6071 594.909 35.8045 593.855 35.285C592.794 34.7562 591.686 34.5834 590.53 34.7665C589.553 34.9211 588.816 35.2838 588.317 35.8546C587.824 36.4144 587.601 37.1669 587.651 38.112C587.705 39.0461 588.063 40.1575 588.726 41.4461C589.388 42.7347 590.141 43.794 590.983 44.6238C591.829 45.4427 592.721 46.0238 593.66 46.367C594.602 46.6993 595.556 46.789 596.522 46.6361C597.285 46.5152 597.895 46.27 598.352 45.9005C598.809 45.5309 599.092 45.0507 599.2 44.4597C599.301 43.8596 599.216 43.1661 598.944 42.3793L606.621 41.1633C607.46 42.9875 607.726 44.6514 607.419 46.1552C607.116 47.6479 606.274 48.9083 604.895 49.9364C603.508 50.9552 601.603 51.6566 599.179 52.0406ZM627.517 47.5522C624.79 47.9842 622.205 47.8812 619.763 47.2433C617.332 46.6037 615.159 45.5184 613.244 43.9876C611.328 42.4568 609.797 40.568 608.65 38.3212C607.509 36.0836 607.029 34.0387 607.208 32.1864C607.386 30.3342 608.211 28.7844 609.682 27.537C611.152 26.2897 613.24 25.4519 615.945 25.0234C618.661 24.5932 621.234 24.698 623.665 25.3376C626.107 25.9755 628.286 27.0599 630.201 28.5907C632.128 30.1197 633.668 32.0122 634.822 34.2682C635.963 36.5058 636.438 38.5516 636.248 40.4056C636.051 42.2505 635.223 43.7957 633.763 45.0412C632.304 46.2868 630.222 47.1238 627.517 47.5522ZM624.742 42.3202C625.752 42.1602 626.475 41.769 626.911 41.1467C627.358 40.5226 627.532 39.7214 627.433 38.7431C627.334 37.7648 626.975 36.669 626.354 35.4556C625.748 34.2606 625.031 33.2419 624.205 32.3993C623.383 31.5457 622.504 30.9217 621.566 30.5272C620.621 30.1235 619.649 30.0007 618.65 30.1589C617.64 30.3189 616.915 30.7156 616.474 31.3489C616.027 31.973 615.853 32.7742 615.952 33.7525C616.055 34.7199 616.42 35.8148 617.047 37.0373C617.654 38.2323 618.365 39.252 619.18 40.0963C619.995 40.9407 620.88 41.5639 621.836 41.9658C622.785 42.3585 623.754 42.4766 624.742 42.3202ZM661.062 51.1385C658.593 51.5296 656.335 51.5747 654.288 51.2738C652.241 50.9729 650.46 50.3995 648.943 49.5536C647.426 48.7077 646.236 47.6666 645.374 46.4301L652.992 44.8239C653.38 45.2542 653.854 45.6044 654.414 45.8744C654.973 46.1444 655.616 46.3141 656.343 46.3835C657.076 46.462 657.891 46.4302 658.789 46.288C660.17 46.0694 661.17 45.6035 661.79 44.8905C662.41 44.1775 662.347 43.127 661.599 41.7391L659.649 37.8981L659.362 37.9435C659.388 38.6669 659.207 39.3463 658.818 39.9817C658.429 40.6171 657.82 41.1644 656.99 41.6238C656.16 42.0831 655.111 42.4132 653.843 42.6141C651.946 42.9145 650.03 42.8184 648.094 42.3257C646.152 41.8239 644.315 40.8648 642.583 39.4484C640.844 38.0228 639.343 36.0728 638.08 33.5984C636.787 31.0469 636.203 28.8697 636.33 27.0666C636.451 25.2544 637.089 23.8264 638.244 22.7826C639.411 21.7371 640.898 21.0712 642.705 20.785C644.063 20.5699 645.326 20.5851 646.493 20.8306C647.654 21.0668 648.704 21.4435 649.644 21.9607C650.584 22.4779 651.395 23.0412 652.076 23.6506L652.312 23.6132L650.397 19.8741L658.596 18.5755L669.754 40.509C670.717 42.3649 670.973 44.015 670.522 45.4595C670.072 46.9039 669.027 48.1093 667.39 49.0757C665.753 50.0421 663.643 50.7297 661.062 51.1385ZM654.077 37.1053C655.076 36.947 655.822 36.588 656.316 36.0282C656.81 35.4684 657.037 34.7407 656.999 33.8451C656.96 32.9495 656.642 31.9189 656.044 30.7532C655.433 29.5692 654.714 28.5816 653.887 27.7903C653.066 26.988 652.182 26.4106 651.237 26.0582C650.292 25.7058 649.315 25.6095 648.305 25.7695C647.283 25.9313 646.541 26.305 646.079 26.8906C645.627 27.4744 645.437 28.227 645.506 29.1484C645.581 30.0588 645.923 31.096 646.532 32.2598C647.13 33.4254 647.819 34.3974 648.598 35.1757C649.388 35.9522 650.244 36.5084 651.164 36.8442C652.096 37.1782 653.067 37.2653 654.077 37.1053ZM676.896 25.8213L683.226 38.2831L674.993 39.587L663.895 17.7362L671.724 16.4963L673.778 20.5053L674.064 20.46C673.93 19.0365 674.364 17.8355 675.366 16.857C676.362 15.8692 677.82 15.2234 679.739 14.9194C681.546 14.6332 683.296 14.7249 684.99 15.1944C686.684 15.6639 688.218 16.4559 689.592 17.5702C690.96 18.6754 692.057 20.054 692.884 21.706L699.943 35.6353L691.711 36.9392L685.328 24.3783C684.726 23.1723 683.887 22.2857 682.81 21.7184C681.738 21.1402 680.54 20.9559 679.216 21.1657C678.352 21.3026 677.674 21.5841 677.183 22.0102C676.697 22.4254 676.419 22.956 676.351 23.6021C676.295 24.2464 676.476 24.9861 676.896 25.8213ZM704.99 34.836L693.892 12.9852L702.125 11.6813L713.222 33.5321L704.99 34.836ZM696.784 9.76058C695.616 9.94546 694.437 9.7787 693.246 9.2603C692.055 8.74191 691.217 8.02926 690.733 7.12237C690.241 6.20629 690.239 5.36121 690.727 4.58713C691.215 3.81305 692.037 3.33446 693.194 3.15136C694.361 2.96648 695.525 3.13043 696.687 3.64319C697.86 4.15417 698.693 4.86771 699.184 5.78379C699.691 6.68713 699.704 7.53043 699.223 8.3137C698.753 9.09519 697.94 9.57748 696.784 9.76058ZM721.961 8.53946L724.545 13.6634L708.232 16.2472L705.648 11.1233L721.961 8.53946ZM706.384 5.35047L714.617 4.04655L724.897 24.2592C725.12 24.685 725.375 25.0186 725.663 25.2599C725.956 25.4902 726.289 25.6373 726.661 25.7013C727.037 25.7544 727.444 25.7463 727.882 25.677C728.185 25.629 728.502 25.5481 728.832 25.4343C729.162 25.3205 729.413 25.2347 729.584 25.1769L733.394 29.9991C733.03 30.1695 732.524 30.3776 731.877 30.6236C731.248 30.877 730.458 31.0993 729.509 31.2907C727.58 31.6679 725.81 31.7382 724.198 31.5017C722.591 31.2541 721.179 30.699 719.963 29.8362C718.758 28.9717 717.794 27.8025 717.072 26.3286L706.384 5.35047ZM749.327 28.2594C746.6 28.6914 744.015 28.5884 741.573 27.9505C739.142 27.3109 736.969 26.2256 735.053 24.6948C733.138 23.164 731.607 21.2752 730.46 19.0285C729.319 16.7909 728.838 14.7459 729.017 12.8937C729.196 11.0414 730.021 9.4916 731.491 8.24428C732.962 6.99695 735.05 6.15908 737.754 5.73066C740.471 5.30047 743.044 5.4052 745.475 6.04487C747.917 6.68275 750.096 7.7671 752.011 9.29791C753.938 10.8269 755.478 12.7194 756.632 14.9754C757.772 17.213 758.247 19.2588 758.057 21.1129C757.86 22.9577 757.032 24.5029 755.573 25.7485C754.114 26.994 752.032 27.831 749.327 28.2594ZM746.551 23.0274C747.562 22.8674 748.285 22.4763 748.72 21.8539C749.167 21.2298 749.341 20.4286 749.243 19.4503C749.144 18.472 748.785 17.3762 748.164 16.1628C747.557 14.9679 746.841 13.9491 746.015 13.1065C745.193 12.2529 744.313 11.6289 743.375 11.2344C742.431 10.8307 741.459 10.708 740.46 10.8662C739.45 11.0262 738.724 11.4228 738.284 12.0561C737.837 12.6802 737.663 13.4815 737.762 14.4598C737.865 15.4271 738.23 16.522 738.857 17.7445C739.464 18.9395 740.175 19.9592 740.99 20.8036C741.805 21.6479 742.69 22.2711 743.646 22.673C744.595 23.0657 745.564 23.1839 746.551 23.0274ZM770.034 -6.94406L784.854 22.1868L776.52 23.5067L761.701 -5.62415L770.034 -6.94406ZM792.039 7.58447L798.369 20.0463L790.136 21.3502L779.038 -0.500629L786.867 -1.74055L788.921 2.26845L789.207 2.22312C789.072 0.799683 789.506 -0.40131 790.509 -1.37986C791.505 -2.36759 792.963 -3.01345 794.882 -3.31743C796.689 -3.60363 798.439 -3.51197 800.133 -3.04246C801.827 -2.57294 803.361 -1.78099 804.735 -0.666595C806.103 0.438607 807.2 1.81719 808.027 3.46916L815.086 17.3984L806.854 18.7023L800.471 6.14142C799.869 4.93549 799.029 4.04888 797.953 3.48159C796.881 2.90333 795.683 2.71909 794.359 2.92885C793.494 3.06573 792.817 3.34725 792.326 3.7734C791.84 4.18858 791.562 4.71921 791.494 5.36527C791.438 6.00957 791.619 6.7493 792.039 7.58447ZM832.427 15.0976C829.7 15.5296 827.115 15.4266 824.673 14.7887C822.242 14.1491 820.078 13.0675 818.181 11.5441C816.277 10.0115 814.763 8.13016 813.641 5.89997C812.489 3.66415 812.008 1.61922 812.198 -0.23482C812.382 -2.09805 813.211 -3.65881 814.686 -4.9171C816.161 -6.17539 818.251 -7.01875 820.956 -7.44716C823.347 -7.82581 825.613 -7.79029 827.756 -7.34061C829.909 -6.8927 831.822 -6.0788 833.495 -4.8989C835.172 -3.72996 836.491 -2.25327 837.451 -0.468822L829.758 0.749767C829.042 -0.335846 828.158 -1.13844 827.104 -1.65801C826.043 -2.18677 824.934 -2.35961 823.778 -2.17651C822.802 -2.02185 822.065 -1.65913 821.566 -1.08836C821.072 -0.528553 820.85 0.223904 820.9 1.16901C820.954 2.10315 821.312 3.21453 821.975 4.50315C822.637 5.79177 823.389 6.85101 824.231 7.68086C825.078 8.49975 825.97 9.08082 826.908 9.42405C827.851 9.75631 828.805 9.84601 829.77 9.69313C830.534 9.57225 831.144 9.32704 831.601 8.95749C832.058 8.58795 832.341 8.1077 832.449 7.51676C832.55 6.91663 832.465 6.22313 832.192 5.43627L839.869 4.22035C840.709 6.04451 840.975 7.70845 840.668 9.21219C840.365 10.705 839.523 11.9654 838.144 12.9934C836.757 14.0122 834.852 14.7136 832.427 15.0976ZM860.766 10.6092C858.039 11.0412 855.454 10.9382 853.012 10.3003C850.581 9.66067 848.408 8.57544 846.492 7.04463C844.577 5.51383 843.046 3.62503 841.899 1.37825C840.758 -0.859352 840.277 -2.90428 840.456 -4.75655C840.635 -6.60881 841.46 -8.15861 842.93 -9.40593C844.401 -10.6533 846.489 -11.4911 849.194 -11.9195C851.91 -12.3497 854.483 -12.245 856.914 -11.6053C859.356 -10.9675 861.535 -9.88311 863.45 -8.3523C865.377 -6.82328 866.917 -4.93077 868.071 -2.6748C869.211 -0.437206 869.687 1.60861 869.496 3.46266C869.299 5.30751 868.471 6.85271 867.012 8.09826C865.553 9.34381 863.471 10.1808 860.766 10.6092ZM857.99 5.37723C859.001 5.21724 859.724 4.82607 860.159 4.20373C860.606 3.57961 860.78 2.7784 860.682 1.80009C860.583 0.821794 860.224 -0.274027 859.603 -1.48737C858.996 -2.68233 858.28 -3.70112 857.454 -4.54372C856.632 -5.39728 855.752 -6.02131 854.814 -6.41582C853.87 -6.81951 852.898 -6.94225 851.899 -6.78403C850.889 -6.62404 850.163 -6.2274 849.723 -5.59409C849.276 -4.96997 849.102 -4.16876 849.201 -3.19045C849.304 -2.22312 849.669 -1.12819 850.296 0.0943405C850.903 1.28931 851.614 2.30898 852.429 3.15336C853.244 3.99773 854.129 4.62088 855.085 5.02279C856.034 5.41552 857.003 5.53366 857.99 5.37723ZM894.311 14.1956C891.841 14.5867 889.583 14.6317 887.537 14.3308C885.49 14.0299 883.708 13.4565 882.192 12.6106C880.675 11.7648 879.485 10.7236 878.622 9.48711L886.241 7.88087C886.629 8.31121 887.103 8.66139 887.662 8.9314C888.222 9.20141 888.865 9.37111 889.591 9.44049C890.325 9.51906 891.14 9.48724 892.038 9.34503C893.419 9.12637 894.419 8.66054 895.039 7.94751C895.659 7.23449 895.595 6.18403 894.848 4.79612L892.897 0.955163L892.611 1.00049C892.637 1.72392 892.456 2.40332 892.067 3.03871C891.678 3.67409 891.069 4.22145 890.239 4.68078C889.409 5.1401 888.36 5.4702 887.092 5.67108C885.195 5.9715 883.279 5.87539 881.343 5.38275C879.401 4.88091 877.563 3.9218 875.831 2.5054C874.093 1.07981 872.592 -0.870185 871.329 -3.34458C870.035 -5.89604 869.452 -8.0733 869.579 -9.87637C869.7 -11.6886 870.338 -13.1166 871.493 -14.1604C872.66 -15.2059 874.147 -15.8717 875.954 -16.1579C877.312 -16.373 878.575 -16.3579 879.742 -16.1124C880.903 -15.8762 881.953 -15.4994 882.893 -14.9822C883.833 -14.465 884.643 -13.9018 885.325 -13.2924L885.56 -13.3297L883.646 -17.0689L891.845 -18.3675L903.003 3.566C903.966 5.42187 904.222 7.07204 903.771 8.51649C903.32 9.96095 902.276 11.1664 900.639 12.1327C899.001 13.0991 896.892 13.7867 894.311 14.1956ZM887.326 0.162283C888.325 0.00407062 889.071 -0.35494 889.565 -0.914748C890.059 -1.47456 890.286 -2.20227 890.248 -3.09788C890.209 -3.99349 889.891 -5.02411 889.293 -6.18973C888.681 -7.37374 887.962 -8.3614 887.136 -9.15273C886.314 -9.95502 885.431 -10.5324 884.486 -10.8848C883.541 -11.2372 882.563 -11.3334 881.553 -11.1734C880.532 -11.0117 879.79 -10.638 879.327 -10.0524C878.876 -9.46859 878.685 -8.71598 878.755 -7.79458C878.83 -6.88415 879.171 -5.84701 879.781 -4.68316C880.379 -3.51754 881.067 -2.54558 881.847 -1.7673C882.637 -0.990787 883.493 -0.434622 884.413 -0.0987995C885.345 0.235245 886.316 0.322273 887.326 0.162283ZM910.145 -11.1217L916.474 1.34011L908.242 2.64403L897.144 -19.2068L904.973 -20.4467L907.027 -16.4377L907.313 -16.483C907.178 -17.9065 907.612 -19.1075 908.615 -20.086C909.611 -21.0737 911.069 -21.7196 912.988 -22.0236C914.795 -22.3098 916.545 -22.2181 918.239 -21.7486C919.932 -21.2791 921.467 -20.4871 922.841 -19.3727C924.209 -18.2675 925.306 -16.8889 926.133 -15.237L933.192 -1.30772L924.96 -0.00380061L918.577 -12.5647C917.975 -13.7707 917.135 -14.6573 916.059 -15.2246C914.987 -15.8028 913.789 -15.9871 912.465 -15.7773C911.6 -15.6404 910.923 -15.3589 910.432 -14.9327C909.945 -14.5176 909.668 -13.9869 909.6 -13.3409C909.543 -12.6966 909.725 -11.9568 910.145 -11.1217ZM938.239 -2.107L927.141 -23.9578L935.374 -25.2617L946.471 -3.41092L938.239 -2.107ZM930.032 -27.1824C928.865 -26.9975 927.686 -27.1643 926.495 -27.6827C925.304 -28.2011 924.466 -28.9137 923.981 -29.8206C923.49 -30.7367 923.488 -31.5818 923.976 -32.3559C924.464 -33.1299 925.286 -33.6085 926.442 -33.7916C927.61 -33.9765 928.774 -33.8126 929.936 -33.2998C931.109 -32.7888 931.941 -32.0753 932.433 -31.1592C932.94 -30.2559 932.953 -29.4125 932.472 -28.6293C932.002 -27.8478 931.189 -27.3655 930.032 -27.1824ZM955.21 -28.4035L957.794 -23.2796L941.481 -20.6957L938.896 -25.8197L955.21 -28.4035ZM939.633 -31.5925L947.865 -32.8964L958.146 -12.6838C958.369 -12.2579 958.624 -11.9244 958.912 -11.6831C959.205 -11.4528 959.537 -11.3057 959.909 -11.2416C960.286 -11.1886 960.693 -11.1967 961.131 -11.266C961.434 -11.314 961.751 -11.3949 962.081 -11.5087C962.411 -11.6225 962.662 -11.7083 962.832 -11.7661L966.643 -6.9439C966.279 -6.77351 965.773 -6.56534 965.126 -6.31938C964.497 -6.06602 963.707 -5.84364 962.757 -5.65223C960.829 -5.27505 959.059 -5.20474 957.447 -5.44132C955.84 -5.68885 954.428 -6.24401 953.212 -7.10678C952.007 -7.97133 951.043 -9.14052 950.321 -10.6144L939.633 -31.5925ZM982.576 -8.68356C979.848 -8.25159 977.264 -8.35455 974.822 -8.99243C972.391 -9.6321 970.218 -10.7173 968.302 -12.2481C966.387 -13.7789 964.856 -15.6677 963.708 -17.9145C962.568 -20.1521 962.087 -22.1971 962.266 -24.0493C962.445 -25.9016 963.27 -27.4514 964.74 -28.6987C966.211 -29.946 968.298 -30.7839 971.003 -31.2123C973.719 -31.6425 976.293 -31.5378 978.724 -30.8981C981.166 -30.2602 983.345 -29.1759 985.26 -27.6451C987.187 -26.116 988.727 -24.2235 989.881 -21.9676C991.021 -19.73 991.496 -17.6842 991.306 -15.8301C991.109 -13.9853 990.281 -12.4401 988.822 -11.1945C987.363 -9.94896 985.281 -9.11198 982.576 -8.68356ZM979.8 -13.9155C980.81 -14.0755 981.533 -14.4667 981.969 -15.089C982.416 -15.7132 982.59 -16.5144 982.492 -17.4927C982.393 -18.471 982.033 -19.5668 981.413 -20.7801C980.806 -21.9751 980.09 -22.9939 979.264 -23.8365C978.442 -24.6901 977.562 -25.3141 976.624 -25.7086C975.679 -26.1123 974.707 -26.235 973.709 -26.0768C972.698 -25.9168 971.973 -25.5202 971.533 -24.8869C971.086 -24.2627 970.912 -23.4615 971.01 -22.4832C971.114 -21.5159 971.479 -20.421 972.106 -19.1984C972.713 -18.0035 973.424 -16.9838 974.238 -16.1394C975.053 -15.295 975.939 -14.6719 976.895 -14.27C977.844 -13.8773 978.813 -13.7591 979.8 -13.9155Z" fill="black"/>
<path d="M5.35377 281.752L-22.0073 308.353L-30.3626 307.178L-3.00162 280.578L5.35377 281.752ZM3.2557 298.88L-8.45718 310.257L-16.7113 309.097L3.82636 289.149L11.6754 290.252L7.92165 293.917L8.20861 293.957C10.0112 292.813 11.9649 291.993 14.0697 291.495C16.1814 290.989 18.1995 290.872 20.1237 291.142C21.9355 291.397 23.1956 291.931 23.9042 292.744C24.6128 293.557 24.7627 294.579 24.3541 295.81C23.9526 297.032 22.9706 298.395 21.4084 299.9L8.30423 312.613L0.0501254 311.453L11.8538 299.985C12.9952 298.886 13.5211 297.974 13.4315 297.248C13.3601 296.515 12.6605 296.055 11.3327 295.868C10.4662 295.746 9.55318 295.786 8.59368 295.988C7.65247 296.183 6.72174 296.523 5.80147 297.008C4.89246 297.495 4.04387 298.119 3.2557 298.88ZM25.0928 315.403C22.3584 315.019 20.454 314.256 19.3799 313.114C18.317 311.973 18.0575 310.559 18.6014 308.871C19.1523 307.175 20.4799 305.31 22.584 303.277C24.6727 301.231 27.0355 299.512 29.6725 298.118C32.3165 296.716 35.0651 295.72 37.9182 295.13C40.7714 294.54 43.554 294.435 46.266 294.816C48.6629 295.153 50.4062 295.78 51.4959 296.696C52.5969 297.614 53.0169 298.753 52.756 300.114C52.5133 301.467 51.5749 302.966 49.9408 304.609L42.2268 303.525C43.1179 302.491 43.4953 301.632 43.3592 300.949C43.2302 300.257 42.5861 299.829 41.427 299.666C40.448 299.529 39.3789 299.616 38.2196 299.929C37.0785 300.235 35.8938 300.762 34.6653 301.511C33.4551 302.253 32.2476 303.213 31.0428 304.391C29.8381 305.57 29.0118 306.593 28.564 307.462C28.1344 308.323 28.0602 309.012 28.3413 309.527C28.6407 310.035 29.2742 310.357 30.242 310.493C31.0072 310.6 31.8182 310.57 32.675 310.403C33.5318 310.236 34.3992 309.937 35.2772 309.506C36.1623 309.065 37.0249 308.502 37.8651 307.818L45.5622 308.899C43.779 310.542 41.7575 311.908 39.4977 312.998C37.2562 314.08 34.9009 314.839 32.4319 315.275C29.9698 315.702 27.5235 315.745 25.0928 315.403ZM53.5054 319.396C50.7709 319.012 48.8666 318.249 47.7924 317.107C46.7295 315.966 46.4679 314.547 47.0076 312.849C47.5473 311.151 48.8706 309.275 50.9776 307.223C53.0775 305.179 55.4403 303.459 58.0661 302.064C60.6918 300.669 63.4221 299.68 66.2569 299.097C69.0918 298.515 71.8652 298.414 74.5772 298.795C77.3005 299.178 79.1935 299.939 80.2564 301.08C81.3306 302.222 81.5978 303.642 81.0581 305.34C80.5297 307.04 79.2085 308.921 77.0945 310.982C74.9945 313.026 72.6261 314.745 69.9891 316.138C67.3592 317.523 64.6324 318.507 61.8088 319.092C58.9852 319.676 56.2174 319.777 53.5054 319.396ZM58.3295 314.589C59.3423 314.731 60.4382 314.617 61.6172 314.248C62.8075 313.88 64.0197 313.302 65.2539 312.514C66.488 311.726 67.6737 310.778 68.8109 309.669C69.934 308.578 70.7343 307.596 71.2116 306.721C71.7073 305.84 71.849 305.121 71.6369 304.566C71.4318 304.002 70.8285 303.65 69.827 303.509C68.8142 303.367 67.7092 303.484 66.5118 303.861C65.3216 304.229 64.1093 304.806 62.8752 305.594C61.6594 306.375 60.4793 307.324 59.3351 308.442C58.2119 309.533 57.406 310.514 56.9174 311.387C56.4288 312.26 56.2927 312.979 56.5091 313.545C56.7324 314.102 57.3392 314.45 58.3295 314.589ZM75.2016 331.053C72.726 330.705 70.8813 330.143 69.6677 329.368C68.4541 328.593 67.8152 327.676 67.7511 326.616C67.6869 325.557 68.1433 324.432 69.1202 323.241L77.2944 324.003C77.024 324.441 76.9289 324.839 77.0089 325.197C77.0889 325.555 77.3693 325.857 77.8503 326.103C78.3243 326.358 79.0113 326.549 79.9116 326.675C81.2957 326.87 82.7109 326.771 84.1573 326.38C85.6036 325.989 86.9622 325.154 88.2332 323.876L91.8433 320.369L91.5564 320.329C90.6065 320.899 89.5519 321.38 88.3926 321.772C87.2332 322.164 86.0177 322.429 84.7459 322.568C83.4741 322.706 82.2025 322.686 80.9309 322.507C79.0291 322.24 77.6438 321.659 76.7749 320.764C75.913 319.86 75.7477 318.627 76.2789 317.067C76.8171 315.497 78.2466 313.582 80.5675 311.322C82.9672 308.993 85.4265 307.143 87.9453 305.773C90.4711 304.393 92.8905 303.45 95.2034 302.943C97.5276 302.437 99.5956 302.311 101.407 302.566C102.769 302.757 103.746 303.103 104.34 303.602C104.94 304.093 105.265 304.664 105.314 305.315C105.363 305.966 105.248 306.619 104.969 307.273L105.205 307.307L108.708 303.889L116.928 305.044L96.3269 325.073C94.5986 326.772 92.5876 328.125 90.2941 329.13C88.0006 330.136 85.5589 330.799 82.9689 331.119C80.3789 331.439 77.7898 331.417 75.2016 331.053ZM88.5041 318.279C89.5057 318.42 90.5769 318.338 91.718 318.032C92.859 317.727 94.0149 317.22 95.1857 316.513C96.3565 315.805 97.4872 314.919 98.578 313.853C99.6829 312.769 100.44 311.81 100.848 310.976C101.275 310.134 101.351 309.451 101.077 308.927C100.803 308.402 100.159 308.069 99.1467 307.927C98.1226 307.783 97.0352 307.878 95.8843 308.212C94.7447 308.547 93.5845 309.083 92.4039 309.819C91.2415 310.547 90.1206 311.445 89.0411 312.513C87.9503 313.578 87.1908 314.517 86.7628 315.329C86.3459 316.143 86.276 316.802 86.5528 317.306C86.8409 317.813 87.4914 318.137 88.5041 318.279ZM121.67 315.522L109.957 326.899L101.703 325.739L122.241 305.791L130.09 306.894L126.336 310.559L126.623 310.599C128.426 309.455 130.379 308.635 132.484 308.138C134.596 307.632 136.614 307.514 138.538 307.784C140.35 308.039 141.61 308.573 142.319 309.386C143.027 310.199 143.177 311.221 142.769 312.452C142.367 313.674 141.385 315.038 139.823 316.542L126.719 329.255L118.465 328.095L130.268 316.627C131.41 315.529 131.936 314.616 131.846 313.89C131.775 313.157 131.075 312.697 129.747 312.51C128.881 312.388 127.968 312.428 127.008 312.63C126.067 312.825 125.136 313.165 124.216 313.65C123.307 314.137 122.458 314.761 121.67 315.522ZM131.778 329.966L152.316 310.018L160.57 311.178L140.032 331.126L131.778 329.966ZM158.926 308.271C157.755 308.106 157.047 307.665 156.802 306.947C156.556 306.228 156.849 305.452 157.683 304.618C158.523 303.774 159.655 303.116 161.079 302.642C162.503 302.168 163.794 302.013 164.953 302.176C166.124 302.34 166.824 302.775 167.054 303.482C167.296 304.19 166.996 304.965 166.156 305.808C165.345 306.646 164.225 307.306 162.794 307.789C161.374 308.273 160.085 308.434 158.926 308.271ZM180.458 313.973L175.628 318.646L159.272 316.347L164.102 311.674L180.458 313.973ZM172.427 307.374L180.681 308.534L161.695 326.99C161.299 327.38 161.054 327.708 160.958 327.972C160.88 328.228 160.946 328.431 161.154 328.579C161.38 328.72 161.713 328.821 162.152 328.883C162.456 328.925 162.814 328.946 163.228 328.945C163.641 328.943 163.954 328.943 164.167 328.943L160.71 333.705C160.194 333.741 159.515 333.77 158.674 333.79C157.837 333.821 156.915 333.786 155.907 333.684C153.878 333.468 152.385 333.055 151.428 332.445C150.49 331.827 150.119 331.022 150.316 330.029C150.523 329.037 151.33 327.872 152.736 326.534L172.427 307.374ZM175.633 336.56C172.899 336.176 170.994 335.413 169.92 334.271C168.857 333.13 168.596 331.711 169.136 330.013C169.675 328.315 170.999 326.439 173.106 324.386C175.205 322.343 177.568 320.623 180.194 319.228C182.82 317.833 185.55 316.844 188.385 316.261C191.22 315.679 193.993 315.578 196.705 315.959C199.428 316.342 201.321 317.103 202.384 318.244C203.458 319.386 203.726 320.806 203.186 322.504C202.658 324.204 201.336 326.085 199.222 328.146C197.122 330.19 194.754 331.909 192.117 333.302C189.487 334.687 186.76 335.671 183.937 336.255C181.113 336.84 178.345 336.941 175.633 336.56ZM180.457 331.753C181.47 331.895 182.566 331.781 183.745 331.412C184.935 331.044 186.148 330.466 187.382 329.678C188.616 328.89 189.802 327.942 190.939 326.833C192.062 325.742 192.862 324.76 193.34 323.885C193.835 323.004 193.977 322.285 193.765 321.73C193.56 321.166 192.956 320.814 191.955 320.673C190.942 320.531 189.837 320.648 188.64 321.025C187.449 321.393 186.237 321.97 185.003 322.758C183.787 323.539 182.607 324.488 181.463 325.606C180.34 326.697 179.534 327.678 179.045 328.551C178.557 329.424 178.421 330.143 178.637 330.709C178.86 331.266 179.467 331.613 180.457 331.753ZM239.212 314.619L211.851 341.219L203.495 340.045L230.856 313.445L239.212 314.619ZM237.114 331.747L225.401 343.123L217.147 341.963L237.684 322.016L245.533 323.119L241.78 326.783L242.067 326.824C243.869 325.68 245.823 324.859 247.928 324.362C250.039 323.856 252.057 323.738 253.982 324.009C255.793 324.263 257.054 324.797 257.762 325.61C258.471 326.424 258.621 327.446 258.212 328.677C257.811 329.899 256.829 331.262 255.266 332.767L242.162 345.479L233.908 344.319L245.712 332.851C246.853 331.753 247.379 330.841 247.289 330.115C247.218 329.381 246.519 328.921 245.191 328.735C244.324 328.613 243.411 328.653 242.452 328.855C241.51 329.05 240.58 329.39 239.659 329.875C238.75 330.362 237.902 330.986 237.114 331.747ZM258.951 348.27C256.216 347.885 254.312 347.122 253.238 345.98C252.175 344.84 251.916 343.426 252.459 341.738C253.01 340.041 254.338 338.177 256.442 336.143C258.531 334.098 260.894 332.378 263.53 330.985C266.174 329.583 268.923 328.586 271.776 327.996C274.629 327.406 277.412 327.302 280.124 327.683C282.521 328.02 284.264 328.646 285.354 329.563C286.455 330.48 286.875 331.62 286.614 332.98C286.371 334.334 285.433 335.832 283.799 337.476L276.085 336.392C276.976 335.357 277.353 334.498 277.217 333.815C277.088 333.123 276.444 332.696 275.285 332.533C274.306 332.395 273.237 332.483 272.078 332.796C270.937 333.101 269.752 333.628 268.523 334.377C267.313 335.119 266.106 336.079 264.901 337.258C263.696 338.436 262.87 339.46 262.422 340.329C261.992 341.19 261.918 341.878 262.199 342.393C262.499 342.901 263.132 343.223 264.1 343.359C264.865 343.467 265.676 343.437 266.533 343.27C267.39 343.103 268.257 342.804 269.135 342.372C270.02 341.932 270.883 341.369 271.723 340.684L279.42 341.766C277.637 343.408 275.615 344.774 273.356 345.864C271.114 346.947 268.759 347.706 266.29 348.142C263.828 348.569 261.382 348.611 258.951 348.27ZM287.363 352.263C284.629 351.879 282.725 351.115 281.65 349.973C280.588 348.833 280.326 347.414 280.866 345.715C281.405 344.017 282.729 342.142 284.836 340.089C286.936 338.045 289.298 336.326 291.924 334.931C294.55 333.536 297.28 332.547 300.115 331.964C302.95 331.381 305.723 331.281 308.435 331.662C311.158 332.044 313.052 332.806 314.114 333.946C315.189 335.088 315.456 336.509 314.916 338.207C314.388 339.906 313.066 341.787 310.952 343.849C308.853 345.893 306.484 347.611 303.847 349.005C301.217 350.389 298.49 351.374 295.667 351.958C292.843 352.542 290.075 352.644 287.363 352.263ZM292.188 347.455C293.2 347.598 294.296 347.484 295.475 347.115C296.666 346.747 297.878 346.169 299.112 345.381C300.346 344.593 301.532 343.645 302.669 342.536C303.792 341.445 304.592 340.462 305.07 339.588C305.565 338.706 305.707 337.988 305.495 337.433C305.29 336.869 304.687 336.516 303.685 336.376C302.672 336.233 301.567 336.35 300.37 336.727C299.18 337.095 297.967 337.673 296.733 338.461C295.517 339.242 294.337 340.191 293.193 341.308C292.07 342.399 291.264 343.381 290.775 344.254C290.287 345.127 290.151 345.846 290.367 346.412C290.59 346.968 291.197 347.316 292.188 347.455ZM309.06 363.92C306.584 363.572 304.739 363.01 303.526 362.235C302.312 361.46 301.673 360.542 301.609 359.483C301.545 358.423 302.001 357.298 302.978 356.108L311.152 356.87C310.882 357.308 310.787 357.705 310.867 358.064C310.947 358.422 311.227 358.724 311.708 358.97C312.182 359.225 312.869 359.415 313.77 359.542C315.154 359.736 316.569 359.638 318.015 359.247C319.462 358.855 320.82 358.02 322.091 356.742L325.701 353.236L325.414 353.195C324.465 353.766 323.41 354.247 322.251 354.639C321.091 355.031 319.876 355.296 318.604 355.434C317.332 355.573 316.06 355.553 314.789 355.374C312.887 355.107 311.502 354.525 310.633 353.63C309.771 352.726 309.606 351.494 310.137 349.933C310.675 348.364 312.105 346.449 314.426 344.188C316.825 341.86 319.284 340.01 321.803 338.639C324.329 337.26 326.748 336.317 329.061 335.809C331.386 335.303 333.454 335.178 335.265 335.432C336.627 335.624 337.604 335.969 338.198 336.469C338.798 336.96 339.123 337.531 339.172 338.182C339.221 338.833 339.106 339.485 338.827 340.14L339.063 340.173L342.566 336.756L350.786 337.911L330.185 357.939C328.457 359.639 326.446 360.991 324.152 361.997C321.859 363.003 319.417 363.666 316.827 363.985C314.237 364.305 311.648 364.283 309.06 363.92ZM322.362 351.146C323.364 351.287 324.435 351.204 325.576 350.899C326.717 350.594 327.873 350.087 329.044 349.379C330.214 348.672 331.345 347.785 332.436 346.719C333.541 345.636 334.298 344.677 334.706 343.842C335.133 343 335.209 342.317 334.935 341.793C334.661 341.269 334.017 340.936 333.005 340.794C331.981 340.65 330.893 340.745 329.742 341.078C328.603 341.414 327.443 341.949 326.262 342.685C325.1 343.414 323.979 344.312 322.899 345.379C321.808 346.445 321.049 347.384 320.621 348.196C320.204 349.009 320.134 349.668 320.411 350.173C320.699 350.679 321.349 351.004 322.362 351.146ZM355.528 348.389L343.815 359.766L335.561 358.606L356.099 338.658L363.948 339.761L360.194 343.425L360.481 343.466C362.284 342.322 364.237 341.501 366.342 341.004C368.454 340.498 370.472 340.38 372.396 340.651C374.208 340.905 375.468 341.439 376.177 342.252C376.885 343.066 377.035 344.088 376.627 345.319C376.225 346.541 375.243 347.904 373.681 349.409L360.577 362.121L352.323 360.961L364.126 349.493C365.268 348.395 365.794 347.483 365.704 346.757C365.633 346.023 364.933 345.563 363.605 345.377C362.739 345.255 361.826 345.295 360.866 345.497C359.925 345.692 358.994 346.032 358.074 346.517C357.165 347.004 356.316 347.628 355.528 348.389ZM365.636 362.832L386.174 342.884L394.428 344.045L373.89 363.992L365.636 362.832ZM392.784 341.138C391.613 340.973 390.905 340.532 390.66 339.813C390.414 339.095 390.707 338.319 391.541 337.484C392.381 336.641 393.513 335.982 394.937 335.509C396.361 335.035 397.652 334.879 398.811 335.042C399.982 335.207 400.682 335.642 400.912 336.348C401.154 337.056 400.854 337.832 400.014 338.675C399.204 339.513 398.083 340.173 396.652 340.655C395.232 341.14 393.943 341.3 392.784 341.138ZM414.316 346.84L409.486 351.513L393.13 349.214L397.96 344.541L414.316 346.84ZM406.285 340.24L414.539 341.4L395.553 359.857C395.157 360.247 394.912 360.574 394.816 360.838C394.738 361.095 394.804 361.297 395.012 361.445C395.238 361.586 395.571 361.688 396.01 361.749C396.314 361.792 396.672 361.813 397.086 361.811C397.499 361.81 397.812 361.809 398.025 361.809L394.568 366.571C394.052 366.608 393.373 366.636 392.532 366.657C391.695 366.688 390.773 366.652 389.765 366.55C387.736 366.335 386.243 365.922 385.286 365.311C384.348 364.694 383.977 363.889 384.174 362.895C384.381 361.904 385.188 360.739 386.594 359.4L406.285 340.24ZM409.491 369.427C406.757 369.043 404.852 368.279 403.778 367.137C402.715 365.997 402.454 364.578 402.994 362.879C403.533 361.181 404.857 359.306 406.964 357.253C409.063 355.209 411.426 353.49 414.052 352.095C416.678 350.7 419.408 349.711 422.243 349.128C425.078 348.545 427.851 348.444 430.563 348.826C433.286 349.208 435.179 349.97 436.242 351.11C437.316 352.252 437.584 353.673 437.044 355.371C436.516 357.07 435.194 358.951 433.08 361.013C430.98 363.057 428.612 364.775 425.975 366.169C423.345 367.553 420.618 368.538 417.795 369.122C414.971 369.706 412.203 369.808 409.491 369.427ZM414.315 364.619C415.328 364.762 416.424 364.648 417.603 364.279C418.793 363.911 420.006 363.333 421.24 362.545C422.474 361.757 423.66 360.809 424.797 359.7C425.92 358.609 426.72 357.626 427.198 356.752C427.693 355.87 427.835 355.152 427.623 354.597C427.418 354.033 426.814 353.68 425.813 353.54C424.8 353.397 423.695 353.514 422.498 353.891C421.307 354.259 420.095 354.837 418.861 355.625C417.645 356.405 416.465 357.355 415.321 358.472C414.198 359.563 413.392 360.545 412.903 361.418C412.415 362.291 412.279 363.01 412.495 363.576C412.718 364.132 413.325 364.48 414.315 364.619ZM473.07 347.485L445.709 374.086L437.353 372.911L464.714 346.311L473.07 347.485ZM470.972 364.614L459.259 375.99L451.005 374.83L471.542 354.882L479.391 355.985L475.638 359.65L475.925 359.69C477.727 358.546 479.681 357.726 481.786 357.229C483.897 356.723 485.915 356.605 487.84 356.875C489.651 357.13 490.912 357.664 491.62 358.477C492.329 359.29 492.479 360.312 492.07 361.543C491.669 362.765 490.687 364.129 489.124 365.634L476.02 378.346L467.766 377.186L479.57 365.718C480.711 364.62 481.237 363.707 481.147 362.981C481.076 362.248 480.377 361.788 479.049 361.601C478.182 361.479 477.269 361.52 476.31 361.722C475.368 361.916 474.438 362.256 473.517 362.741C472.608 363.228 471.76 363.852 470.972 364.614ZM492.809 381.136C490.074 380.752 488.17 379.989 487.096 378.847C486.033 377.706 485.774 376.292 486.317 374.605C486.868 372.908 488.196 371.043 490.3 369.01C492.389 366.964 494.752 365.245 497.388 363.852C500.032 362.449 502.781 361.453 505.634 360.863C508.487 360.273 511.27 360.168 513.982 360.549C516.379 360.886 518.122 361.513 519.212 362.429C520.313 363.347 520.733 364.486 520.472 365.847C520.229 367.2 519.291 368.699 517.657 370.342L509.943 369.258C510.834 368.224 511.211 367.365 511.075 366.682C510.946 365.99 510.302 365.562 509.143 365.399C508.164 365.262 507.095 365.349 505.936 365.662C504.795 365.968 503.61 366.495 502.381 367.244C501.171 367.986 499.964 368.946 498.759 370.124C497.554 371.303 496.728 372.326 496.28 373.195C495.85 374.056 495.776 374.745 496.057 375.26C496.357 375.768 496.99 376.09 497.958 376.226C498.723 376.333 499.534 376.304 500.391 376.137C501.248 375.97 502.115 375.67 502.993 375.239C503.878 374.798 504.741 374.236 505.581 373.551L513.278 374.633C511.495 376.275 509.473 377.641 507.214 378.731C504.972 379.813 502.617 380.572 500.148 381.008C497.686 381.435 495.24 381.478 492.809 381.136ZM521.221 385.129C518.487 384.745 516.583 383.982 515.508 382.84C514.446 381.7 514.184 380.28 514.724 378.582C515.263 376.884 516.587 375.008 518.694 372.956C520.794 370.912 523.156 369.192 525.782 367.797C528.408 366.402 531.138 365.413 533.973 364.831C536.808 364.248 539.581 364.147 542.293 364.528C545.016 364.911 546.91 365.673 547.972 366.813C549.047 367.955 549.314 369.375 548.774 371.073C548.246 372.773 546.924 374.654 544.81 376.715C542.711 378.759 540.342 380.478 537.705 381.871C535.075 383.256 532.348 384.24 529.525 384.825C526.701 385.409 523.933 385.511 521.221 385.129ZM526.046 380.322C527.058 380.464 528.154 380.351 529.333 379.981C530.524 379.613 531.736 379.035 532.97 378.248C534.204 377.46 535.39 376.511 536.527 375.403C537.65 374.312 538.45 373.329 538.928 372.455C539.423 371.573 539.565 370.854 539.353 370.299C539.148 369.735 538.545 369.383 537.543 369.242C536.53 369.1 535.425 369.217 534.228 369.594C533.038 369.962 531.825 370.54 530.591 371.328C529.375 372.108 528.195 373.057 527.051 374.175C525.928 375.266 525.122 376.248 524.633 377.121C524.145 377.993 524.009 378.713 524.225 379.278C524.448 379.835 525.055 380.183 526.046 380.322ZM542.918 396.786C540.442 396.438 538.597 395.877 537.384 395.102C536.17 394.326 535.531 393.409 535.467 392.35C535.403 391.29 535.859 390.165 536.836 388.974L545.01 389.736C544.74 390.174 544.645 390.572 544.725 390.93C544.805 391.288 545.085 391.59 545.566 391.836C546.04 392.091 546.727 392.282 547.628 392.408C549.012 392.603 550.427 392.505 551.873 392.113C553.32 391.722 554.678 390.887 555.949 389.609L559.559 386.102L559.272 386.062C558.323 386.632 557.268 387.113 556.109 387.505C554.949 387.897 553.734 388.163 552.462 388.301C551.19 388.439 549.918 388.419 548.647 388.241C546.745 387.973 545.36 387.392 544.491 386.497C543.629 385.593 543.464 384.361 543.995 382.8C544.533 381.23 545.963 379.315 548.284 377.055C550.683 374.726 553.142 372.877 555.661 371.506C558.187 370.127 560.606 369.183 562.919 368.676C565.244 368.17 567.312 368.044 569.123 368.299C570.485 368.49 571.462 368.836 572.056 369.336C572.656 369.826 572.981 370.397 573.03 371.048C573.079 371.699 572.964 372.352 572.685 373.007L572.921 373.04L576.424 369.622L584.644 370.778L564.043 390.806C562.315 392.505 560.304 393.858 558.01 394.864C555.717 395.869 553.275 396.532 550.685 396.852C548.095 397.172 545.506 397.15 542.918 396.786ZM556.22 384.013C557.222 384.153 558.293 384.071 559.434 383.766C560.575 383.46 561.731 382.954 562.902 382.246C564.072 381.538 565.203 380.652 566.294 379.586C567.399 378.503 568.156 377.543 568.564 376.709C568.991 375.867 569.067 375.184 568.793 374.66C568.519 374.136 567.875 373.802 566.863 373.66C565.839 373.516 564.751 373.611 563.6 373.945C562.461 374.28 561.301 374.816 560.12 375.552C558.958 376.28 557.837 377.178 556.757 378.246C555.666 379.311 554.907 380.25 554.479 381.062C554.062 381.876 553.992 382.535 554.269 383.04C554.557 383.546 555.207 383.87 556.22 384.013ZM589.386 381.256L577.673 392.632L569.419 391.472L589.957 371.524L597.806 372.627L594.052 376.292L594.339 376.332C596.142 375.188 598.095 374.368 600.2 373.871C602.312 373.365 604.33 373.247 606.254 373.517C608.066 373.772 609.326 374.306 610.035 375.119C610.743 375.932 610.893 376.954 610.485 378.185C610.083 379.407 609.101 380.771 607.539 382.276L594.435 394.988L586.181 393.828L597.984 382.36C599.126 381.262 599.652 380.35 599.562 379.623C599.491 378.89 598.791 378.43 597.463 378.243C596.597 378.121 595.684 378.162 594.724 378.364C593.783 378.558 592.852 378.898 591.932 379.384C591.023 379.87 590.174 380.494 589.386 381.256ZM599.494 395.699L620.032 375.751L628.286 376.911L607.748 396.859L599.494 395.699ZM626.642 374.004C625.471 373.84 624.763 373.398 624.518 372.68C624.272 371.961 624.565 371.185 625.399 370.351C626.239 369.508 627.371 368.849 628.795 368.375C630.219 367.901 631.51 367.746 632.669 367.909C633.84 368.073 634.54 368.509 634.77 369.215C635.012 369.923 634.712 370.698 633.872 371.542C633.062 372.379 631.941 373.039 630.51 373.522C629.09 374.006 627.801 374.167 626.642 374.004ZM648.174 379.706L643.344 384.379L626.988 382.08L631.818 377.408L648.174 379.706ZM640.143 373.107L648.397 374.267L629.411 392.723C629.015 393.113 628.77 393.441 628.674 393.705C628.596 393.961 628.662 394.164 628.87 394.312C629.096 394.453 629.429 394.554 629.868 394.616C630.172 394.659 630.53 394.679 630.944 394.678C631.357 394.677 631.67 394.676 631.883 394.676L628.426 399.438C627.91 399.474 627.231 399.503 626.39 399.523C625.553 399.554 624.631 399.519 623.623 399.417C621.594 399.201 620.101 398.788 619.144 398.178C618.206 397.561 617.835 396.755 618.032 395.762C618.239 394.77 619.046 393.605 620.452 392.267L640.143 373.107ZM643.349 402.293C640.615 401.909 638.71 401.146 637.636 400.004C636.573 398.863 636.312 397.444 636.852 395.746C637.391 394.048 638.715 392.172 640.822 390.12C642.921 388.076 645.284 386.356 647.91 384.961C650.536 383.566 653.266 382.577 656.101 381.995C658.936 381.412 661.709 381.311 664.421 381.692C667.144 382.075 669.037 382.837 670.1 383.977C671.174 385.119 671.442 386.539 670.902 388.237C670.374 389.937 669.052 391.818 666.938 393.879C664.838 395.923 662.47 397.642 659.833 399.035C657.203 400.42 654.476 401.404 651.653 401.989C648.829 402.573 646.061 402.675 643.349 402.293ZM648.173 397.486C649.186 397.628 650.282 397.515 651.461 397.145C652.651 396.777 653.864 396.199 655.098 395.411C656.332 394.624 657.518 393.675 658.655 392.567C659.778 391.476 660.578 390.493 661.056 389.619C661.551 388.737 661.693 388.018 661.481 387.463C661.276 386.899 660.672 386.547 659.671 386.406C658.658 386.264 657.553 386.381 656.356 386.758C655.165 387.126 653.953 387.704 652.719 388.492C651.503 389.272 650.323 390.221 649.179 391.339C648.056 392.43 647.25 393.412 646.761 394.284C646.273 395.157 646.137 395.877 646.353 396.442C646.576 396.999 647.183 397.347 648.173 397.486ZM706.928 380.352L679.567 406.952L671.211 405.778L698.572 379.178L706.928 380.352ZM704.83 397.48L693.117 408.857L684.863 407.697L705.4 387.749L713.249 388.852L709.496 392.517L709.783 392.557C711.585 391.413 713.539 390.592 715.644 390.095C717.755 389.589 719.773 389.472 721.698 389.742C723.509 389.997 724.77 390.53 725.478 391.344C726.187 392.157 726.337 393.179 725.928 394.41C725.527 395.632 724.545 396.995 722.982 398.5L709.878 411.212L701.624 410.052L713.428 398.585C714.569 397.486 715.095 396.574 715.005 395.848C714.934 395.114 714.235 394.654 712.907 394.468C712.04 394.346 711.127 394.386 710.168 394.588C709.226 394.783 708.296 395.123 707.375 395.608C706.466 396.095 705.618 396.719 704.83 397.48ZM726.667 414.003C723.932 413.619 722.028 412.855 720.954 411.713C719.891 410.573 719.632 409.159 720.175 407.471C720.726 405.775 722.054 403.91 724.158 401.876C726.247 399.831 728.61 398.112 731.246 396.718C733.89 395.316 736.639 394.319 739.492 393.729C742.345 393.139 745.128 393.035 747.84 393.416C750.237 393.753 751.98 394.379 753.07 395.296C754.171 396.214 754.591 397.353 754.33 398.714C754.087 400.067 753.149 401.565 751.515 403.209L743.801 402.125C744.692 401.09 745.069 400.232 744.933 399.549C744.804 398.856 744.16 398.429 743.001 398.266C742.022 398.128 740.953 398.216 739.794 398.529C738.653 398.834 737.468 399.362 736.239 400.111C735.029 400.852 733.822 401.812 732.617 402.991C731.412 404.169 730.586 405.193 730.138 406.062C729.708 406.923 729.634 407.611 729.915 408.127C730.215 408.634 730.848 408.956 731.816 409.092C732.581 409.2 733.392 409.17 734.249 409.003C735.106 408.836 735.973 408.537 736.851 408.105C737.736 407.665 738.599 407.102 739.439 406.418L747.136 407.499C745.353 409.142 743.331 410.508 741.072 411.597C738.83 412.68 736.475 413.439 734.006 413.875C731.544 414.302 729.098 414.345 726.667 414.003ZM755.079 417.996C752.345 417.612 750.441 416.849 749.366 415.707C748.304 414.566 748.042 413.147 748.582 411.449C749.121 409.75 750.445 407.875 752.552 405.822C754.652 403.779 757.014 402.059 759.64 400.664C762.266 399.269 764.996 398.28 767.831 397.697C770.666 397.115 773.439 397.014 776.151 397.395C778.874 397.778 780.768 398.539 781.83 399.68C782.905 400.822 783.172 402.242 782.632 403.94C782.104 405.64 780.782 407.52 778.668 409.582C776.569 411.626 774.2 413.344 771.563 414.738C768.933 416.123 766.206 417.107 763.383 417.691C760.559 418.276 757.791 418.377 755.079 417.996ZM759.904 413.188C760.916 413.331 762.012 413.217 763.191 412.848C764.382 412.48 765.594 411.902 766.828 411.114C768.062 410.326 769.248 409.378 770.385 408.269C771.508 407.178 772.308 406.196 772.786 405.321C773.281 404.439 773.423 403.721 773.211 403.166C773.006 402.602 772.403 402.25 771.401 402.109C770.388 401.966 769.283 402.084 768.086 402.46C766.896 402.828 765.683 403.406 764.449 404.194C763.233 404.975 762.053 405.924 760.909 407.041C759.786 408.132 758.98 409.114 758.491 409.987C758.003 410.86 757.867 411.579 758.083 412.145C758.306 412.701 758.913 413.049 759.904 413.188ZM776.776 429.653C774.3 429.305 772.455 428.743 771.242 427.968C770.028 427.193 769.389 426.276 769.325 425.216C769.261 424.157 769.717 423.031 770.694 421.841L778.868 422.603C778.598 423.041 778.503 423.439 778.583 423.797C778.663 424.155 778.943 424.457 779.424 424.703C779.898 424.958 780.585 425.149 781.486 425.275C782.87 425.47 784.285 425.371 785.731 424.98C787.178 424.588 788.536 423.754 789.807 422.475L793.417 418.969L793.13 418.929C792.181 419.499 791.126 419.98 789.967 420.372C788.807 420.764 787.592 421.029 786.32 421.168C785.048 421.306 783.776 421.286 782.505 421.107C780.603 420.84 779.218 420.259 778.349 419.364C777.487 418.459 777.322 417.227 777.853 415.667C778.391 414.097 779.821 412.182 782.142 409.921C784.541 407.593 787 405.743 789.519 404.373C792.045 402.993 794.464 402.05 796.777 401.542C799.102 401.037 801.17 400.911 802.981 401.166C804.343 401.357 805.32 401.702 805.914 402.202C806.514 402.693 806.839 403.264 806.888 403.915C806.937 404.566 806.822 405.219 806.543 405.873L806.779 405.906L810.282 402.489L818.502 403.644L797.901 423.672C796.173 425.372 794.162 426.725 791.868 427.73C789.575 428.736 787.133 429.399 784.543 429.719C781.953 430.038 779.364 430.016 776.776 429.653ZM790.078 416.879C791.08 417.02 792.151 416.938 793.292 416.632C794.433 416.327 795.589 415.82 796.76 415.113C797.93 414.405 799.061 413.518 800.152 412.453C801.257 411.369 802.014 410.41 802.422 409.575C802.849 408.734 802.925 408.051 802.651 407.526C802.377 407.002 801.733 406.669 800.721 406.527C799.697 406.383 798.609 406.478 797.458 406.812C796.319 407.147 795.159 407.683 793.978 408.418C792.816 409.147 791.695 410.045 790.615 411.112C789.524 412.178 788.765 413.117 788.337 413.929C787.92 414.742 787.85 415.402 788.127 415.906C788.415 416.413 789.065 416.737 790.078 416.879ZM823.244 414.122L811.531 425.499L803.277 424.339L823.815 404.391L831.664 405.494L827.91 409.159L828.197 409.199C830 408.055 831.953 407.234 834.058 406.737C836.17 406.231 838.188 406.114 840.112 406.384C841.924 406.639 843.184 407.173 843.893 407.986C844.601 408.799 844.751 409.821 844.343 411.052C843.941 412.274 842.959 413.637 841.397 415.142L828.293 427.854L820.039 426.694L831.842 415.227C832.984 414.128 833.51 413.216 833.42 412.49C833.349 411.756 832.649 411.296 831.321 411.11C830.455 410.988 829.542 411.028 828.582 411.23C827.641 411.425 826.71 411.765 825.79 412.25C824.881 412.737 824.032 413.361 823.244 414.122ZM833.352 428.565L853.89 408.618L862.144 409.778L841.606 429.726L833.352 428.565ZM860.5 406.871C859.329 406.706 858.621 406.265 858.376 405.546C858.13 404.828 858.423 404.052 859.257 403.217C860.097 402.374 861.229 401.716 862.653 401.242C864.077 400.768 865.368 400.613 866.527 400.775C867.698 400.94 868.398 401.375 868.628 402.082C868.87 402.789 868.57 403.565 867.73 404.408C866.92 405.246 865.799 405.906 864.368 406.389C862.948 406.873 861.659 407.034 860.5 406.871ZM882.032 412.573L877.202 417.246L860.846 414.947L865.676 410.274L882.032 412.573ZM874.001 405.973L882.255 407.133L863.269 425.59C862.873 425.98 862.628 426.307 862.532 426.571C862.454 426.828 862.52 427.03 862.728 427.179C862.954 427.319 863.287 427.421 863.726 427.482C864.03 427.525 864.388 427.546 864.802 427.544C865.215 427.543 865.528 427.543 865.741 427.543L862.284 432.305C861.768 432.341 861.089 432.369 860.248 432.39C859.411 432.421 858.489 432.386 857.481 432.284C855.452 432.068 853.959 431.655 853.002 431.045C852.064 430.427 851.693 429.622 851.89 428.629C852.097 427.637 852.904 426.472 854.31 425.133L874.001 405.973ZM877.207 435.16C874.473 434.776 872.569 434.013 871.494 432.871C870.431 431.73 870.17 430.311 870.71 428.613C871.249 426.914 872.573 425.039 874.68 422.986C876.779 420.942 879.142 419.223 881.768 417.828C884.394 416.433 887.124 415.444 889.959 414.861C892.794 414.278 895.567 414.178 898.279 414.559C901.002 414.942 902.895 415.703 903.958 416.844C905.032 417.986 905.3 419.406 904.76 421.104C904.232 422.804 902.91 424.684 900.796 426.746C898.696 428.79 896.328 430.508 893.691 431.902C891.061 433.286 888.334 434.271 885.511 434.855C882.687 435.44 879.919 435.541 877.207 435.16ZM882.031 430.352C883.044 430.495 884.14 430.381 885.319 430.012C886.509 429.644 887.722 429.066 888.956 428.278C890.19 427.49 891.376 426.542 892.513 425.433C893.636 424.342 894.436 423.36 894.914 422.485C895.409 421.603 895.551 420.885 895.339 420.33C895.134 419.766 894.53 419.413 893.529 419.273C892.516 419.13 891.411 419.248 890.214 419.624C889.023 419.992 887.811 420.57 886.577 421.358C885.361 422.139 884.181 423.088 883.037 424.205C881.914 425.296 881.108 426.278 880.619 427.151C880.131 428.024 879.995 428.743 880.211 429.309C880.434 429.865 881.041 430.213 882.031 430.352ZM940.786 413.219L913.425 439.819L905.069 438.645L932.43 412.044L940.786 413.219ZM938.688 430.347L926.975 441.723L918.721 440.563L939.258 420.615L947.107 421.719L943.354 425.383L943.641 425.424C945.443 424.279 947.397 423.459 949.502 422.962C951.613 422.456 953.631 422.338 955.556 422.609C957.367 422.863 958.628 423.397 959.336 424.21C960.045 425.023 960.195 426.045 959.786 427.276C959.385 428.498 958.403 429.862 956.84 431.367L943.736 444.079L935.482 442.919L947.286 431.451C948.427 430.353 948.953 429.441 948.863 428.714C948.792 427.981 948.093 427.521 946.765 427.334C945.898 427.213 944.985 427.253 944.026 427.455C943.084 427.65 942.154 427.99 941.233 428.475C940.324 428.961 939.476 429.585 938.688 430.347ZM960.525 446.87C957.79 446.485 955.886 445.722 954.812 444.58C953.749 443.44 953.49 442.026 954.033 440.338C954.584 438.641 955.912 436.776 958.016 434.743C960.105 432.698 962.468 430.978 965.104 429.585C967.748 428.182 970.497 427.186 973.35 426.596C976.203 426.006 978.986 425.901 981.698 426.283C984.095 426.619 985.838 427.246 986.928 428.162C988.029 429.08 988.449 430.219 988.188 431.58C987.945 432.934 987.007 434.432 985.373 436.075L977.659 434.991C978.55 433.957 978.927 433.098 978.791 432.415C978.662 431.723 978.018 431.296 976.859 431.133C975.88 430.995 974.811 431.083 973.652 431.395C972.511 431.701 971.326 432.228 970.097 432.977C968.887 433.719 967.68 434.679 966.475 435.858C965.27 437.036 964.444 438.06 963.996 438.928C963.566 439.79 963.492 440.478 963.773 440.993C964.073 441.501 964.706 441.823 965.674 441.959C966.439 442.067 967.25 442.037 968.107 441.87C968.964 441.703 969.831 441.404 970.709 440.972C971.594 440.531 972.457 439.969 973.297 439.284L980.994 440.366C979.211 442.008 977.189 443.374 974.93 444.464C972.688 445.546 970.333 446.305 967.864 446.741C965.402 447.168 962.956 447.211 960.525 446.87ZM988.937 450.863C986.203 450.478 984.299 449.715 983.224 448.573C982.162 447.433 981.9 446.013 982.44 444.315C982.979 442.617 984.303 440.742 986.41 438.689C988.51 436.645 990.872 434.926 993.498 433.531C996.124 432.136 998.854 431.147 1001.69 430.564C1004.52 429.981 1007.3 429.88 1010.01 430.261C1012.73 430.644 1014.63 431.406 1015.69 432.546C1016.76 433.688 1017.03 435.108 1016.49 436.807C1015.96 438.506 1014.64 440.387 1012.53 442.449C1010.43 444.492 1008.06 446.211 1005.42 447.605C1002.79 448.989 1000.06 449.974 997.241 450.558C994.417 451.142 991.649 451.244 988.937 450.863ZM993.762 446.055C994.774 446.197 995.87 446.084 997.049 445.714C998.24 445.346 999.452 444.769 1000.69 443.981C1001.92 443.193 1003.11 442.245 1004.24 441.136C1005.37 440.045 1006.17 439.062 1006.64 438.188C1007.14 437.306 1007.28 436.588 1007.07 436.033C1006.86 435.469 1006.26 435.116 1005.26 434.975C1004.25 434.833 1003.14 434.95 1001.94 435.327C1000.75 435.695 999.541 436.273 998.307 437.061C997.091 437.841 995.911 438.79 994.767 439.908C993.644 440.999 992.838 441.981 992.349 442.854C991.861 443.727 991.725 444.446 991.941 445.011C992.164 445.568 992.771 445.916 993.762 446.055ZM1010.63 462.519C1008.16 462.171 1006.31 461.61 1005.1 460.835C1003.89 460.06 1003.25 459.142 1003.18 458.083C1003.12 457.023 1003.58 455.898 1004.55 454.707L1012.73 455.47C1012.46 455.907 1012.36 456.305 1012.44 456.663C1012.52 457.021 1012.8 457.324 1013.28 457.57C1013.76 457.824 1014.44 458.015 1015.34 458.142C1016.73 458.336 1018.14 458.238 1019.59 457.846C1021.04 457.455 1022.39 456.62 1023.67 455.342L1027.28 451.836L1026.99 451.795C1026.04 452.365 1024.98 452.846 1023.82 453.239C1022.67 453.631 1021.45 453.896 1020.18 454.034C1018.91 454.173 1017.63 454.152 1016.36 453.974C1014.46 453.706 1013.08 453.125 1012.21 452.23C1011.35 451.326 1011.18 450.094 1011.71 448.533C1012.25 446.964 1013.68 445.049 1016 442.788C1018.4 440.459 1020.86 438.61 1023.38 437.239C1025.9 435.86 1028.32 434.916 1030.64 434.409C1032.96 433.903 1035.03 433.778 1036.84 434.032C1038.2 434.224 1039.18 434.569 1039.77 435.069C1040.37 435.559 1040.7 436.13 1040.75 436.781C1040.79 437.432 1040.68 438.085 1040.4 438.74L1040.64 438.773L1044.14 435.356L1052.36 436.511L1031.76 456.539C1030.03 458.239 1028.02 459.591 1025.73 460.597C1023.43 461.603 1020.99 462.265 1018.4 462.585C1015.81 462.905 1013.22 462.883 1010.63 462.519ZM1023.94 449.746C1024.94 449.887 1026.01 449.804 1027.15 449.499C1028.29 449.193 1029.45 448.687 1030.62 447.979C1031.79 447.272 1032.92 446.385 1034.01 445.319C1035.11 444.236 1035.87 443.277 1036.28 442.442C1036.71 441.6 1036.78 440.917 1036.51 440.393C1036.23 439.869 1035.59 439.536 1034.58 439.393C1033.55 439.249 1032.47 439.344 1031.32 439.678C1030.18 440.013 1029.02 440.549 1027.84 441.285C1026.67 442.014 1025.55 442.912 1024.47 443.979C1023.38 445.045 1022.62 445.983 1022.19 446.795C1021.78 447.609 1021.71 448.268 1021.98 448.773C1022.27 449.279 1022.92 449.603 1023.94 449.746ZM1057.1 446.989L1045.39 458.365L1037.14 457.205L1057.67 437.257L1065.52 438.361L1061.77 442.025L1062.06 442.066C1063.86 440.922 1065.81 440.101 1067.92 439.604C1070.03 439.098 1072.05 438.98 1073.97 439.251C1075.78 439.505 1077.04 440.039 1077.75 440.852C1078.46 441.665 1078.61 442.687 1078.2 443.918C1077.8 445.14 1076.82 446.504 1075.25 448.009L1062.15 460.721L1053.9 459.561L1065.7 448.093C1066.84 446.995 1067.37 446.083 1067.28 445.357C1067.21 444.623 1066.51 444.163 1065.18 443.976C1064.31 443.855 1063.4 443.895 1062.44 444.097C1061.5 444.292 1060.57 444.632 1059.65 445.117C1058.74 445.603 1057.89 446.227 1057.1 446.989ZM1067.21 461.432L1087.75 441.484L1096 442.644L1075.46 462.592L1067.21 461.432ZM1094.36 439.737C1093.19 439.573 1092.48 439.131 1092.23 438.413C1091.99 437.695 1092.28 436.918 1093.11 436.084C1093.95 435.241 1095.09 434.582 1096.51 434.108C1097.93 433.635 1099.23 433.479 1100.39 433.642C1101.56 433.806 1102.26 434.242 1102.49 434.948C1102.73 435.656 1102.43 436.432 1101.59 437.275C1100.78 438.112 1099.66 438.772 1098.23 439.255C1096.81 439.74 1095.52 439.9 1094.36 439.737ZM1115.89 445.439L1111.06 450.112L1094.7 447.814L1099.53 443.141L1115.89 445.439ZM1107.86 438.84L1116.11 440L1097.13 458.456C1096.73 458.847 1096.49 459.174 1096.39 459.438C1096.31 459.695 1096.38 459.897 1096.59 460.045C1096.81 460.186 1097.14 460.287 1097.58 460.349C1097.89 460.392 1098.25 460.412 1098.66 460.411C1099.07 460.41 1099.39 460.409 1099.6 460.409L1096.14 465.171C1095.63 465.208 1094.95 465.236 1094.11 465.257C1093.27 465.288 1092.35 465.252 1091.34 465.15C1089.31 464.934 1087.82 464.521 1086.86 463.911C1085.92 463.294 1085.55 462.488 1085.75 461.495C1085.95 460.504 1086.76 459.338 1088.17 458L1107.86 438.84ZM1111.07 468.027C1108.33 467.642 1106.43 466.879 1105.35 465.737C1104.29 464.597 1104.03 463.177 1104.57 461.479C1105.11 459.781 1106.43 457.906 1108.54 455.853C1110.64 453.809 1113 452.09 1115.63 450.695C1118.25 449.299 1120.98 448.311 1123.82 447.728C1126.65 447.145 1129.43 447.044 1132.14 447.425C1134.86 447.808 1136.75 448.57 1137.82 449.71C1138.89 450.852 1139.16 452.272 1138.62 453.97C1138.09 455.67 1136.77 457.551 1134.65 459.613C1132.55 461.656 1130.19 463.375 1127.55 464.769C1124.92 466.153 1122.19 467.138 1119.37 467.722C1116.55 468.306 1113.78 468.408 1111.07 468.027ZM1115.89 463.219C1116.9 463.361 1118 463.248 1119.18 462.878C1120.37 462.51 1121.58 461.933 1122.81 461.145C1124.05 460.357 1125.23 459.408 1126.37 458.3C1127.49 457.209 1128.29 456.226 1128.77 455.352C1129.27 454.47 1129.41 453.752 1129.2 453.196C1128.99 452.632 1128.39 452.28 1127.39 452.139C1126.37 451.997 1125.27 452.114 1124.07 452.491C1122.88 452.859 1121.67 453.437 1120.44 454.225C1119.22 455.005 1118.04 455.954 1116.89 457.072C1115.77 458.163 1114.97 459.145 1114.48 460.018C1113.99 460.891 1113.85 461.61 1114.07 462.175C1114.29 462.732 1114.9 463.08 1115.89 463.219Z" fill="black"/>
</g>
</svg>
