<svg xmlns="http://www.w3.org/2000/svg" xml:space="preserve" width="1000px" height="535.996px" x="0px" y="0px" viewBox="0 0 1000 535.996"><path fill="#003569" d="M726.146 170.226H987.85c6.703 0 12.151-5.44 12.151-12.151V12.148c0-6.707-5.448-12.147-12.151-12.147H645.523a19.422 19.422 0 0 0-14.061 6.025l-95.557 100.4-95.562-100.4A19.412 19.412 0 0 0 426.284.001H109.552a19.396 19.396 0 0 0-14.079 6.053l-90.147 95.01a19.422 19.422 0 0 0-5.327 13.359v409.421c0 6.711 5.438 12.151 12.147 12.151H158.07c6.713 0 12.151-5.44 12.151-12.151V192.603c0-11.068 8.971-20.039 20.041-20.039h155.462c11.07 0 20.041 8.971 20.041 20.039v331.241c0 6.711 5.44 12.151 12.151 12.151h145.925c6.707 0 12.147-5.44 12.147-12.151v-94.052L631.47 529.97a19.37 19.37 0 0 0 14.045 6.025H987.85c6.703 0 12.151-5.44 12.151-12.151V377.922c0-6.711-5.448-12.151-12.151-12.151H726.146c-11.071 0-20.042-8.979-20.042-20.046V190.264c0-11.064 8.97-20.038 20.042-20.038"/></svg>